{
.appVersion = "1357";
DisplayStrings = (
"/ba-khmer/ro-khmer/iMark-khmer/yo_aaSign-khmer/ka_aaSign-khmer/sa-khmer/ka-khmer \012/aaSign-khmer/ooSign-khmer/auSign-khmer/ka_aaSign-khmer/ko_aaSign-khmer/kho_aaSign-khmer/ca_aaSign-khmer/cha_aaSign-khmer/cho_aaSign-khmer/da_aaSign-khmer/ttho_aaSign-khmer/ta_aaSign-khmer/tho_aaSign-khmer/ba_aaSign-khmer/pho_aaSign-khmer/mo_aaSign-khmer/yo_aaSign-khmer/ro_aaSign-khmer/lo_aaSign-khmer/sha_aaSign-khmer/sso_aaSign-khmer/sa_aaSign-khmer/la_aaSign-khmer/qa_aaSign-khmer/kho_aaSign-khmer.post_/cho_aaSign-khmer.post_/ttho_aaSign-khmer.post_/ba_aaSign-khmer.post_/yo_aaSign-khmer.post_/sso_aaSign-khmer.post_/sa_aaSign-khmer.post_/yo_aaSign-khmer.post2_ \012/_part.aaSign-khmer.001/kha_aaSign-khmer/nyo_aaSign-khmer/do_aaSign-khmer/nno_aaSign-khmer/to_aaSign-khmer/no_aaSign-khmer/po_aaSign-khmer/ha_aaSign-khmer/nyo_aaSign-khmer.less \012/aaSign-khmer.002/ngo_aaSign-khmer \012/aaSign-khmer.003/co_aaSign-khmer/tha_aaSign-khmer/pha_aaSign-khmer \012/aaSign-khmer.004/ttha_aaSign-khmer/vo_aaSign-khmer"
);
classes = (
{
code = " ro-khmer\012vo-khmer ";
name = kmHalfCol;
},
{
code = " ka-khmer\012kha-khmer\012ko-khmer\012ngo-khmer\012ca-khmer\012cha-khmer\012co-khmer\012da-khmer\012ttha-khmer\012do-khmer\012ta-khmer\012tha-khmer\012to-khmer\012tho-khmer\012no-khmer\012ba-khmer\012pha-khmer\012po-khmer\012pho-khmer\012mo-khmer\012ro-khmer\012vo-khmer\012sha-khmer\012sso-khmer\012qa-khmer ";
name = kmOneCol;
},
{
code = " kho-khmer\012nyo-khmer\012nyo-khmer.less\012ttho-khmer\012yo-khmer\012lo-khmer\012sa-khmer\012ha-khmer\012la-khmer ";
name = kmTwoCols;
},
{
code = " cho-khmer\012nno-khmer ";
name = kmThreeCols;
},
{

glyphs = (
{
color = 3;
glyphname = A;
lastChange = "2022-01-17 02:44:06 +0000";
layers = (
{
anchors = (
{
name = bottom;
position = "{279, 0}";
},
{
name = ogonek;
position = "{546, 0}";
},
{
name = top;
position = "{279, 660}";
},
{
name = top_ring;
position = "{279, 571}";
}
);
background = {
anchors = (
{
name = bottom;
position = "{293, 0}";
},
{
name = ogonek;
position = "{574, 0}";
},
{
name = top;
position = "{293, 660}";
},
{
name = top_ring;
position = "{293, 571}";
}
);
paths = (
{
closed = 1;
nodes = (
"302 660 LINE",
"284 660 LINE",
"12 0 LINE",
"29 0 LINE",
"126 234 LINE",
"460 234 LINE",
"557 0 LINE",
"574 0 LINE"
);
},
{
closed = 1;
nodes = (
"293 642 LINE",
"454 248 LINE",
"132 248 LINE"
);
}
);
};
layerId = "C00489B0-D6FE-4186-8C18-D0EE90D80B61";
paths = (
{
closed = 1;
nodes = (
"288 660 LINE",
"270 660 LINE",
"12 0 LINE",
"29 0 LINE",
"121 234 LINE",
"437 234 LINE",
"529 0 LINE",
"546 0 LINE"
);
},
{
closed = 1;
nodes = (
"279 642 LINE",
"431 248 LINE",
"127 248 LINE"
);
}
);
width = 558;
},
{
anchors = (
{
name = bottom;
position = "{316, 0}";
},
{
name = ogonek;
position = "{609, 0}";
},
{
name = top;
position = "{316, 660}";
},
{
name = top_ring;
position = "{317, 540}";
}
);
layerId = "F67B2D2A-9F5D-44A5-A579-665B9797A041";
paths = (
{
closed = 1;
nodes = (
"360 660 LINE",
"274 660 LINE",
"24 0 LINE",
"100 0 LINE",
"170 189 LINE",
"462 189 LINE",
"532 0 LINE",
"609 0 LINE"
);
},
{
closed = 1;
nodes = (
"316 590 LINE",
"437 257 LINE",
"195 257 LINE"
);
}
);
width = 633;
},
{
anchors = (
{
name = bottom;
position = "{332, 0}";
},
{
name = ogonek;
position = "{661, 0}";
},
{
name = top;
position = "{332, 660}";
},
{
name = top_ring;
position = "{333, 540}";
}
);
background = {
anchors = (
{
name = bottom;
position = "{338, 0}";
},
{
name = ogonek;
position = "{673, 0}";
},
{
name = top;
position = "{338, 660}";
},
{
name = top_ring;
position = "{339, 540}";
}
);
paths = (
{
closed = 1;
nodes = (
"442 660 LINE",
"236 660 LINE",
"4 0 LINE",
"177 0 LINE",
"224 149 LINE",
"450 149 LINE",
"496 0 LINE",
"673 0 LINE"
);
},
{
closed = 1;
nodes = (
"337 533 LINE",
"418 266 LINE",
"256 266 LINE"
);
}
);
};
layerId = "8348C28B-C402-4653-9E73-107F95648308";
paths = (
{
closed = 1;
nodes = (
"436 660 LINE",
"230 660 LINE",
"4 0 LINE",
"177 0 LINE",
"222 149 LINE",
"440 149 LINE",
"484 0 LINE",
"661 0 LINE"
);
},
{
closed = 1;
nodes = (
"331 533 LINE",
"408 266 LINE",
"254 266 LINE"
);
}
);
width = 665;
}
);
leftKerningGroup = A;
rightKerningGroup = A;
unicode = 0041;
},
{
color = 8;
glyphname = AE;
lastChange = "2022-01-17 02:46:50 +0000";
layers = (
{
anchors = (
{
name = bottom;
position = "{431, 0}";
},
{
name = ogonek;
position = "{827, 0}";
},
{
name = top;
position = "{431, 660}";
}
);
layerId = "C00489B0-D6FE-4186-8C18-D0EE90D80B61";
paths = (
{
closed = 1;
nodes = (
"439 328 LINE",
"737 328 LINE",
"737 342 LINE",
"439 342 LINE",
"439 646 LINE",
"812 646 LINE",
"812 660 LINE",
"398 660 LINE",
"-8 0 LINE",
"15 0 LINE",
"168 254 LINE",
"423 254 LINE",
"423 0 LINE",
"827 0 LINE",
"827 14 LINE",
"439 14 LINE"
);
},
{
closed = 1;
nodes = (
"406 646 LINE",
"423 646 LINE",
"423 268 LINE",
"177 268 LINE"
);
}
);
width = 857;
},
{
anchors = (
{
name = bottom;
position = "{466, 0}";
},
{
name = ogonek;
position = "{860, 0}";
},
{
name = top;
position = "{466, 660}";
}
);
layerId = "F67B2D2A-9F5D-44A5-A579-665B9797A041";
paths = (
{
closed = 1;
nodes = (
"502 301 LINE",
"765 301 LINE",
"765 368 LINE",
"502 368 LINE",
"502 593 LINE",
"846 593 LINE",
"846 660 LINE",
"376 660 LINE",
"4 0 LINE",
"82 0 LINE",
"203 218 LINE",
"430 218 LINE",
"430 0 LINE",
"860 0 LINE",
"860 67 LINE",
"502 67 LINE"
);
},
{
closed = 1;
nodes = (
"411 593 LINE",
"430 593 LINE",
"430 286 LINE",
"241 286 LINE"
);
}
);
width = 909;
},
{
anchors = (
{
name = bottom;
position = "{495, 0}";
},
{
name = ogonek;
position = "{882, 0}";
},
{
name = top;
position = "{495, 660}";
}
);
layerId = "8348C28B-C402-4653-9E73-107F95648308";
paths = (
{
closed = 1;
nodes = (
"575 271 LINE",
"799 271 LINE",
"799 391 LINE",
"575 391 LINE",
"575 533 LINE",
"868 533 LINE",
"868 660 LINE",
"273 660 LINE",
"-4 0 LINE",
"169 0 LINE",
"244 196 LINE",
"415 196 LINE",
"415 0 LINE",
"882 0 LINE",
"882 127 LINE",
"575 127 LINE"
);
},
{
closed = 1;
nodes = (
"373 538 LINE",
"415 538 LINE",
"415 308 LINE",
"280 308 LINE"
);
}
);
width = 913;
}
);
leftKerningGroup = AE;
rightKerningGroup = E;
rightMetricsKey = E;
unicode = 00C6;
},
{
color = 8;
glyphname = B;
lastChange = "2022-01-17 02:44:25 +0000";
layers = (
{
anchors = (
{
name = bottom;
position = "{285, 0}";
},
{
name = ogonek;
position = "{317, 0}";
},
{
name = top;
position = "{285, 660}";
}
);
hints = (
{
horizontal = 1;
origin = "{0, 15}";
target = "{1, 8}";
type = Stem;
},
{
horizontal = 1;
origin = "{0, 14}";
target = "{2, 0}";
type = Stem;
},
{
origin = "{0, 15}";
target = "{1, 8}";
type = Stem;
},
{
horizontal = 1;
origin = "{1, 1}";
target = "{2, 7}";
type = Stem;
}
);
layerId = "C00489B0-D6FE-4186-8C18-D0EE90D80B61";
paths = (
{
closed = 1;
nodes = (
"317 0 LINE SMOOTH",
"452 0 OFFCURVE",
"524 58 OFFCURVE",
"524 169 CURVE SMOOTH",
"524 262 OFFCURVE",
"472 320 OFFCURVE",
"383 333 CURVE",
"383 334 LINE",
"466 353 OFFCURVE",
"506 407 OFFCURVE",
"506 493 CURVE SMOOTH",
"506 603 OFFCURVE",
"441 660 OFFCURVE",
"317 660 CURVE SMOOTH",
"99 660 LINE",
"99 0 LINE"
);
},
{
closed = 1;
nodes = (
"115 326 LINE",
"317 326 LINE SMOOTH",
"442 326 OFFCURVE",
"508 274 OFFCURVE",
"508 170 CURVE SMOOTH",
"508 67 OFFCURVE",
"442 14 OFFCURVE",
"317 14 CURVE SMOOTH",
"115 14 LINE"
);
},
{
closed = 1;
nodes = (
"115 646 LINE",
"317 646 LINE SMOOTH",
"430 646 OFFCURVE",
"490 593 OFFCURVE",
"490 492 CURVE SMOOTH",
"490 391 OFFCURVE",
"430 340 OFFCURVE",
"317 340 CURVE SMOOTH",
"115 340 LINE"
);
}
);
width = 581;
},
{
anchors = (
{
name = bottom;
position = "{299, 0}";
},
{
name = ogonek;
position = "{333, 0}";
},
{
name = top;
position = "{299, 660}";
}
);
hints = (
{
horizontal = 1;
origin = "{0, 15}";
target = "{1, 8}";
type = Stem;
},
{
horizontal = 1;
origin = "{0, 14}";
target = "{2, 0}";
type = Stem;
},
{
origin = "{0, 15}";
target = "{1, 8}";
type = Stem;
},
{
horizontal = 1;
origin = "{1, 1}";
target = "{2, 7}";
type = Stem;
}
);
layerId = "F67B2D2A-9F5D-44A5-A579-665B9797A041";
paths = (
{
closed = 1;
nodes = (
"334 0 LINE SMOOTH",
"481 0 OFFCURVE",
"563 71 OFFCURVE",
"563 183 CURVE SMOOTH",
"563 258 OFFCURVE",
"514 320 OFFCURVE",
"437 335 CURVE",
"437 336 LINE",
"511 351 OFFCURVE",
"547 415 OFFCURVE",
"547 480 CURVE SMOOTH",
"547 592 OFFCURVE",
"480 660 OFFCURVE",
"334 660 CURVE SMOOTH",
"107 660 LINE",
"107 0 LINE"
);
},
{
closed = 1;
nodes = (
"179 299 LINE",
"348 299 LINE SMOOTH",
"440 299 OFFCURVE",
"487 257 OFFCURVE",
"487 183 CURVE SMOOTH",
"487 109 OFFCURVE",
"440 67 OFFCURVE",
"348 67 CURVE SMOOTH",
"179 67 LINE"
);
},
{
closed = 1;
nodes = (
"179 593 LINE",
"333 593 LINE SMOOTH",
"425 593 OFFCURVE",
"471 555 OFFCURVE",
"471 480 CURVE SMOOTH",
"471 403 OFFCURVE",
"425 366 OFFCURVE",
"333 366 CURVE SMOOTH",
"179 366 LINE"
);
}
);
width = 630;
},
{
anchors = (
{
name = bottom;
position = "{314, 0}";
},
{
name = ogonek;
position = "{384, 0}";
},
{
name = top;
position = "{314, 660}";
}
);
hints = (
{
horizontal = 1;
origin = "{0, 15}";
target = "{1, 8}";
type = Stem;
},
{
horizontal = 1;
origin = "{0, 14}";
target = "{2, 0}";
type = Stem;
},
{
origin = "{0, 15}";
target = "{1, 8}";
type = Stem;
},
{
horizontal = 1;
origin = "{1, 1}";
target = "{2, 7}";
type = Stem;
}
);
layerId = "8348C28B-C402-4653-9E73-107F95648308";
paths = (
{
closed = 1;
nodes = (
"404 0 LINE SMOOTH",
"558 0 OFFCURVE",
"637 64 OFFCURVE",
"637 178 CURVE SMOOTH",
"637 257 OFFCURVE",
"589 319 OFFCURVE",
"490 333 CURVE",
"490 334 LINE",
"578 348 OFFCURVE",
"621 408 OFFCURVE",
"621 482 CURVE SMOOTH",
"621 597 OFFCURVE",
"547 660 OFFCURVE",
"388 660 CURVE SMOOTH",
"73 660 LINE",
"73 0 LINE"
);
},
{
closed = 1;
nodes = (
"239 267 LINE",
"374 267 LINE SMOOTH",
"432 267 OFFCURVE",
"461 241 OFFCURVE",
"461 195 CURVE SMOOTH",
"461 147 OFFCURVE",
"432 121 OFFCURVE",
"374 121 CURVE SMOOTH",
"239 121 LINE"
);
},
{
closed = 1;
nodes = (
"239 534 LINE",
"358 534 LINE SMOOTH",
"415 534 OFFCURVE",
"445 510 OFFCURVE",
"445 462 CURVE SMOOTH",
"445 415 OFFCURVE",
"415 390 OFFCURVE",
"358 390 CURVE SMOOTH",
"239 390 LINE"
);
}
);
width = 672;
}
);
leftKerningGroup = I;
leftMetricsKey = H;
unicode = 0042;
},
{
color = 8;
glyphname = C;
lastChange = "2022-01-17 02:44:25 +0000";
layers = (
{
anchors = (
{
name = bottom;
position = "{325, 0}";
},
{
name = ogonek;
position = "{415, 0}";
},
{
name = top;
position = "{325, 660}";
}
);
layerId = "C00489B0-D6FE-4186-8C18-D0EE90D80B61";
paths = (
{
closed = 1;
nodes = (
"567 171 LINE",
"538 65 OFFCURVE",
"452 4 OFFCURVE",
"334 4 CURVE SMOOTH",
"178 4 OFFCURVE",
"72 130 OFFCURVE",
"72 330 CURVE SMOOTH",
"72 529 OFFCURVE",
"177 656 OFFCURVE",
"334 656 CURVE SMOOTH",
"456 656 OFFCURVE",
"531 601 OFFCURVE",
"562 489 CURVE",
"577 496 LINE",
"546 612 OFFCURVE",
"465 670 OFFCURVE",
"334 670 CURVE SMOOTH",
"167 670 OFFCURVE",
"56 538 OFFCURVE",
"56 330 CURVE SMOOTH",
"56 122 OFFCURVE",
"168 -10 OFFCURVE",
"334 -10 CURVE SMOOTH",
"459 -10 OFFCURVE",
"551 54 OFFCURVE",
"582 165 CURVE"
);
}
);
width = 621;
},
{
anchors = (
{
name = bottom;
position = "{358, 0}";
},
{
name = ogonek;
position = "{440, 0}";
},
{
name = top;
position = "{358, 660}";
}
);
layerId = "F67B2D2A-9F5D-44A5-A579-665B9797A041";
paths = (
{
closed = 1;
nodes = (
"546 196 LINE",
"519 104 OFFCURVE",
"451 57 OFFCURVE",
"361 57 CURVE SMOOTH",
"226 57 OFFCURVE",
"142 161 OFFCURVE",
"142 330 CURVE SMOOTH",
"142 501 OFFCURVE",
"232 603 OFFCURVE",
"364 603 CURVE SMOOTH",
"455 603 OFFCURVE",
"509 561 OFFCURVE",
"537 480 CURVE",
"607 514 LINE",
"568 616 OFFCURVE",
"485 670 OFFCURVE",
"359 670 CURVE SMOOTH",
"182 670 OFFCURVE",
"67 538 OFFCURVE",
"67 330 CURVE SMOOTH",
"67 121 OFFCURVE",
"182 -10 OFFCURVE",
"361 -10 CURVE SMOOTH",
"483 -10 OFFCURVE",
"578 56 OFFCURVE",
"618 169 CURVE"
);
}
);
width = 663;
},
{
anchors = (
{
name = bottom;
position = "{352, 0}";
},
{
name = ogonek;
position = "{453, 0}";
},
{
name = top;
position = "{356, 660}";
}
);
layerId = "8348C28B-C402-4653-9E73-107F95648308";
paths = (
{
closed = 1;
nodes = (
"490 233 LINE",
"475 159 OFFCURVE",
"429 125 OFFCURVE",
"369 125 CURVE SMOOTH",
"270 125 OFFCURVE",
"221 196 OFFCURVE",
"221 330 CURVE SMOOTH",
"221 465 OFFCURVE",
"276 535 OFFCURVE",
"368 535 CURVE SMOOTH",
"428 535 OFFCURVE",
"469 509 OFFCURVE",
"487 427 CURVE",
"638 488 LINE",
"606 613 OFFCURVE",
"496 670 OFFCURVE",
"362 670 CURVE SMOOTH",
"167 670 OFFCURVE",
"45 543 OFFCURVE",
"45 330 CURVE SMOOTH",
"45 117 OFFCURVE",
"166 -10 OFFCURVE",
"363 -10 CURVE SMOOTH",
"499 -10 OFFCURVE",
"608 51 OFFCURVE",
"646 189 CURVE"
);
}
);
width = 669;
}
);
leftKerningGroup = O;
leftMetricsKey = O;
rightKerningGroup = C;
unicode = 0043;
},
{
color = 3;
glyphname = D;
lastChange = "2022-01-17 02:44:06 +0000";
layers = (
{
anchors = (
{
name = bottom;
position = "{298, 0}";
},
{
name = center;
position = "{341, 330}";
},
{
name = ogonek;
position = "{291, 0}";
},
{
name = top;
position = "{298, 660}";
}
);
background = {
anchors = (
{
name = bottom;
position = "{309, 0}";
},
{
name = center;
position = "{355, 330}";
},
{
name = ogonek;
position = "{302, 0}";
},
{
name = top;
position = "{309, 660}";
}
);
paths = (
{
closed = 1;
nodes = (
"99 660 LINE",
"99 0 LINE",
"302 0 LINE SMOOTH",
"516 0 OFFCURVE",
"627 117 OFFCURVE",
"627 340 CURVE SMOOTH",
"627 550 OFFCURVE",
"516 660 OFFCURVE",
"302 660 CURVE SMOOTH"
);
},
{
closed = 1;
nodes = (
"115 14 LINE",
"115 646 LINE",
"302 646 LINE SMOOTH",
"505 646 OFFCURVE",
"611 541 OFFCURVE",
"611 340 CURVE SMOOTH",
"611 126 OFFCURVE",
"505 14 OFFCURVE",
"302 14 CURVE SMOOTH"
);
}
);
};
layerId = "C00489B0-D6FE-4186-8C18-D0EE90D80B61";
paths = (
{
closed = 1;
nodes = (
"99 660 LINE",
"99 0 LINE",
"291 0 LINE SMOOTH",
"493 0 OFFCURVE",
"599 117 OFFCURVE",
"599 340 CURVE SMOOTH",
"599 550 OFFCURVE",
"493 660 OFFCURVE",
"291 660 CURVE SMOOTH"
);
},
{
closed = 1;
nodes = (
"115 14 LINE",
"115 646 LINE",
"291 646 LINE SMOOTH",
"482 646 OFFCURVE",
"583 541 OFFCURVE",
"583 340 CURVE SMOOTH",
"583 126 OFFCURVE",
"482 14 OFFCURVE",
"291 14 CURVE SMOOTH"
);
}
);
width = 655;
},
{
anchors = (
{
name = bottom;
position = "{333, 0}";
},
{
name = center;
position = "{351, 330}";
},
{
name = ogonek;
position = "{321, 0}";
},
{
name = top;
position = "{350, 660}";
}
);
layerId = "F67B2D2A-9F5D-44A5-A579-665B9797A041";
paths = (
{
closed = 1;
nodes = (
"107 660 LINE",
"107 0 LINE",
"313 0 LINE SMOOTH",
"513 0 OFFCURVE",
"632 118 OFFCURVE",
"632 331 CURVE SMOOTH",
"632 543 OFFCURVE",
"513 660 OFFCURVE",
"313 660 CURVE SMOOTH"
);
},
{
closed = 1;
nodes = (
"179 67 LINE",
"179 593 LINE",
"319 593 LINE SMOOTH",
"469 593 OFFCURVE",
"556 496 OFFCURVE",
"556 331 CURVE SMOOTH",
"556 165 OFFCURVE",
"469 67 OFFCURVE",
"319 67 CURVE SMOOTH"
);
}
);
width = 699;
},
{
anchors = (
{
name = bottom;
position = "{332, 0}";
},
{
name = center;
position = "{147, 140}";
},
{
name = ogonek;
position = "{353, 0}";
},
{
name = top;
position = "{340, 660}";
}
);
background = {
anchors = (
{
name = bottom;
position = "{337, 0}";
},
{
name = center;
position = "{155, 140}";
},
{
name = ogonek;
position = "{357, 0}";
},
{
name = top;
position = "{345, 660}";
}
);
paths = (
{
closed = 1;
nodes = (
"73 660 LINE",
"73 0 LINE",
"353 0 LINE SMOOTH",
"560 0 OFFCURVE",
"673 119 OFFCURVE",
"673 330 CURVE SMOOTH",
"673 541 OFFCURVE",
"560 660 OFFCURVE",
"353 660 CURVE SMOOTH"
);
},
{
closed = 1;
nodes = (
"245 130 LINE",
"245 530 LINE",
"336 530 LINE SMOOTH",
"448 530 OFFCURVE",
"497 462 OFFCURVE",
"497 330 CURVE SMOOTH",
"497 198 OFFCURVE",
"448 130 OFFCURVE",
"336 130 CURVE SMOOTH"
);
}
);
};
layerId = "8348C28B-C402-4653-9E73-107F95648308";
paths = (
{
closed = 1;
nodes = (
"73 660 LINE",
"73 0 LINE",
"349 0 LINE SMOOTH",
"550 0 OFFCURVE",
"661 119 OFFCURVE",
"661 330 CURVE SMOOTH",
"661 541 OFFCURVE",
"550 660 OFFCURVE",
"349 660 CURVE SMOOTH"
);
},
{
closed = 1;
nodes = (
"245 130 LINE",
"245 530 LINE",
"332 530 LINE SMOOTH",
"425 530 OFFCURVE",
"485 479 OFFCURVE",
"485 330 CURVE SMOOTH",
"485 182 OFFCURVE",
"426 130 OFFCURVE",
"332 130 CURVE SMOOTH"
);
}
);
width = 706;
}
);
leftKerningGroup = I;
rightKerningGroup = O;
rightMetricsKey = O;
unicode = 0044;
},
{
color = 8;
glyphname = Eth;
lastChange = "2022-01-17 02:45:19 +0000";
layers = (
{
components = (
{
name = D;
}
);
layerId = "C00489B0-D6FE-4186-8C18-D0EE90D80B61";
paths = (
{
closed = 1;
nodes = (
"330 327 LINE",
"330 341 LINE",
"5 341 LINE",
"5 327 LINE"
);
}
);
width = 691;
},
{
components = (
{
name = D;
}
);
layerId = "F67B2D2A-9F5D-44A5-A579-665B9797A041";
paths = (
{
closed = 1;
nodes = (
"392 300 LINE",
"392 367 LINE",
"23 367 LINE",
"23 300 LINE"
);
}
);
width = 716;
},
{
components = (
{
name = D;
}
);
layerId = "8348C28B-C402-4653-9E73-107F95648308";
paths = (
{
closed = 1;
nodes = (
"399 270 LINE",
"399 390 LINE",
"13 390 LINE",
"13 270 LINE"
);
}
);
width = 706;
}
);
leftKerningGroup = I;
rightKerningGroup = O;
unicode = 00D0;
},
{
color = 3;
glyphname = E;
lastChange = "2022-01-17 02:44:06 +0000";
layers = (
{
anchors = (
{
name = bottom;
position = "{319, 0}";
},
{
name = ogonek;
position = "{525, 0}";
},
{
name = top;
position = "{305, 660}";
}
);
background = {
anchors = (
{
name = bottom;
position = "{333, 0}";
},
{
name = ogonek;
position = "{553, 0}";
},
{
name = top;
position = "{318, 660}";
}
);
paths = (
{
closed = 1;
nodes = (
"553 0 LINE",
"553 14 LINE",
"115 14 LINE",
"115 330 LINE",
"453 330 LINE",
"453 344 LINE",
"115 344 LINE",
"115 646 LINE",
"536 646 LINE",
"536 660 LINE",
"99 660 LINE",
"99 0 LINE"
);
}
);
};
layerId = "C00489B0-D6FE-4186-8C18-D0EE90D80B61";
paths = (
{
closed = 1;
nodes = (
"525 0 LINE",
"525 14 LINE",
"115 14 LINE",
"115 330 LINE",
"431 330 LINE",
"431 344 LINE",
"115 344 LINE",
"115 646 LINE",
"509 646 LINE",
"509 660 LINE",
"99 660 LINE",
"99 0 LINE"
);
}
);
width = 555;
},
{
anchors = (
{
name = bottom;
position = "{339, 0}";
},
{
name = ogonek;
position = "{564, 0}";
},
{
name = top;
position = "{328, 660}";
}
);
layerId = "F67B2D2A-9F5D-44A5-A579-665B9797A041";
paths = (
{
closed = 1;
nodes = (
"564 0 LINE",
"564 67 LINE",
"179 67 LINE",
"179 301 LINE",
"469 301 LINE",
"469 369 LINE",
"179 369 LINE",
"179 593 LINE",
"550 593 LINE",
"550 660 LINE",
"107 660 LINE",
"107 0 LINE"
);
}
);
width = 613;
},
{
anchors = (
{
name = bottom;
position = "{337, 0}";
},
{
name = ogonek;
position = "{589, 0}";
},
{
name = top;
position = "{324, 660}";
}
);
background = {
anchors = (
{
name = bottom;
position = "{343, 0}";
},
{
name = ogonek;
position = "{601, 0}";
},
{
name = top;
position = "{330, 660}";
}
);
paths = (
{
closed = 1;
nodes = (
"600 0 LINE",
"600 133 LINE",
"245 133 LINE",
"245 268 LINE",
"517 268 LINE",
"517 393 LINE",
"245 393 LINE",
"245 527 LINE",
"587 527 LINE",
"587 660 LINE",
"73 660 LINE",
"73 0 LINE"
);
}
);
};
layerId = "8348C28B-C402-4653-9E73-107F95648308";
paths = (
{
closed = 1;
nodes = (
"588 0 LINE",
"588 133 LINE",
"245 133 LINE",
"245 268 LINE",
"508 268 LINE",
"508 393 LINE",
"245 393 LINE",
"245 527 LINE",
"575 527 LINE",
"575 660 LINE",
"73 660 LINE",
"73 0 LINE"
);
}
);
width = 619;
}
);
leftKerningGroup = I;
rightKerningGroup = E;
unicode = 0045;
},
{
color = 8;
glyphname = F;
lastChange = "2022-01-17 02:44:25 +0000";
layers = (
{
anchors = (
{
name = bottom;
position = "{107, 0}";
},
{
name = ogonek;
position = "{115, 0}";
},
{
name = top;
position = "{300, 660}";
}
);
layerId = "C00489B0-D6FE-4186-8C18-D0EE90D80B61";
paths = (
{
closed = 1;
nodes = (
"507 660 LINE",
"99 660 LINE",
"99 0 LINE",
"115 0 LINE",
"115 330 LINE",
"430 330 LINE",
"430 344 LINE",
"115 344 LINE",
"115 646 LINE",
"507 646 LINE"
);
}
);
width = 526;
},
{
anchors = (
{
name = bottom;
position = "{143, 0}";
},
{
name = ogonek;
position = "{179, 0}";
},
{
name = top;
position = "{323, 660}";
}
);
layerId = "F67B2D2A-9F5D-44A5-A579-665B9797A041";
paths = (
{
closed = 1;
nodes = (
"548 660 LINE",
"107 660 LINE",
"107 0 LINE",
"179 0 LINE",
"179 301 LINE",
"468 301 LINE",
"468 369 LINE",
"179 369 LINE",
"179 593 LINE",
"548 593 LINE"
);
}
);
width = 585;
},
{
anchors = (
{
name = bottom;
position = "{159, 0}";
},
{
name = ogonek;
position = "{245, 0}";
},
{
name = top;
position = "{312, 660}";
}
);
layerId = "8348C28B-C402-4653-9E73-107F95648308";
paths = (
{
closed = 1;
nodes = (
"574 660 LINE",
"73 660 LINE",
"73 0 LINE",
"245 0 LINE",
"245 254 LINE",
"508 254 LINE",
"508 387 LINE",
"245 387 LINE",
"245 527 LINE",
"574 527 LINE"
);
}
);
width = 600;
}
);
leftKerningGroup = I;
leftMetricsKey = H;
unicode = 0046;
},
{
color = 3;
glyphname = G;
lastChange = "2022-01-17 02:44:06 +0000";
layers = (
{
anchors = (
{
name = bottom;
position = "{336, 0}";
},
{
name = ogonek;
position = "{411, 0}";
},
{
name = top;
position = "{329, 660}";
}
);
background = {
anchors = (
{
name = bottom;
position = "{351, 0}";
},
{
name = ogonek;
position = "{430, 0}";
},
{
name = top;
position = "{343, 660}";
}
);
paths = (
{
closed = 1;
nodes = (
"482 -10 OFFCURVE",
"567 59 OFFCURVE",
"595 164 CURVE",
"594 166 LINE",
"594 0 LINE",
"610 0 LINE",
"610 311 LINE",
"353 311 LINE",
"353 297 LINE",
"594 297 LINE",
"594 244 LINE SMOOTH",
"594 157 OFFCURVE",
"545 4 OFFCURVE",
"355 4 CURVE SMOOTH",
"180 4 OFFCURVE",
"72 130 OFFCURVE",
"72 330 CURVE SMOOTH",
"72 530 OFFCURVE",
"183 656 OFFCURVE",
"349 656 CURVE SMOOTH",
"479 656 OFFCURVE",
"558 601 OFFCURVE",
"591 489 CURVE",
"605 496 LINE",
"572 612 OFFCURVE",
"488 670 OFFCURVE",
"349 670 CURVE SMOOTH",
"173 670 OFFCURVE",
"56 539 OFFCURVE",
"56 330 CURVE SMOOTH",
"56 121 OFFCURVE",
"170 -10 OFFCURVE",
"355 -10 CURVE SMOOTH"
);
}
);
};
layerId = "C00489B0-D6FE-4186-8C18-D0EE90D80B61";
paths = (
{
closed = 1;
nodes = (
"459 -10 OFFCURVE",
"541 59 OFFCURVE",
"567 164 CURVE",
"566 166 LINE",
"566 0 LINE",
"582 0 LINE",
"582 311 LINE",
"338 311 LINE",
"338 297 LINE",
"566 297 LINE",
"566 244 LINE SMOOTH",
"566 157 OFFCURVE",
"519 4 OFFCURVE",
"340 4 CURVE SMOOTH",
"174 4 OFFCURVE",
"72 131 OFFCURVE",
"72 330 CURVE SMOOTH",
"72 529 OFFCURVE",
"177 656 OFFCURVE",
"334 656 CURVE SMOOTH",
"457 656 OFFCURVE",
"532 601 OFFCURVE",
"563 489 CURVE",
"577 496 LINE",
"546 612 OFFCURVE",
"465 670 OFFCURVE",
"334 670 CURVE SMOOTH",
"167 670 OFFCURVE",
"56 538 OFFCURVE",
"56 330 CURVE SMOOTH",
"56 121 OFFCURVE",
"165 -10 OFFCURVE",
"340 -10 CURVE SMOOTH"
);
}
);
width = 648;
},
{
anchors = (
{
name = bottom;
position = "{387, 0}";
},
{
name = ogonek;
position = "{438, 0}";
},
{
name = top;
position = "{359, 660}";
}
);
layerId = "F67B2D2A-9F5D-44A5-A579-665B9797A041";
paths = (
{
closed = 1;
nodes = (
"471 -10 OFFCURVE",
"544 40 OFFCURVE",
"577 126 CURVE",
"562 128 LINE",
"566 0 LINE",
"623 0 LINE",
"623 330 LINE",
"352 330 LINE",
"352 263 LINE",
"557 263 LINE",
"557 236 LINE SMOOTH",
"557 126 OFFCURVE",
"479 57 OFFCURVE",
"365 57 CURVE SMOOTH",
"221 57 OFFCURVE",
"142 160 OFFCURVE",
"142 330 CURVE SMOOTH",
"142 500 OFFCURVE",
"235 603 OFFCURVE",
"367 603 CURVE SMOOTH",
"460 603 OFFCURVE",
"524 561 OFFCURVE",
"552 480 CURVE",
"618 516 LINE",
"571 620 OFFCURVE",
"494 670 OFFCURVE",
"367 670 CURVE SMOOTH",
"189 670 OFFCURVE",
"67 539 OFFCURVE",
"67 330 CURVE SMOOTH",
"67 121 OFFCURVE",
"181 -10 OFFCURVE",
"362 -10 CURVE SMOOTH"
);
}
);
width = 700;
},
{
anchors = (
{
name = bottom;
position = "{382, 0}";
},
{
name = ogonek;
position = "{414, 0}";
},
{
name = top;
position = "{362, 660}";
}
);
background = {
anchors = (
{
name = bottom;
position = "{389, 0}";
},
{
name = ogonek;
position = "{422, 0}";
},
{
name = top;
position = "{368, 660}";
}
);
paths = (
{
closed = 1;
nodes = (
"461 -10 OFFCURVE",
"534 41 OFFCURVE",
"562 131 CURVE",
"534 155 LINE",
"547 0 LINE",
"664 0 LINE",
"664 356 LINE",
"367 356 LINE",
"367 241 LINE",
"518 241 LINE",
"518 231 LINE SMOOTH",
"518 157 OFFCURVE",
"461 121 OFFCURVE",
"385 121 CURVE SMOOTH",
"276 121 OFFCURVE",
"221 189 OFFCURVE",
"221 330 CURVE SMOOTH",
"221 464 OFFCURVE",
"277 535 OFFCURVE",
"376 535 CURVE SMOOTH",
"441 535 OFFCURVE",
"487 506 OFFCURVE",
"504 438 CURVE",
"663 501 LINE",
"612 618 OFFCURVE",
"525 670 OFFCURVE",
"375 670 CURVE SMOOTH",
"172 670 OFFCURVE",
"45 542 OFFCURVE",
"45 329 CURVE SMOOTH",
"45 110 OFFCURVE",
"169 -10 OFFCURVE",
"346 -10 CURVE SMOOTH"
);
}
);
};
layerId = "8348C28B-C402-4653-9E73-107F95648308";
paths = (
{
closed = 1;
nodes = (
"452 -10 OFFCURVE",
"523 41 OFFCURVE",
"550 131 CURVE",
"522 155 LINE",
"535 0 LINE",
"652 0 LINE",
"652 356 LINE",
"361 356 LINE",
"361 241 LINE",
"506 241 LINE",
"506 231 LINE SMOOTH",
"506 157 OFFCURVE",
"450 121 OFFCURVE",
"379 121 CURVE SMOOTH",
"274 121 OFFCURVE",
"221 189 OFFCURVE",
"221 330 CURVE SMOOTH",
"221 464 OFFCURVE",
"275 535 OFFCURVE",
"370 535 CURVE SMOOTH",
"431 535 OFFCURVE",
"476 506 OFFCURVE",
"492 438 CURVE",
"651 501 LINE",
"601 618 OFFCURVE",
"516 670 OFFCURVE",
"369 670 CURVE SMOOTH",
"170 670 OFFCURVE",
"45 542 OFFCURVE",
"45 329 CURVE SMOOTH",
"45 110 OFFCURVE",
"167 -10 OFFCURVE",
"339 -10 CURVE SMOOTH"
);
}
);
width = 711;
}
);
leftKerningGroup = O;
leftMetricsKey = O;
rightKerningGroup = G;
unicode = 0047;
},
{
color = 3;
glyphname = H;
lastChange = "2022-01-17 02:44:06 +0000";
layers = (
{
anchors = (
{
name = bottom;
position = "{334, 0}";
},
{
name = ogonek;
position = "{569, 0}";
},
{
name = top;
position = "{334, 660}";
}
);
layerId = "C00489B0-D6FE-4186-8C18-D0EE90D80B61";
paths = (
{
closed = 1;
nodes = (
"553 660 LINE",
"553 0 LINE",
"569 0 LINE",
"569 660 LINE"
);
},
{
closed = 1;
nodes = (
"99 660 LINE",
"99 0 LINE",
"115 0 LINE",
"115 660 LINE"
);
},
{
closed = 1;
nodes = (
"107 344 LINE",
"107 330 LINE",
"562 330 LINE",
"562 344 LINE"
);
}
);
width = 668;
},
{
anchors = (
{
name = bottom;
position = "{356, 0}";
},
{
name = ogonek;
position = "{604, 0}";
},
{
name = top;
position = "{356, 660}";
}
);
layerId = "F67B2D2A-9F5D-44A5-A579-665B9797A041";
paths = (
{
closed = 1;
nodes = (
"532 660 LINE",
"532 0 LINE",
"604 0 LINE",
"604 660 LINE"
);
},
{
closed = 1;
nodes = (
"107 660 LINE",
"107 0 LINE",
"179 0 LINE",
"179 660 LINE"
);
},
{
closed = 1;
nodes = (
"145 369 LINE",
"145 301 LINE",
"566 301 LINE",
"566 369 LINE"
);
}
);
width = 711;
},
{
anchors = (
{
name = bottom;
position = "{365, 0}";
},
{
name = ogonek;
position = "{663, 0}";
},
{
name = top;
position = "{365, 660}";
}
);
background = {
anchors = (
{
name = bottom;
position = "{371, 0}";
},
{
name = ogonek;
position = "{675, 0}";
},
{
name = top;
position = "{371, 660}";
}
);
paths = (
{
closed = 1;
nodes = (
"497 660 LINE",
"497 0 LINE",
"669 0 LINE",
"669 660 LINE"
);
},
{
closed = 1;
nodes = (
"73 660 LINE",
"73 0 LINE",
"245 0 LINE",
"245 660 LINE"
);
},
{
closed = 1;
nodes = (
"157 399 LINE",
"157 266 LINE",
"589 266 LINE",
"589 399 LINE"
);
}
);
};
layerId = "8348C28B-C402-4653-9E73-107F95648308";
paths = (
{
closed = 1;
nodes = (
"485 660 LINE",
"485 0 LINE",
"657 0 LINE",
"657 660 LINE"
);
},
{
closed = 1;
nodes = (
"73 660 LINE",
"73 0 LINE",
"245 0 LINE",
"245 660 LINE"
);
},
{
closed = 1;
nodes = (
"157 399 LINE",
"157 266 LINE",
"577 266 LINE",
"577 399 LINE"
);
}
);
width = 730;
}
);
leftKerningGroup = I;
rightKerningGroup = I;
unicode = 0048;
},
{
color = 8;
glyphname = I;
lastChange = "2022-01-17 02:44:25 +0000";
layers = (
{
anchors = (
{
name = bottom;
position = "{107, 0}";
},
{
name = ogonek;
position = "{115, 0}";
},
{
name = top;
position = "{107, 660}";
}
);
layerId = "C00489B0-D6FE-4186-8C18-D0EE90D80B61";
paths = (
{
closed = 1;
nodes = (
"99 660 LINE",
"99 0 LINE",
"115 0 LINE",
"115 660 LINE"
);
}
);
width = 214;
},
{
anchors = (
{
name = bottom;
position = "{143, 0}";
},
{
name = ogonek;
position = "{179, 0}";
},
{
name = top;
position = "{143, 660}";
}
);
layerId = "F67B2D2A-9F5D-44A5-A579-665B9797A041";
paths = (
{
closed = 1;
nodes = (
"107 660 LINE",
"107 0 LINE",
"179 0 LINE",
"179 660 LINE"
);
}
);
width = 286;
},
{
anchors = (
{
name = bottom;
position = "{159, 0}";
},
{
name = ogonek;
position = "{245, 0}";
},
{
name = top;
position = "{159, 660}";
}
);
layerId = "8348C28B-C402-4653-9E73-107F95648308";
paths = (
{
closed = 1;
nodes = (
"73 660 LINE",
"73 0 LINE",
"245 0 LINE",
"245 660 LINE"
);
}
);
width = 318;
}
);
leftKerningGroup = I;
leftMetricsKey = H;
rightKerningGroup = I;
rightMetricsKey = H;
unicode = 0049;
},
{
color = 8;
glyphname = Idieresis;
lastChange = "2022-01-02 01:25:12 +0000";
layers = (
{
components = (
{
alignment = -1;
name = I;
}
);
layerId = "C00489B0-D6FE-4186-8C18-D0EE90D80B61";
paths = (
{
closed = 1;
nodes = (
"35 802 OFFCURVE",
"26 793 OFFCURVE",
"26 780 CURVE SMOOTH",
"26 767 OFFCURVE",
"35 758 OFFCURVE",
"48 758 CURVE SMOOTH",
"61 758 OFFCURVE",
"70 767 OFFCURVE",
"70 780 CURVE SMOOTH",
"70 793 OFFCURVE",
"61 802 OFFCURVE",
"48 802 CURVE SMOOTH"
);
},
{
closed = 1;
nodes = (
"153 802 OFFCURVE",
"144 793 OFFCURVE",
"144 780 CURVE SMOOTH",
"144 767 OFFCURVE",
"153 758 OFFCURVE",
"166 758 CURVE SMOOTH",
"179 758 OFFCURVE",
"188 767 OFFCURVE",
"188 780 CURVE SMOOTH",
"188 793 OFFCURVE",
"179 802 OFFCURVE",
"166 802 CURVE SMOOTH"
);
}
);
width = 214;
},
{
components = (
{
alignment = -1;
name = I;
}
);
hints = (
{
horizontal = 1;
origin = "{0, 5}";
target = "{0, 11}";
type = Stem;
}
);
layerId = "F67B2D2A-9F5D-44A5-A579-665B9797A041";
paths = (
{
closed = 1;
nodes = (
"29 849 OFFCURVE",
"8 828 OFFCURVE",
"8 797 CURVE SMOOTH",
"8 765 OFFCURVE",
"29 744 OFFCURVE",
"60 744 CURVE SMOOTH",
"92 744 OFFCURVE",
"113 765 OFFCURVE",
"113 797 CURVE SMOOTH",
"113 828 OFFCURVE",
"92 849 OFFCURVE",
"60 849 CURVE SMOOTH"
);
},
{
closed = 1;
nodes = (
"194 849 OFFCURVE",
"173 828 OFFCURVE",
"173 797 CURVE SMOOTH",
"173 765 OFFCURVE",
"194 744 OFFCURVE",
"226 744 CURVE SMOOTH",
"257 744 OFFCURVE",
"278 765 OFFCURVE",
"278 797 CURVE SMOOTH",
"278 828 OFFCURVE",
"257 849 OFFCURVE",
"226 849 CURVE SMOOTH"
);
}
);
width = 286;
},
{
components = (
{
alignment = -1;
name = I;
}
);
hints = (
{
horizontal = 1;
origin = "{0, 5}";
target = "{0, 11}";
type = Stem;
}
);
layerId = "8348C28B-C402-4653-9E73-107F95648308";
paths = (
{
closed = 1;
nodes = (
"5 870 OFFCURVE",
"-26 841 OFFCURVE",
"-26 793 CURVE SMOOTH",
"-26 745 OFFCURVE",
"5 716 OFFCURVE",
"56 716 CURVE SMOOTH",
"108 716 OFFCURVE",
"140 745 OFFCURVE",
"140 793 CURVE SMOOTH",
"140 841 OFFCURVE",
"108 870 OFFCURVE",
"56 870 CURVE SMOOTH"
);
},
{
closed = 1;
nodes = (
"209 870 OFFCURVE",
"178 841 OFFCURVE",
"178 793 CURVE SMOOTH",
"178 745 OFFCURVE",
"209 716 OFFCURVE",
"260 716 CURVE SMOOTH",
"312 716 OFFCURVE",
"344 745 OFFCURVE",
"344 793 CURVE SMOOTH",
"344 841 OFFCURVE",
"312 870 OFFCURVE",
"260 870 CURVE SMOOTH"
);
}
);
width = 318;
}
);
leftKerningGroup = I;
rightKerningGroup = I;
unicode = 00CF;
},
{
color = 8;
glyphname = J;
lastChange = "2022-01-17 02:44:25 +0000";
layers = (
{
anchors = (
{
name = bottom;
position = "{205, 0}";
},
{
name = ogonek;
position = "{256, 0}";
},
{
name = top;
position = "{370, 660}";
}
);
layerId = "C00489B0-D6FE-4186-8C18-D0EE90D80B61";
paths = (
{
closed = 1;
nodes = (
"362 660 LINE",
"362 209 LINE SMOOTH",
"362 84 OFFCURVE",
"307 4 OFFCURVE",
"198 4 CURVE SMOOTH",
"89 4 OFFCURVE",
"31 76 OFFCURVE",
"48 208 CURVE",
"32 200 LINE",
"15 74 OFFCURVE",
"77 -10 OFFCURVE",
"198 -10 CURVE SMOOTH",
"316 -10 OFFCURVE",
"378 75 OFFCURVE",
"378 209 CURVE SMOOTH",
"378 660 LINE"
);
}
);
width = 470;
},
{
anchors = (
{
name = bottom;
position = "{242, 0}";
},
{
name = ogonek;
position = "{295, 0}";
},
{
name = top;
position = "{404, 660}";
}
);
layerId = "F67B2D2A-9F5D-44A5-A579-665B9797A041";
paths = (
{
closed = 1;
nodes = (
"368 660 LINE",
"368 241 LINE SMOOTH",
"368 135 OFFCURVE",
"340 57 OFFCURVE",
"227 57 CURVE SMOOTH",
"131 57 OFFCURVE",
"98 115 OFFCURVE",
"112 230 CURVE",
"45 216 LINE",
"21 78 OFFCURVE",
"90 -10 OFFCURVE",
"229 -10 CURVE SMOOTH",
"361 -10 OFFCURVE",
"440 78 OFFCURVE",
"440 224 CURVE SMOOTH",
"440 660 LINE"
);
}
);
width = 540;
},
{
anchors = (
{
name = bottom;
position = "{290, 0}";
},
{
name = ogonek;
position = "{357, 0}";
},
{
name = top;
position = "{459, 660}";
}
);
layerId = "8348C28B-C402-4653-9E73-107F95648308";
paths = (
{
closed = 1;
nodes = (
"373 660 LINE",
"373 272 LINE SMOOTH",
"373 182 OFFCURVE",
"354 125 OFFCURVE",
"282 125 CURVE SMOOTH",
"213 125 OFFCURVE",
"188 170 OFFCURVE",
"203 291 CURVE",
"35 261 LINE",
"10 102 OFFCURVE",
"87 -10 OFFCURVE",
"275 -10 CURVE SMOOTH",
"447 -10 OFFCURVE",
"545 87 OFFCURVE",
"545 254 CURVE SMOOTH",
"545 660 LINE"
);
}
);
width = 606;
}
);
leftKerningGroup = J;
rightKerningGroup = U;
unicode = 004A;
},
{
color = 8;
glyphname = K;
lastChange = "2022-01-17 02:44:25 +0000";
layers = (
{
anchors = (
{
name = bottom;
position = "{305, 0}";
},
{
name = ogonek;
position = "{516, 0}";
},
{
name = top;
position = "{305, 660}";
}
);
layerId = "C00489B0-D6FE-4186-8C18-D0EE90D80B61";
paths = (
{
closed = 1;
nodes = (
"484 660 LINE",
"106 248 LINE",
"106 225 LINE",
"258 389 LINE",
"260 391 LINE",
"507 660 LINE"
);
},
{
closed = 1;
nodes = (
"99 660 LINE",
"99 0 LINE",
"115 0 LINE",
"115 660 LINE"
);
},
{
closed = 1;
nodes = (
"249 390 LINE",
"495 0 LINE",
"516 0 LINE",
"260 404 LINE"
);
}
);
width = 529;
},
{
anchors = (
{
name = bottom;
position = "{356, 0}";
},
{
name = ogonek;
position = "{600, 0}";
},
{
name = top;
position = "{340, 660}";
}
);
layerId = "F67B2D2A-9F5D-44A5-A579-665B9797A041";
paths = (
{
closed = 1;
nodes = (
"502 660 LINE",
"143 275 LINE",
"144 178 LINE",
"311 357 LINE",
"322 368 LINE",
"596 660 LINE"
);
},
{
closed = 1;
nodes = (
"107 660 LINE",
"107 0 LINE",
"179 0 LINE",
"179 660 LINE"
);
},
{
closed = 1;
nodes = (
"271 373 LINE",
"513 0 LINE",
"600 0 LINE",
"330 415 LINE"
);
}
);
width = 626;
},
{
anchors = (
{
name = bottom;
position = "{357, 0}";
},
{
name = ogonek;
position = "{672, 0}";
},
{
name = top;
position = "{351, 660}";
}
);
layerId = "8348C28B-C402-4653-9E73-107F95648308";
paths = (
{
closed = 1;
nodes = (
"470 660 LINE",
"161 263 LINE",
"194 124 LINE",
"347 315 LINE",
"357 289 LINE",
"660 660 LINE"
);
},
{
closed = 1;
nodes = (
"73 660 LINE",
"73 0 LINE",
"245 0 LINE",
"245 660 LINE"
);
},
{
closed = 1;
nodes = (
"285 346 LINE",
"477 0 LINE",
"672 0 LINE",
"414 442 LINE"
);
}
);
width = 681;
}
);
leftKerningGroup = I;
leftMetricsKey = H;
rightKerningGroup = K;
unicode = 004B;
},
{
color = 3;
glyphname = L;
lastChange = "2022-01-17 02:44:06 +0000";
layers = (
{
anchors = (
{
name = bottom;
position = "{316, 0}";
},
{
name = center;
position = "{341, 344}";
},
{
name = ogonek;
position = "{503, 0}";
},
{
name = top;
position = "{107, 660}";
},
{
name = topright;
position = "{306, 660}";
}
);
background = {
anchors = (
{
name = bottom;
position = "{331, 0}";
},
{
name = center;
position = "{358, 344}";
},
{
name = ogonek;
position = "{531, 0}";
},
{
name = top;
position = "{107, 660}";
},
{
name = topright;
position = "{321, 660}";
}
);
paths = (
{
closed = 1;
nodes = (
"115 660 LINE",
"99 660 LINE",
"99 0 LINE",
"531 0 LINE",
"531 14 LINE",
"115 14 LINE"
);
}
);
};
layerId = "C00489B0-D6FE-4186-8C18-D0EE90D80B61";
paths = (
{
closed = 1;
nodes = (
"115 660 LINE",
"99 660 LINE",
"99 0 LINE",
"503 0 LINE",
"503 14 LINE",
"115 14 LINE"
);
}
);
width = 515;
},
{
anchors = (
{
name = bottom;
position = "{348, 0}";
},
{
name = center;
position = "{383, 353}";
},
{
name = ogonek;
position = "{544, 0}";
},
{
name = top;
position = "{143, 660}";
},
{
name = topright;
position = "{322, 660}";
}
);
layerId = "F67B2D2A-9F5D-44A5-A579-665B9797A041";
paths = (
{
closed = 1;
nodes = (
"179 660 LINE",
"107 660 LINE",
"107 0 LINE",
"544 0 LINE",
"544 67 LINE",
"179 67 LINE"
);
}
);
width = 573;
},
{
anchors = (
{
name = bottom;
position = "{329, 0}";
},
{
name = center;
position = "{379, 376}";
},
{
name = ogonek;
position = "{564, 0}";
},
{
name = top;
position = "{159, 660}";
},
{
name = topright;
position = "{380, 660}";
}
);
background = {
anchors = (
{
name = bottom;
position = "{336, 0}";
},
{
name = center;
position = "{386, 376}";
},
{
name = ogonek;
position = "{576, 0}";
},
{
name = top;
position = "{159, 660}";
},
{
name = topright;
position = "{385, 660}";
}
);
paths = (
{
closed = 1;
nodes = (
"245 660 LINE",
"73 660 LINE",
"73 0 LINE",
"576 0 LINE",
"576 133 LINE",
"245 133 LINE"
);
}
);
};
layerId = "8348C28B-C402-4653-9E73-107F95648308";
paths = (
{
closed = 1;
nodes = (
"245 660 LINE",
"73 660 LINE",
"73 0 LINE",
"564 0 LINE",
"564 133 LINE",
"245 133 LINE"
);
}
);
width = 590;
}
);
leftKerningGroup = I;
leftMetricsKey = H;
rightKerningGroup = L;
unicode = 004C;
},
{
color = 8;
glyphname = M;
lastChange = "2022-01-17 02:44:25 +0000";
layers = (
{
anchors = (
{
name = bottom;
position = "{379, 0}";
},
{
name = ogonek;
position = "{659, 0}";
},
{
name = top;
position = "{379, 660}";
}
);
layerId = "C00489B0-D6FE-4186-8C18-D0EE90D80B61";
paths = (
{
closed = 1;
nodes = (
"638 660 LINE",
"391 47 LINE",
"379 19 LINE",
"379 19 LINE",
"367 48 LINE",
"120 660 LINE",
"99 660 LINE",
"99 0 LINE",
"115 0 LINE",
"115 580 LINE",
"114 637 LINE",
"114 637 LINE",
"369 0 LINE",
"389 0 LINE",
"644 637 LINE",
"644 637 LINE",
"643 580 LINE",
"643 0 LINE",
"659 0 LINE",
"659 660 LINE"
);
}
);
width = 758;
},
{
anchors = (
{
name = bottom;
position = "{414, 0}";
},
{
name = ogonek;
position = "{721, 0}";
},
{
name = top;
position = "{414, 660}";
}
);
layerId = "F67B2D2A-9F5D-44A5-A579-665B9797A041";
paths = (
{
closed = 1;
nodes = (
"611 660 LINE",
"459 232 LINE",
"415 85 LINE",
"413 85 LINE",
"370 233 LINE",
"217 660 LINE",
"107 660 LINE",
"107 0 LINE",
"175 0 LINE",
"175 436 LINE",
"167 595 LINE",
"168 595 LINE",
"383 0 LINE",
"445 0 LINE",
"659 595 LINE",
"660 595 LINE",
"652 436 LINE",
"652 0 LINE",
"721 0 LINE",
"721 660 LINE"
);
}
);
width = 828;
},
{
anchors = (
{
name = bottom;
position = "{449, 0}";
},
{
name = ogonek;
position = "{825, 0}";
},
{
name = top;
position = "{449, 660}";
}
);
layerId = "8348C28B-C402-4653-9E73-107F95648308";
paths = (
{
closed = 1;
nodes = (
"590 660 LINE",
"492 323 LINE",
"455 184 LINE",
"453 184 LINE",
"417 324 LINE",
"318 660 LINE",
"73 660 LINE",
"73 0 LINE",
"226 0 LINE",
"226 303 LINE",
"221 506 LINE",
"223 506 LINE",
"380 0 LINE",
"519 0 LINE",
"676 506 LINE",
"678 506 LINE",
"673 303 LINE",
"673 0 LINE",
"825 0 LINE",
"825 660 LINE"
);
}
);
width = 898;
}
);
leftKerningGroup = I;
leftMetricsKey = H;
rightKerningGroup = I;
rightMetricsKey = H;
unicode = 004D;
},
{
color = 3;
glyphname = N;
lastChange = "2022-01-17 02:44:06 +0000";
layers = (
{
anchors = (
{
name = bottom;
position = "{333, 0}";
},
{
name = ogonek;
position = "{567, 0}";
},
{
name = top;
position = "{339, 660}";
}
);
background = {
anchors = (
{
name = bottom;
position = "{347, 0}";
},
{
name = ogonek;
position = "{595, 0}";
},
{
name = top;
position = "{353, 660}";
}
);
paths = (
{
closed = 1;
nodes = (
"579 660 LINE",
"579 73 LINE",
"580 16 LINE",
"580 16 LINE",
"554 55 LINE",
"121 660 LINE",
"99 660 LINE",
"99 0 LINE",
"115 0 LINE",
"115 587 LINE",
"114 644 LINE",
"114 644 LINE",
"140 605 LINE",
"573 0 LINE",
"595 0 LINE",
"595 660 LINE"
);
}
);
};
layerId = "C00489B0-D6FE-4186-8C18-D0EE90D80B61";
paths = (
{
closed = 1;
nodes = (
"551 660 LINE",
"551 73 LINE",
"552 16 LINE",
"552 16 LINE",
"527 55 LINE",
"121 660 LINE",
"99 660 LINE",
"99 0 LINE",
"115 0 LINE",
"115 587 LINE",
"114 644 LINE",
"114 644 LINE",
"139 605 LINE",
"545 0 LINE",
"567 0 LINE",
"567 660 LINE"
);
}
);
width = 666;
},
{
anchors = (
{
name = bottom;
position = "{381, 0}";
},
{
name = ogonek;
position = "{604, 0}";
},
{
name = top;
position = "{360, 660}";
}
);
layerId = "F67B2D2A-9F5D-44A5-A579-665B9797A041";
paths = (
{
closed = 1;
nodes = (
"536 660 LINE",
"536 179 LINE",
"539 83 LINE",
"538 83 LINE",
"476 199 LINE",
"195 660 LINE",
"107 660 LINE",
"107 0 LINE",
"175 0 LINE",
"175 481 LINE",
"172 576 LINE",
"173 576 LINE",
"234 462 LINE",
"516 0 LINE",
"604 0 LINE",
"604 660 LINE"
);
}
);
width = 711;
},
{
anchors = (
{
name = bottom;
position = "{377, 0}";
},
{
name = ogonek;
position = "{656, 0}";
},
{
name = top;
position = "{366, 660}";
}
);
background = {
anchors = (
{
name = bottom;
position = "{383, 0}";
},
{
name = ogonek;
position = "{668, 0}";
},
{
name = top;
position = "{372, 660}";
}
);
paths = (
{
closed = 1;
nodes = (
"516 660 LINE",
"516 327 LINE",
"520 205 LINE",
"519 205 LINE",
"469 303 LINE",
"264 660 LINE",
"73 660 LINE",
"73 0 LINE",
"225 0 LINE",
"225 333 LINE",
"221 455 LINE",
"222 455 LINE",
"272 357 LINE",
"477 0 LINE",
"668 0 LINE",
"668 660 LINE"
);
}
);
};
layerId = "8348C28B-C402-4653-9E73-107F95648308";
paths = (
{
closed = 1;
nodes = (
"504 660 LINE",
"504 327 LINE",
"508 205 LINE",
"507 205 LINE",
"458 303 LINE",
"264 660 LINE",
"73 660 LINE",
"73 0 LINE",
"225 0 LINE",
"225 333 LINE",
"221 455 LINE",
"222 455 LINE",
"271 357 LINE",
"465 0 LINE",
"656 0 LINE",
"656 660 LINE"
);
}
);
width = 729;
}
);
leftKerningGroup = I;
leftMetricsKey = H;
rightKerningGroup = I;
rightMetricsKey = H;
unicode = 004E;
},
{
color = 3;
glyphname = O;
lastChange = "2022-01-17 02:44:06 +0000";
layers = (
{
anchors = (
{
name = bottom;
position = "{343, 0}";
},
{
name = center;
position = "{343, 330}";
},
{
name = ogonek;
position = "{416, 0}";
},
{
name = top;
position = "{343, 660}";
},
{
name = topleft;
position = "{22, 660}";
},
{
name = topright;
position = "{506, 660}";
}
);
background = {
anchors = (
{
name = bottom;
position = "{357, 0}";
},
{
name = center;
position = "{357, 330}";
},
{
name = ogonek;
position = "{433, 0}";
},
{
name = top;
position = "{357, 660}";
},
{
name = topleft;
position = "{20, 660}";
},
{
name = topright;
position = "{528, 660}";
}
);
paths = (
{
closed = 1;
nodes = (
"172 670 OFFCURVE",
"56 539 OFFCURVE",
"56 330 CURVE SMOOTH",
"56 121 OFFCURVE",
"172 -10 OFFCURVE",
"357 -10 CURVE SMOOTH",
"542 -10 OFFCURVE",
"658 121 OFFCURVE",
"658 330 CURVE SMOOTH",
"658 539 OFFCURVE",
"542 670 OFFCURVE",
"357 670 CURVE SMOOTH"
);
},
{
closed = 1;
nodes = (
"532 656 OFFCURVE",
"642 530 OFFCURVE",
"642 330 CURVE SMOOTH",
"642 130 OFFCURVE",
"532 4 OFFCURVE",
"357 4 CURVE SMOOTH",
"182 4 OFFCURVE",
"72 130 OFFCURVE",
"72 330 CURVE SMOOTH",
"72 530 OFFCURVE",
"182 656 OFFCURVE",
"357 656 CURVE SMOOTH"
);
}
);
};
layerId = "C00489B0-D6FE-4186-8C18-D0EE90D80B61";
paths = (
{
closed = 1;
nodes = (
"167 670 OFFCURVE",
"56 539 OFFCURVE",
"56 330 CURVE SMOOTH",
"56 121 OFFCURVE",
"167 -10 OFFCURVE",
"343 -10 CURVE SMOOTH",
"519 -10 OFFCURVE",
"630 121 OFFCURVE",
"630 330 CURVE SMOOTH",
"630 539 OFFCURVE",
"519 670 OFFCURVE",
"343 670 CURVE SMOOTH"
);
},
{
closed = 1;
nodes = (
"509 656 OFFCURVE",
"614 530 OFFCURVE",
"614 330 CURVE SMOOTH",
"614 130 OFFCURVE",
"509 4 OFFCURVE",
"343 4 CURVE SMOOTH",
"177 4 OFFCURVE",
"72 130 OFFCURVE",
"72 330 CURVE SMOOTH",
"72 530 OFFCURVE",
"177 656 OFFCURVE",
"343 656 CURVE SMOOTH"
);
}
);
width = 686;
},
{
anchors = (
{
name = bottom;
position = "{363, 0}";
},
{
name = center;
position = "{363, 330}";
},
{
name = ogonek;
position = "{461, 5}";
},
{
name = top;
position = "{363, 660}";
},
{
name = topleft;
position = "{22, 660}";
},
{
name = topright;
position = "{532, 660}";
}
);
layerId = "F67B2D2A-9F5D-44A5-A579-665B9797A041";
paths = (
{
closed = 1;
nodes = (
"181 670 OFFCURVE",
"67 539 OFFCURVE",
"67 330 CURVE SMOOTH",
"67 121 OFFCURVE",
"181 -10 OFFCURVE",
"363 -10 CURVE SMOOTH",
"545 -10 OFFCURVE",
"659 121 OFFCURVE",
"659 330 CURVE SMOOTH",
"659 539 OFFCURVE",
"545 670 OFFCURVE",
"363 670 CURVE SMOOTH"
);
},
{
closed = 1;
nodes = (
"499 603 OFFCURVE",
"584 500 OFFCURVE",
"584 330 CURVE SMOOTH",
"584 160 OFFCURVE",
"499 57 OFFCURVE",
"363 57 CURVE SMOOTH",
"227 57 OFFCURVE",
"142 160 OFFCURVE",
"142 330 CURVE SMOOTH",
"142 500 OFFCURVE",
"227 603 OFFCURVE",
"363 603 CURVE SMOOTH"
);
}
);
width = 726;
},
{
anchors = (
{
name = bottom;
position = "{363, 0}";
},
{
name = center;
position = "{363, 330}";
},
{
name = ogonek;
position = "{480, 8}";
},
{
name = top;
position = "{363, 660}";
},
{
name = topleft;
position = "{21, 660}";
},
{
name = topright;
position = "{552, 660}";
}
);
background = {
anchors = (
{
name = bottom;
position = "{369, 0}";
},
{
name = center;
position = "{369, 330}";
},
{
name = ogonek;
position = "{488, 8}";
},
{
name = top;
position = "{369, 660}";
},
{
name = topleft;
position = "{20, 660}";
},
{
name = topright;
position = "{561, 660}";
}
);
paths = (
{
closed = 1;
nodes = (
"168 670 OFFCURVE",
"45 543 OFFCURVE",
"45 330 CURVE SMOOTH",
"45 117 OFFCURVE",
"168 -10 OFFCURVE",
"369 -10 CURVE SMOOTH",
"570 -10 OFFCURVE",
"692 117 OFFCURVE",
"692 330 CURVE SMOOTH",
"692 543 OFFCURVE",
"570 670 OFFCURVE",
"369 670 CURVE SMOOTH"
);
},
{
closed = 1;
nodes = (
"464 535 OFFCURVE",
"516 465 OFFCURVE",
"516 330 CURVE SMOOTH",
"516 195 OFFCURVE",
"464 125 OFFCURVE",
"369 125 CURVE SMOOTH",
"273 125 OFFCURVE",
"221 195 OFFCURVE",
"221 330 CURVE SMOOTH",
"221 465 OFFCURVE",
"273 535 OFFCURVE",
"369 535 CURVE SMOOTH"
);
}
);
};
layerId = "8348C28B-C402-4653-9E73-107F95648308";
paths = (
{
closed = 1;
nodes = (
"166 670 OFFCURVE",
"45 543 OFFCURVE",
"45 330 CURVE SMOOTH",
"45 117 OFFCURVE",
"166 -10 OFFCURVE",
"363 -10 CURVE SMOOTH",
"560 -10 OFFCURVE",
"680 117 OFFCURVE",
"680 330 CURVE SMOOTH",
"680 543 OFFCURVE",
"560 670 OFFCURVE",
"363 670 CURVE SMOOTH"
);
},
{
closed = 1;
nodes = (
"454 535 OFFCURVE",
"504 465 OFFCURVE",
"504 330 CURVE SMOOTH",
"504 195 OFFCURVE",
"454 125 OFFCURVE",
"363 125 CURVE SMOOTH",
"271 125 OFFCURVE",
"221 195 OFFCURVE",
"221 330 CURVE SMOOTH",
"221 465 OFFCURVE",
"271 535 OFFCURVE",
"363 535 CURVE SMOOTH"
);
}
);
width = 725;
}
);
leftKerningGroup = O;
rightKerningGroup = O;
unicode = 004F;
},
{
color = 8;
glyphname = Oslash;
lastChange = "2022-01-17 02:46:55 +0000";
layers = (
{
components = (
{
alignment = -1;
name = O;
}
);
layerId = "C00489B0-D6FE-4186-8C18-D0EE90D80B61";
paths = (
{
closed = 1;
nodes = (
"555 590 LINE",
"542 599 LINE",
"160 71 LINE",
"170 59 LINE"
);
},
{
closed = 1;
nodes = (
"106 -30 LINE",
"170 59 LINE",
"160 71 LINE",
"86 -30 LINE"
);
},
{
closed = 1;
nodes = (
"628 690 LINE",
"608 690 LINE",
"542 599 LINE",
"555 590 LINE"
);
}
);
width = 686;
},
{
components = (
{
alignment = -1;
name = O;
}
);
layerId = "F67B2D2A-9F5D-44A5-A579-665B9797A041";
paths = (
{
closed = 1;
nodes = (
"563 550 LINE",
"521 582 LINE",
"180 96 LINE",
"222 63 LINE"
);
},
{
closed = 1;
nodes = (
"152 -36 LINE",
"222 63 LINE",
"180 96 LINE",
"88 -36 LINE"
);
},
{
closed = 1;
nodes = (
"657 684 LINE",
"592 684 LINE",
"521 582 LINE",
"563 550 LINE"
);
}
);
width = 726;
},
{
components = (
{
alignment = -1;
name = O;
}
);
layerId = "8348C28B-C402-4653-9E73-107F95648308";
paths = (
{
closed = 1;
nodes = (
"523 486 LINE",
"472 524 LINE",
"203 154 LINE",
"252 113 LINE"
);
},
{
closed = 1;
nodes = (
"142 -27 LINE",
"239 95 LINE",
"186 135 LINE",
"62 -27 LINE"
);
},
{
closed = 1;
nodes = (
"675 681 LINE",
"595 681 LINE",
"495 555 LINE",
"548 515 LINE"
);
}
);
width = 725;
}
);
leftKerningGroup = O;
leftMetricsKey = O;
rightKerningGroup = O;
rightMetricsKey = O;
unicode = 00D8;
},
{
color = 8;
glyphname = OE;
lastChange = "2022-01-17 02:46:50 +0000";
layers = (
{
anchors = (
{
name = bottom;
position = "{556, 0}";
},
{
name = ogonek;
position = "{992, 0}";
},
{
name = top;
position = "{556, 660}";
}
);
layerId = "C00489B0-D6FE-4186-8C18-D0EE90D80B61";
paths = (
{
closed = 1;
nodes = (
"592 330 LINE",
"906 330 LINE",
"906 344 LINE",
"592 344 LINE",
"592 646 LINE",
"976 646 LINE",
"976 660 LINE",
"576 660 LINE",
"576 473 LINE",
"547 605 OFFCURVE",
"467 670 OFFCURVE",
"329 670 CURVE SMOOTH",
"164 670 OFFCURVE",
"56 539 OFFCURVE",
"56 330 CURVE SMOOTH",
"56 121 OFFCURVE",
"164 -10 OFFCURVE",
"329 -10 CURVE SMOOTH",
"467 -10 OFFCURVE",
"547 55 OFFCURVE",
"576 187 CURVE",
"576 0 LINE",
"992 0 LINE",
"992 14 LINE",
"592 14 LINE"
);
},
{
closed = 1;
nodes = (
"174 4 OFFCURVE",
"72 130 OFFCURVE",
"72 330 CURVE SMOOTH",
"72 530 OFFCURVE",
"174 656 OFFCURVE",
"329 656 CURVE SMOOTH",
"503 656 OFFCURVE",
"576 550 OFFCURVE",
"576 330 CURVE SMOOTH",
"576 110 OFFCURVE",
"503 4 OFFCURVE",
"329 4 CURVE SMOOTH"
);
}
);
width = 1022;
},
{
anchors = (
{
name = bottom;
position = "{574, 0}";
},
{
name = ogonek;
position = "{995, 0}";
},
{
name = top;
position = "{574, 660}";
}
);
layerId = "F67B2D2A-9F5D-44A5-A579-665B9797A041";
paths = (
{
closed = 1;
nodes = (
"635 301 LINE",
"900 301 LINE",
"900 369 LINE",
"635 369 LINE",
"635 593 LINE",
"980 593 LINE",
"980 660 LINE",
"569 660 LINE",
"569 552 LINE",
"525 629 OFFCURVE",
"450 670 OFFCURVE",
"358 670 CURVE SMOOTH",
"174 670 OFFCURVE",
"67 539 OFFCURVE",
"67 330 CURVE SMOOTH",
"67 121 OFFCURVE",
"177 -10 OFFCURVE",
"356 -10 CURVE SMOOTH",
"449 -10 OFFCURVE",
"524 32 OFFCURVE",
"569 110 CURVE",
"569 0 LINE",
"995 0 LINE",
"995 67 LINE",
"635 67 LINE"
);
},
{
closed = 1;
nodes = (
"223 57 OFFCURVE",
"142 160 OFFCURVE",
"142 330 CURVE SMOOTH",
"142 500 OFFCURVE",
"223 603 OFFCURVE",
"361 603 CURVE SMOOTH",
"487 603 OFFCURVE",
"568 503 OFFCURVE",
"568 330 CURVE SMOOTH",
"568 157 OFFCURVE",
"487 57 OFFCURVE",
"361 57 CURVE SMOOTH"
);
}
);
width = 1044;
},
{
anchors = (
{
name = bottom;
position = "{571, 0}";
},
{
name = ogonek;
position = "{1006, 0}";
},
{
name = top;
position = "{571, 660}";
}
);
layerId = "8348C28B-C402-4653-9E73-107F95648308";
paths = (
{
closed = 1;
nodes = (
"668 268 LINE",
"923 268 LINE",
"923 393 LINE",
"668 393 LINE",
"668 527 LINE",
"993 527 LINE",
"993 660 LINE",
"553 660 LINE",
"553 582 LINE",
"506 637 OFFCURVE",
"437 670 OFFCURVE",
"352 670 CURVE SMOOTH",
"163 670 OFFCURVE",
"45 543 OFFCURVE",
"45 330 CURVE SMOOTH",
"45 117 OFFCURVE",
"164 -10 OFFCURVE",
"350 -10 CURVE SMOOTH",
"436 -10 OFFCURVE",
"505 23 OFFCURVE",
"553 79 CURVE",
"553 0 LINE",
"1006 0 LINE",
"1006 133 LINE",
"668 133 LINE"
);
},
{
closed = 1;
nodes = (
"267 125 OFFCURVE",
"218 195 OFFCURVE",
"218 330 CURVE SMOOTH",
"218 465 OFFCURVE",
"267 535 OFFCURVE",
"359 535 CURVE SMOOTH",
"448 535 OFFCURVE",
"499 465 OFFCURVE",
"499 330 CURVE SMOOTH",
"499 195 OFFCURVE",
"448 125 OFFCURVE",
"359 125 CURVE SMOOTH"
);
}
);
width = 1037;
}
);
leftKerningGroup = O;
leftMetricsKey = O;
rightKerningGroup = E;
rightMetricsKey = E;
unicode = 0152;
},
{
color = 8;
glyphname = P;
lastChange = "2022-01-17 02:44:25 +0000";
layers = (
{
anchors = (
{
name = bottom;
position = "{107, 0}";
},
{
name = ogonek;
position = "{115, 0}";
},
{
name = top;
position = "{263, 660}";
}
);
layerId = "C00489B0-D6FE-4186-8C18-D0EE90D80B61";
paths = (
{
closed = 1;
nodes = (
"99 660 LINE",
"99 0 LINE",
"115 0 LINE",
"115 291 LINE",
"290 291 LINE SMOOTH",
"421 291 OFFCURVE",
"500 359 OFFCURVE",
"500 475 CURVE SMOOTH",
"500 591 OFFCURVE",
"421 660 OFFCURVE",
"290 660 CURVE SMOOTH"
);
},
{
closed = 1;
nodes = (
"115 305 LINE",
"115 646 LINE",
"290 646 LINE SMOOTH",
"411 646 OFFCURVE",
"484 582 OFFCURVE",
"484 475 CURVE SMOOTH",
"484 368 OFFCURVE",
"411 305 OFFCURVE",
"290 305 CURVE SMOOTH"
);
}
);
width = 533;
},
{
anchors = (
{
name = bottom;
position = "{143, 0}";
},
{
name = ogonek;
position = "{179, 0}";
},
{
name = top;
position = "{302, 660}";
}
);
layerId = "F67B2D2A-9F5D-44A5-A579-665B9797A041";
paths = (
{
closed = 1;
nodes = (
"107 660 LINE",
"107 0 LINE",
"179 0 LINE",
"179 262 LINE",
"328 262 LINE SMOOTH",
"456 262 OFFCURVE",
"541 338 OFFCURVE",
"541 461 CURVE SMOOTH",
"541 584 OFFCURVE",
"456 660 OFFCURVE",
"328 660 CURVE SMOOTH"
);
},
{
closed = 1;
nodes = (
"179 330 LINE",
"179 593 LINE",
"317 593 LINE SMOOTH",
"418 593 OFFCURVE",
"465 546 OFFCURVE",
"465 461 CURVE SMOOTH",
"465 376 OFFCURVE",
"418 330 OFFCURVE",
"317 330 CURVE SMOOTH"
);
}
);
width = 586;
},
{
anchors = (
{
name = bottom;
position = "{159, 0}";
},
{
name = ogonek;
position = "{245, 0}";
},
{
name = top;
position = "{323, 660}";
}
);
layerId = "8348C28B-C402-4653-9E73-107F95648308";
paths = (
{
closed = 1;
nodes = (
"73 660 LINE",
"73 0 LINE",
"245 0 LINE",
"245 220 LINE",
"370 220 LINE SMOOTH",
"526 220 OFFCURVE",
"619 300 OFFCURVE",
"619 440 CURVE SMOOTH",
"619 579 OFFCURVE",
"526 660 OFFCURVE",
"370 660 CURVE SMOOTH"
);
},
{
closed = 1;
nodes = (
"245 349 LINE",
"245 531 LINE",
"343 531 LINE SMOOTH",
"411 531 OFFCURVE",
"446 501 OFFCURVE",
"446 440 CURVE SMOOTH",
"446 379 OFFCURVE",
"411 349 OFFCURVE",
"343 349 CURVE SMOOTH"
);
}
);
width = 656;
}
);
leftKerningGroup = I;
leftMetricsKey = H;
unicode = 0050;
},
{
color = 8;
glyphname = Thorn;
lastChange = "2022-01-17 02:46:50 +0000";
layers = (
{
anchors = (
{
name = bottom;
position = "{107, 0}";
},
{
name = ogonek;
position = "{115, 0}";
},
{
name = top;
position = "{107, 660}";
}
);
layerId = "C00489B0-D6FE-4186-8C18-D0EE90D80B61";
paths = (
{
closed = 1;
nodes = (
"108 525 LINE",
"108 511 LINE",
"290 511 LINE SMOOTH",
"417 511 OFFCURVE",
"483 453 OFFCURVE",
"483 340 CURVE SMOOTH",
"483 227 OFFCURVE",
"417 169 OFFCURVE",
"290 169 CURVE SMOOTH",
"108 169 LINE",
"108 155 LINE",
"281 155 LINE SMOOTH",
"425 155 OFFCURVE",
"499 218 OFFCURVE",
"499 340 CURVE SMOOTH",
"499 462 OFFCURVE",
"425 525 OFFCURVE",
"281 525 CURVE SMOOTH"
);
},
{
closed = 1;
nodes = (
"99 660 LINE",
"99 0 LINE",
"115 0 LINE",
"115 660 LINE"
);
}
);
width = 539;
},
{
anchors = (
{
name = bottom;
position = "{143, 0}";
},
{
name = ogonek;
position = "{179, 0}";
},
{
name = top;
position = "{143, 660}";
}
);
layerId = "F67B2D2A-9F5D-44A5-A579-665B9797A041";
paths = (
{
closed = 1;
nodes = (
"143 540 LINE",
"143 473 LINE",
"323 473 LINE SMOOTH",
"424 473 OFFCURVE",
"474 429 OFFCURVE",
"474 337 CURVE SMOOTH",
"474 246 OFFCURVE",
"424 202 OFFCURVE",
"323 202 CURVE SMOOTH",
"143 202 LINE",
"143 135 LINE",
"316 135 LINE SMOOTH",
"471 135 OFFCURVE",
"549 208 OFFCURVE",
"549 337 CURVE SMOOTH",
"549 468 OFFCURVE",
"471 540 OFFCURVE",
"316 540 CURVE SMOOTH"
);
},
{
closed = 1;
nodes = (
"107 660 LINE",
"107 0 LINE",
"179 0 LINE",
"179 660 LINE"
);
}
);
width = 602;
},
{
anchors = (
{
name = bottom;
position = "{159, 0}";
},
{
name = ogonek;
position = "{245, 0}";
},
{
name = top;
position = "{159, 660}";
}
);
layerId = "8348C28B-C402-4653-9E73-107F95648308";
paths = (
{
closed = 1;
nodes = (
"159 559 LINE",
"159 430 LINE",
"349 430 LINE SMOOTH",
"415 430 OFFCURVE",
"450 402 OFFCURVE",
"450 338 CURVE SMOOTH",
"450 273 OFFCURVE",
"416 243 OFFCURVE",
"349 243 CURVE SMOOTH",
"159 243 LINE",
"159 115 LINE",
"369 115 LINE SMOOTH",
"533 115 OFFCURVE",
"623 192 OFFCURVE",
"623 337 CURVE SMOOTH",
"623 483 OFFCURVE",
"533 559 OFFCURVE",
"369 559 CURVE SMOOTH"
);
},
{
closed = 1;
nodes = (
"73 660 LINE",
"73 0 LINE",
"245 0 LINE",
"245 660 LINE"
);
}
);
width = 662;
}
);
leftKerningGroup = I;
leftMetricsKey = H;
unicode = 00DE;
},
{
color = 8;
glyphname = Q;
lastChange = "2022-01-17 02:45:35 +0000";
layers = (
{
anchors = (
{
name = bottom;
position = "{321, -210}";
},
{
name = ogonek;
position = "{519, -191}";
},
{
name = top;
position = "{321, 660}";
}
);
components = (
{
alignment = -1;
name = O;
}
);
hints = (
{
horizontal = 1;
origin = "{0, 19}";
target = "{0, 6}";
type = Stem;
}
);
layerId = "C00489B0-D6FE-4186-8C18-D0EE90D80B61";
paths = (
{
closed = 1;
nodes = (
"524 -195 OFFCURVE",
"560 -183 OFFCURVE",
"584 -157 CURVE",
"576 -144 LINE",
"553 -171 OFFCURVE",
"518 -181 OFFCURVE",
"482 -181 CURVE SMOOTH",
"398 -181 OFFCURVE",
"334 -115 OFFCURVE",
"334 -4 CURVE SMOOTH",
"334 -2 OFFCURVE",
"334 -1 OFFCURVE",
"334 1 CURVE",
"320 1 LINE",
"320 -1 OFFCURVE",
"320 -2 OFFCURVE",
"320 -4 CURVE SMOOTH",
"320 -121 OFFCURVE",
"391 -195 OFFCURVE",
"482 -195 CURVE SMOOTH"
);
}
);
width = 686;
},
{
anchors = (
{
name = bottom;
position = "{350, -210}";
},
{
name = ogonek;
position = "{541, -190}";
},
{
name = top;
position = "{350, 660}";
}
);
components = (
{
alignment = -1;
name = O;
}
);
hints = (
{
horizontal = 1;
place = "{-195, 73}";
type = Stem;
}
);
layerId = "F67B2D2A-9F5D-44A5-A579-665B9797A041";
paths = (
{
closed = 1;
nodes = (
"568 -195 OFFCURVE",
"628 -179 OFFCURVE",
"657 -152 CURVE",
"634 -85 LINE",
"611 -109 OFFCURVE",
"569 -122 OFFCURVE",
"525 -122 CURVE SMOOTH",
"458 -122 OFFCURVE",
"399 -98 OFFCURVE",
"399 15 CURVE SMOOTH",
"399 25 OFFCURVE",
"400 35 OFFCURVE",
"402 47 CURVE",
"340 48 LINE",
"338 36 OFFCURVE",
"338 23 OFFCURVE",
"338 13 CURVE SMOOTH",
"338 -143 OFFCURVE",
"426 -195 OFFCURVE",
"523 -195 CURVE SMOOTH"
);
}
);
width = 726;
},
{
anchors = (
{
name = bottom;
position = "{355, -210}";
},
{
name = ogonek;
position = "{550, -197}";
},
{
name = top;
position = "{355, 660}";
}
);
components = (
{
alignment = -1;
name = O;
}
);
hints = (
{
horizontal = 1;
origin = "{0, 19}";
target = "{0, 6}";
type = Stem;
}
);
layerId = "8348C28B-C402-4653-9E73-107F95648308";
paths = (
{
closed = 1;
nodes = (
"565 -203 OFFCURVE",
"623 -189 OFFCURVE",
"657 -162 CURVE",
"632 -43 LINE",
"607 -64 OFFCURVE",
"569 -77 OFFCURVE",
"515 -77 CURVE SMOOTH",
"451 -77 OFFCURVE",
"401 -57 OFFCURVE",
"401 22 CURVE SMOOTH",
"401 40 OFFCURVE",
"407 66 OFFCURVE",
"421 95 CURVE",
"322 72 LINE",
"306 43 OFFCURVE",
"299 13 OFFCURVE",
"299 -13 CURVE SMOOTH",
"299 -136 OFFCURVE",
"385 -203 OFFCURVE",
"514 -203 CURVE SMOOTH"
);
}
);
width = 725;
}
);
leftKerningGroup = O;
leftMetricsKey = O;
widthMetricsKey = O;
rightKerningGroup = O;
unicode = 0051;
},
{
color = 8;
glyphname = R;
lastChange = "2022-01-17 02:44:25 +0000";
layers = (
{
anchors = (
{
name = bottom;
position = "{331, 0}";
},
{
name = ogonek;
position = "{548, 0}";
},
{
name = top;
position = "{282, 660}";
}
);
layerId = "C00489B0-D6FE-4186-8C18-D0EE90D80B61";
paths = (
{
closed = 1;
nodes = (
"99 660 LINE",
"99 0 LINE",
"115 0 LINE",
"115 300 LINE",
"321 300 LINE",
"324 300 LINE SMOOTH",
"445 300 OFFCURVE",
"521 368 OFFCURVE",
"521 480 CURVE SMOOTH",
"521 592 OFFCURVE",
"445 660 OFFCURVE",
"324 660 CURVE SMOOTH"
);
},
{
closed = 1;
nodes = (
"115 314 LINE",
"115 646 LINE",
"324 646 LINE SMOOTH",
"437 646 OFFCURVE",
"505 584 OFFCURVE",
"505 480 CURVE SMOOTH",
"505 376 OFFCURVE",
"437 314 OFFCURVE",
"324 314 CURVE SMOOTH"
);
},
{
closed = 1;
nodes = (
"340 304 LINE",
"530 0 LINE",
"548 0 LINE",
"353 314 LINE"
);
}
);
width = 583;
},
{
anchors = (
{
name = bottom;
position = "{354, 0}";
},
{
name = ogonek;
position = "{597, 0}";
},
{
name = top;
position = "{311, 660}";
}
);
layerId = "F67B2D2A-9F5D-44A5-A579-665B9797A041";
paths = (
{
closed = 1;
nodes = (
"107 660 LINE",
"107 0 LINE",
"179 0 LINE",
"179 277 LINE",
"340 277 LINE",
"347 278 LINE SMOOTH",
"473 296 OFFCURVE",
"561 350 OFFCURVE",
"561 469 CURVE SMOOTH",
"561 587 OFFCURVE",
"476 660 OFFCURVE",
"348 660 CURVE SMOOTH"
);
},
{
closed = 1;
nodes = (
"179 345 LINE",
"179 593 LINE",
"346 593 LINE SMOOTH",
"438 593 OFFCURVE",
"485 551 OFFCURVE",
"485 469 CURVE SMOOTH",
"485 387 OFFCURVE",
"438 345 OFFCURVE",
"346 345 CURVE SMOOTH"
);
},
{
closed = 1;
nodes = (
"330 291 LINE",
"512 0 LINE",
"597 0 LINE",
"390 331 LINE"
);
}
);
width = 640;
},
{
anchors = (
{
name = bottom;
position = "{357, 0}";
},
{
name = ogonek;
position = "{664, 0}";
},
{
name = top;
position = "{324, 660}";
}
);
layerId = "8348C28B-C402-4653-9E73-107F95648308";
paths = (
{
closed = 1;
nodes = (
"73 660 LINE",
"73 0 LINE",
"242 0 LINE",
"242 241 LINE",
"367 241 LINE",
"383 250 LINE",
"537 250 OFFCURVE",
"626 322 OFFCURVE",
"626 457 CURVE SMOOTH",
"626 581 OFFCURVE",
"536 660 OFFCURVE",
"382 660 CURVE SMOOTH"
);
},
{
closed = 1;
nodes = (
"242 363 LINE",
"242 530 LINE",
"358 530 LINE SMOOTH",
"413 530 OFFCURVE",
"453 512 OFFCURVE",
"453 447 CURVE SMOOTH",
"453 383 OFFCURVE",
"415 363 OFFCURVE",
"358 363 CURVE SMOOTH"
);
},
{
closed = 1;
nodes = (
"311 289 LINE",
"474 0 LINE",
"664 0 LINE",
"459 327 LINE"
);
}
);
width = 677;
}
);
leftKerningGroup = I;
leftMetricsKey = H;
rightKerningGroup = R;
unicode = 0052;
},
{
color = 3;
glyphname = S;
lastChange = "2022-01-17 02:44:06 +0000";
layers = (
{
anchors = (
{
name = bottom;
position = "{293, 0}";
},
{
name = ogonek;
position = "{373, 0}";
},
{
name = top;
position = "{277, 660}";
}
);
background = {
anchors = (
{
name = bottom;
position = "{308, 0}";
},
{
name = ogonek;
position = "{393, 0}";
},
{
name = top;
position = "{290, 660}";
}
);
paths = (
{
closed = 1;
nodes = (
"149 670 OFFCURVE",
"62 586 OFFCURVE",
"62 492 CURVE SMOOTH",
"62 404 OFFCURVE",
"113 357 OFFCURVE",
"245 329 CURVE SMOOTH",
"360 305 LINE SMOOTH",
"484 279 OFFCURVE",
"532 238 OFFCURVE",
"532 167 CURVE SMOOTH",
"532 61 OFFCURVE",
"433 4 OFFCURVE",
"309 4 CURVE SMOOTH",
"179 4 OFFCURVE",
"75 57 OFFCURVE",
"57 174 CURVE",
"42 166 LINE",
"64 45 OFFCURVE",
"171 -10 OFFCURVE",
"309 -10 CURVE SMOOTH",
"450 -10 OFFCURVE",
"548 61 OFFCURVE",
"548 167 CURVE SMOOTH",
"548 248 OFFCURVE",
"497 293 OFFCURVE",
"367 320 CURVE SMOOTH",
"252 344 LINE SMOOTH",
"124 371 OFFCURVE",
"78 414 OFFCURVE",
"78 492 CURVE SMOOTH",
"78 584 OFFCURVE",
"163 656 OFFCURVE",
"295 656 CURVE SMOOTH",
"415 656 OFFCURVE",
"496 610 OFFCURVE",
"523 507 CURVE",
"536 517 LINE",
"505 623 OFFCURVE",
"420 670 OFFCURVE",
"295 670 CURVE SMOOTH"
);
}
);
};
layerId = "C00489B0-D6FE-4186-8C18-D0EE90D80B61";
paths = (
{
closed = 1;
nodes = (
"144 670 OFFCURVE",
"61 586 OFFCURVE",
"61 492 CURVE SMOOTH",
"61 399 OFFCURVE",
"116 355 OFFCURVE",
"234 329 CURVE SMOOTH",
"343 305 LINE SMOOTH",
"459 279 OFFCURVE",
"504 238 OFFCURVE",
"504 167 CURVE SMOOTH",
"504 61 OFFCURVE",
"411 4 OFFCURVE",
"294 4 CURVE SMOOTH",
"172 4 OFFCURVE",
"74 57 OFFCURVE",
"57 174 CURVE",
"42 166 LINE",
"63 45 OFFCURVE",
"165 -10 OFFCURVE",
"294 -10 CURVE SMOOTH",
"427 -10 OFFCURVE",
"520 61 OFFCURVE",
"520 167 CURVE SMOOTH",
"520 248 OFFCURVE",
"472 293 OFFCURVE",
"349 320 CURVE SMOOTH",
"240 344 LINE SMOOTH",
"120 370 OFFCURVE",
"77 414 OFFCURVE",
"77 492 CURVE SMOOTH",
"77 584 OFFCURVE",
"157 656 OFFCURVE",
"281 656 CURVE SMOOTH",
"394 656 OFFCURVE",
"470 610 OFFCURVE",
"496 507 CURVE",
"509 517 LINE",
"479 623 OFFCURVE",
"399 670 OFFCURVE",
"281 670 CURVE SMOOTH"
);
}
);
width = 566;
},
{
anchors = (
{
name = bottom;
position = "{308, 0}";
},
{
name = ogonek;
position = "{395, 0}";
},
{
name = top;
position = "{313, 660}";
}
);
layerId = "F67B2D2A-9F5D-44A5-A579-665B9797A041";
paths = (
{
closed = 1;
nodes = (
"161 670 OFFCURVE",
"72 581 OFFCURVE",
"72 476 CURVE SMOOTH",
"72 397 OFFCURVE",
"117 336 OFFCURVE",
"236 308 CURVE SMOOTH",
"380 274 LINE SMOOTH",
"459 255 OFFCURVE",
"484 220 OFFCURVE",
"484 173 CURVE SMOOTH",
"484 98 OFFCURVE",
"419 57 OFFCURVE",
"319 57 CURVE SMOOTH",
"212 57 OFFCURVE",
"139 110 OFFCURVE",
"104 191 CURVE",
"43 140 LINE",
"88 53 OFFCURVE",
"177 -10 OFFCURVE",
"316 -10 CURVE SMOOTH",
"462 -10 OFFCURVE",
"559 67 OFFCURVE",
"559 179 CURVE SMOOTH",
"559 263 OFFCURVE",
"515 318 OFFCURVE",
"394 346 CURVE SMOOTH",
"260 377 LINE SMOOTH",
"171 398 OFFCURVE",
"147 435 OFFCURVE",
"147 486 CURVE SMOOTH",
"147 551 OFFCURVE",
"197 603 OFFCURVE",
"301 603 CURVE SMOOTH",
"389 603 OFFCURVE",
"450 569 OFFCURVE",
"494 482 CURVE",
"553 528 LINE",
"501 622 OFFCURVE",
"421 670 OFFCURVE",
"308 670 CURVE SMOOTH"
);
}
);
width = 617;
},
{
anchors = (
{
name = bottom;
position = "{319, 0}";
},
{
name = ogonek;
position = "{407, 0}";
},
{
name = top;
position = "{323, 660}";
}
);
background = {
anchors = (
{
name = bottom;
position = "{325, 0}";
},
{
name = ogonek;
position = "{416, 0}";
},
{
name = top;
position = "{329, 660}";
}
);
paths = (
{
closed = 1;
nodes = (
"152 670 OFFCURVE",
"46 579 OFFCURVE",
"46 455 CURVE SMOOTH",
"46 345 OFFCURVE",
"127 295 OFFCURVE",
"239 271 CURVE SMOOTH",
"361 244 LINE SMOOTH",
"416 231 OFFCURVE",
"433 212 OFFCURVE",
"433 184 CURVE SMOOTH",
"433 145 OFFCURVE",
"399 123 OFFCURVE",
"329 123 CURVE SMOOTH",
"239 123 OFFCURVE",
"149 165 OFFCURVE",
"99 223 CURVE",
"16 108 LINE",
"82 37 OFFCURVE",
"198 -10 OFFCURVE",
"331 -10 CURVE SMOOTH",
"493 -10 OFFCURVE",
"610 65 OFFCURVE",
"610 206 CURVE SMOOTH",
"610 303 OFFCURVE",
"551 360 OFFCURVE",
"419 390 CURVE SMOOTH",
"308 415 LINE SMOOTH",
"250 428 OFFCURVE",
"225 446 OFFCURVE",
"225 475 CURVE SMOOTH",
"225 510 OFFCURVE",
"254 537 OFFCURVE",
"328 537 CURVE SMOOTH",
"411 537 OFFCURVE",
"475 507 OFFCURVE",
"533 447 CURVE",
"616 558 LINE",
"547 632 OFFCURVE",
"453 670 OFFCURVE",
"331 670 CURVE SMOOTH"
);
}
);
};
layerId = "8348C28B-C402-4653-9E73-107F95648308";
paths = (
{
closed = 1;
nodes = (
"150 670 OFFCURVE",
"45 579 OFFCURVE",
"45 455 CURVE SMOOTH",
"45 338 OFFCURVE",
"136 293 OFFCURVE",
"234 271 CURVE SMOOTH",
"353 244 LINE SMOOTH",
"405 232 OFFCURVE",
"421 212 OFFCURVE",
"421 184 CURVE SMOOTH",
"421 145 OFFCURVE",
"389 123 OFFCURVE",
"322 123 CURVE SMOOTH",
"236 123 OFFCURVE",
"148 165 OFFCURVE",
"98 223 CURVE",
"16 108 LINE",
"81 37 OFFCURVE",
"196 -10 OFFCURVE",
"324 -10 CURVE SMOOTH",
"482 -10 OFFCURVE",
"598 65 OFFCURVE",
"598 206 CURVE SMOOTH",
"598 303 OFFCURVE",
"540 360 OFFCURVE",
"411 390 CURVE SMOOTH",
"303 415 LINE SMOOTH",
"255 426 OFFCURVE",
"224 442 OFFCURVE",
"224 475 CURVE SMOOTH",
"224 510 OFFCURVE",
"252 537 OFFCURVE",
"322 537 CURVE SMOOTH",
"402 537 OFFCURVE",
"464 507 OFFCURVE",
"522 447 CURVE",
"604 558 LINE",
"536 632 OFFCURVE",
"444 670 OFFCURVE",
"325 670 CURVE SMOOTH"
);
}
);
width = 633;
}
);
leftKerningGroup = S;
rightKerningGroup = S;
unicode = 0053;
},
{
color = 8;
glyphname = T;
lastChange = "2022-01-17 02:44:25 +0000";
layers = (
{
anchors = (
{
name = bottom;
position = "{258, 0}";
},
{
name = center;
position = "{258, 341}";
},
{
name = ogonek;
position = "{266, 0}";
},
{
name = top;
position = "{258, 660}";
}
);
layerId = "C00489B0-D6FE-4186-8C18-D0EE90D80B61";
paths = (
{
closed = 1;
nodes = (
"11 660 LINE",
"11 646 LINE",
"250 646 LINE",
"250 0 LINE",
"266 0 LINE",
"266 646 LINE",
"505 646 LINE",
"505 660 LINE"
);
}
);
width = 516;
},
{
anchors = (
{
name = bottom;
position = "{289, 0}";
},
{
name = center;
position = "{289, 324}";
},
{
name = ogonek;
position = "{325, 0}";
},
{
name = top;
position = "{289, 660}";
}
);
layerId = "F67B2D2A-9F5D-44A5-A579-665B9797A041";
paths = (
{
closed = 1;
nodes = (
"29 660 LINE",
"29 593 LINE",
"253 593 LINE",
"253 0 LINE",
"325 0 LINE",
"325 593 LINE",
"549 593 LINE",
"549 660 LINE"
);
}
);
width = 579;
},
{
anchors = (
{
name = bottom;
position = "{321, 0}";
},
{
name = center;
position = "{321, 302}";
},
{
name = ogonek;
position = "{407, 0}";
},
{
name = top;
position = "{321, 660}";
}
);
layerId = "8348C28B-C402-4653-9E73-107F95648308";
paths = (
{
closed = 1;
nodes = (
"25 660 LINE",
"25 527 LINE",
"235 527 LINE",
"235 0 LINE",
"407 0 LINE",
"407 527 LINE",
"616 527 LINE",
"616 660 LINE"
);
}
);
width = 641;
}
);
leftKerningGroup = T;
rightKerningGroup = T;
unicode = 0054;
},
{
color = 8;
glyphname = U;
lastChange = "2022-01-17 02:44:25 +0000";
layers = (
{
anchors = (
{
name = bottom;
position = "{318, 0}";
},
{
name = ogonek;
position = "{409, 8}";
},
{
name = top;
position = "{318, 620}";
},
{
name = top_ring;
position = "{318, 598}";
},
{
name = topright;
position = "{595, 660}";
}
);
layerId = "C00489B0-D6FE-4186-8C18-D0EE90D80B61";
paths = (
{
closed = 1;
nodes = (
"537 660 LINE",
"537 235 LINE SMOOTH",
"537 88 OFFCURVE",
"455 4 OFFCURVE",
"318 4 CURVE SMOOTH",
"181 4 OFFCURVE",
"99 88 OFFCURVE",
"99 235 CURVE SMOOTH",
"99 660 LINE",
"83 660 LINE",
"83 235 LINE SMOOTH",
"83 78 OFFCURVE",
"171 -10 OFFCURVE",
"318 -10 CURVE SMOOTH",
"465 -10 OFFCURVE",
"553 78 OFFCURVE",
"553 235 CURVE SMOOTH",
"553 660 LINE"
);
}
);
width = 636;
},
{
anchors = (
{
name = bottom;
position = "{342, 0}";
},
{
name = ogonek;
position = "{459, 11}";
},
{
name = top;
position = "{342, 633}";
},
{
name = top_ring;
position = "{342, 607}";
},
{
name = topright;
position = "{607, 660}";
}
);
layerId = "F67B2D2A-9F5D-44A5-A579-665B9797A041";
paths = (
{
closed = 1;
nodes = (
"519 660 LINE",
"519 262 LINE SMOOTH",
"519 137 OFFCURVE",
"473 57 OFFCURVE",
"342 57 CURVE SMOOTH",
"211 57 OFFCURVE",
"166 137 OFFCURVE",
"166 262 CURVE SMOOTH",
"166 660 LINE",
"94 660 LINE",
"94 245 LINE SMOOTH",
"94 76 OFFCURVE",
"184 -10 OFFCURVE",
"342 -10 CURVE SMOOTH",
"502 -10 OFFCURVE",
"591 76 OFFCURVE",
"591 245 CURVE SMOOTH",
"591 660 LINE"
);
}
);
width = 685;
},
{
anchors = (
{
name = bottom;
position = "{349, 0}";
},
{
name = ogonek;
position = "{479, 9}";
},
{
name = top;
position = "{349, 650}";
},
{
name = top_ring;
position = "{349, 635}";
},
{
name = topright;
position = "{642, 660}";
}
);
layerId = "8348C28B-C402-4653-9E73-107F95648308";
paths = (
{
closed = 1;
nodes = (
"466 660 LINE",
"466 266 LINE SMOOTH",
"466 171 OFFCURVE",
"427 125 OFFCURVE",
"349 125 CURVE SMOOTH",
"272 125 OFFCURVE",
"233 171 OFFCURVE",
"233 266 CURVE SMOOTH",
"233 660 LINE",
"60 660 LINE",
"60 269 LINE SMOOTH",
"60 83 OFFCURVE",
"159 -10 OFFCURVE",
"349 -10 CURVE SMOOTH",
"540 -10 OFFCURVE",
"638 83 OFFCURVE",
"638 269 CURVE SMOOTH",
"638 660 LINE"
);
}
);
width = 698;
}
);
leftKerningGroup = U;
rightKerningGroup = U;
rightMetricsKey = "=|";
unicode = 0055;
},
{
color = 3;
glyphname = V;
lastChange = "2022-01-17 02:44:06 +0000";
layers = (
{
anchors = (
{
name = bottom;
position = "{274, 0}";
},
{
name = ogonek;
position = "{285, 0}";
},
{
name = top;
position = "{274, 660}";
}
);
background = {
anchors = (
{
name = bottom;
position = "{288, 0}";
},
{
name = ogonek;
position = "{299, 0}";
},
{
name = top;
position = "{288, 660}";
}
);
paths = (
{
closed = 1;
nodes = (
"542 660 LINE",
"315 87 LINE",
"288 18 LINE",
"261 87 LINE",
"34 660 LINE",
"17 660 LINE",
"277 0 LINE",
"299 0 LINE",
"559 660 LINE"
);
}
);
};
layerId = "C00489B0-D6FE-4186-8C18-D0EE90D80B61";
paths = (
{
closed = 1;
nodes = (
"514 660 LINE",
"300 87 LINE",
"274 18 LINE",
"248 87 LINE",
"34 660 LINE",
"17 660 LINE",
"263 0 LINE",
"285 0 LINE",
"531 660 LINE"
);
}
);
width = 548;
},
{
anchors = (
{
name = bottom;
position = "{311, 0}";
},
{
name = ogonek;
position = "{352, 0}";
},
{
name = top;
position = "{311, 660}";
}
);
guideLines = (
{
angle = 180;
position = "{290, 202}";
}
);
layerId = "F67B2D2A-9F5D-44A5-A579-665B9797A041";
paths = (
{
closed = 1;
nodes = (
"517 660 LINE",
"350 189 LINE",
"311 66 LINE",
"272 189 LINE",
"104 660 LINE",
"27 660 LINE",
"270 0 LINE",
"352 0 LINE",
"594 660 LINE"
);
}
);
width = 621;
},
{
anchors = (
{
name = bottom;
position = "{336, 0}";
},
{
name = ogonek;
position = "{437, 0}";
},
{
name = top;
position = "{336, 660}";
}
);
background = {
anchors = (
{
name = bottom;
position = "{342, 0}";
},
{
name = ogonek;
position = "{443, 0}";
},
{
name = top;
position = "{342, 660}";
}
);
paths = (
{
closed = 1;
nodes = (
"502 660 LINE",
"379 259 LINE",
"344 131 LINE",
"308 261 LINE",
"187 660 LINE",
"6 660 LINE",
"241 0 LINE",
"443 0 LINE",
"677 660 LINE"
);
}
);
};
guideLines = (
{
angle = 180;
position = "{290, 202}";
}
);
layerId = "8348C28B-C402-4653-9E73-107F95648308";
paths = (
{
closed = 1;
nodes = (
"490 660 LINE",
"372 259 LINE",
"338 131 LINE",
"303 261 LINE",
"187 660 LINE",
"6 660 LINE",
"235 0 LINE",
"437 0 LINE",
"665 660 LINE"
);
}
);
width = 671;
}
);
unicode = 0056;
},
{
color = 8;
glyphname = W;
lastChange = "2022-01-17 02:44:25 +0000";
layers = (
{
anchors = (
{
name = bottom;
position = "{441, 0}";
},
{
name = ogonek;
position = "{647, 0}";
},
{
name = top;
position = "{441, 660}";
}
);
layerId = "C00489B0-D6FE-4186-8C18-D0EE90D80B61";
paths = (
{
closed = 1;
nodes = (
"255 0 LINE",
"401 502 LINE",
"440 638 LINE",
"441 638 LINE",
"481 502 LINE",
"626 0 LINE",
"647 0 LINE",
"858 660 LINE",
"841 660 LINE",
"636 16 LINE",
"451 660 LINE",
"430 660 LINE",
"245 16 LINE",
"40 660 LINE",
"23 660 LINE",
"234 0 LINE"
);
}
);
width = 881;
},
{
anchors = (
{
name = bottom;
position = "{469, 0}";
},
{
name = ogonek;
position = "{709, 0}";
},
{
name = top;
position = "{469, 660}";
}
);
guideLines = (
{
angle = 180;
position = "{298, 202}";
}
);
layerId = "F67B2D2A-9F5D-44A5-A579-665B9797A041";
paths = (
{
closed = 1;
nodes = (
"317 0 LINE",
"434 437 LINE",
"468 585 LINE",
"469 585 LINE",
"503 437 LINE",
"621 0 LINE",
"709 0 LINE",
"902 660 LINE",
"831 660 LINE",
"667 64 LINE",
"511 660 LINE",
"429 660 LINE",
"273 66 LINE",
"109 660 LINE",
"34 660 LINE",
"228 0 LINE"
);
}
);
width = 937;
},
{
anchors = (
{
name = bottom;
position = "{492, 0}";
},
{
name = ogonek;
position = "{787, 0}";
},
{
name = top;
position = "{492, 660}";
}
);
guideLines = (
{
angle = 180;
position = "{298, 202}";
}
);
layerId = "8348C28B-C402-4653-9E73-107F95648308";
paths = (
{
closed = 1;
nodes = (
"390 0 LINE",
"465 320 LINE",
"493 481 LINE",
"495 481 LINE",
"524 320 LINE",
"600 0 LINE",
"787 0 LINE",
"975 660 LINE",
"798 660 LINE",
"691 140 LINE",
"573 660 LINE",
"417 660 LINE",
"302 139 LINE",
"193 660 LINE",
"10 660 LINE",
"197 0 LINE"
);
}
);
width = 985;
}
);
leftKerningGroup = W;
rightKerningGroup = W;
unicode = 0057;
},
{
color = 8;
glyphname = X;
lastChange = "2022-01-17 02:44:25 +0000";
layers = (
{
anchors = (
{
name = bottom;
position = "{249, 0}";
},
{
name = ogonek;
position = "{481, 0}";
},
{
name = top;
position = "{249, 660}";
}
);
layerId = "C00489B0-D6FE-4186-8C18-D0EE90D80B61";
paths = (
{
closed = 1;
nodes = (
"260 340 LINE",
"473 660 LINE",
"451 660 LINE",
"249 356 LINE",
"52 660 LINE",
"32 660 LINE",
"239 342 LINE",
"12 0 LINE",
"33 0 LINE",
"249 326 LINE",
"461 0 LINE",
"481 0 LINE"
);
}
);
width = 498;
},
{
anchors = (
{
name = bottom;
position = "{286, 0}";
},
{
name = ogonek;
position = "{544, 0}";
},
{
name = top;
position = "{286, 660}";
}
);
layerId = "F67B2D2A-9F5D-44A5-A579-665B9797A041";
paths = (
{
closed = 1;
nodes = (
"330 340 LINE",
"536 660 LINE",
"457 660 LINE",
"292 397 LINE",
"127 660 LINE",
"43 660 LINE",
"247 337 LINE",
"23 0 LINE",
"107 0 LINE",
"285 279 LINE",
"461 0 LINE",
"544 0 LINE"
);
}
);
width = 574;
},
{
anchors = (
{
name = bottom;
position = "{322, 0}";
},
{
name = ogonek;
position = "{643, 0}";
},
{
name = top;
position = "{322, 660}";
}
);
layerId = "8348C28B-C402-4653-9E73-107F95648308";
paths = (
{
closed = 1;
nodes = (
"424 337 LINE",
"629 660 LINE",
"442 660 LINE",
"334 458 LINE",
"226 660 LINE",
"23 660 LINE",
"229 332 LINE",
"11 0 LINE",
"206 0 LINE",
"320 211 LINE",
"438 0 LINE",
"643 0 LINE"
);
}
);
width = 651;
}
);
unicode = 0058;
},
{
color = 8;
glyphname = Y;
lastChange = "2022-01-17 02:44:25 +0000";
layers = (
{
anchors = (
{
name = bottom;
position = "{242, 0}";
},
{
name = ogonek;
position = "{250, 0}";
},
{
name = top;
position = "{242, 620}";
}
);
layerId = "C00489B0-D6FE-4186-8C18-D0EE90D80B61";
paths = (
{
closed = 1;
nodes = (
"449 660 LINE",
"328 434 LINE",
"242 273 LINE",
"156 434 LINE",
"35 660 LINE",
"16 660 LINE",
"234 256 LINE",
"234 0 LINE",
"250 0 LINE",
"250 256 LINE",
"468 660 LINE"
);
}
);
width = 484;
},
{
anchors = (
{
name = bottom;
position = "{273, 0}";
},
{
name = ogonek;
position = "{309, 0}";
},
{
name = top;
position = "{273, 638}";
}
);
layerId = "F67B2D2A-9F5D-44A5-A579-665B9797A041";
paths = (
{
closed = 1;
nodes = (
"451 660 LINE",
"329 434 LINE",
"273 332 LINE",
"218 434 LINE",
"95 660 LINE",
"11 660 LINE",
"237 258 LINE",
"237 0 LINE",
"309 0 LINE",
"309 258 LINE",
"536 660 LINE"
);
}
);
width = 547;
},
{
anchors = (
{
name = bottom;
position = "{322, 0}";
},
{
name = ogonek;
position = "{408, 0}";
},
{
name = top;
position = "{322, 652}";
}
);
layerId = "8348C28B-C402-4653-9E73-107F95648308";
paths = (
{
closed = 1;
nodes = (
"460 660 LINE",
"371 479 LINE",
"323 369 LINE",
"276 479 LINE",
"187 660 LINE",
"9 660 LINE",
"236 241 LINE",
"236 0 LINE",
"408 0 LINE",
"408 241 LINE",
"635 660 LINE"
);
}
);
width = 645;
}
);
leftKerningGroup = Y;
rightKerningGroup = Y;
unicode = 0059;
},
{
color = 8;
glyphname = Z;
lastChange = "2022-01-17 02:44:25 +0000";
layers = (
{
anchors = (
{
name = bottom;
position = "{263, 0}";
},
{
name = ogonek;
position = "{500, 0}";
},
{
name = top;
position = "{263, 660}";
}
);
layerId = "C00489B0-D6FE-4186-8C18-D0EE90D80B61";
paths = (
{
closed = 1;
nodes = (
"481 646 LINE",
"481 660 LINE",
"36 660 LINE",
"36 646 LINE",
"470 646 LINE",
"467 652 LINE",
"29 14 LINE",
"29 0 LINE",
"500 0 LINE",
"500 14 LINE",
"40 14 LINE",
"43 8 LINE"
);
}
);
width = 524;
},
{
anchors = (
{
name = bottom;
position = "{293, 0}";
},
{
name = ogonek;
position = "{551, 0}";
},
{
name = top;
position = "{294, 660}";
}
);
layerId = "F67B2D2A-9F5D-44A5-A579-665B9797A041";
paths = (
{
closed = 1;
nodes = (
"538 596 LINE",
"538 660 LINE",
"62 660 LINE",
"62 593 LINE",
"486 593 LINE",
"474 619 LINE",
"53 64 LINE",
"53 0 LINE",
"551 0 LINE",
"551 67 LINE",
"105 67 LINE",
"117 41 LINE"
);
}
);
width = 602;
},
{
anchors = (
{
name = bottom;
position = "{300, 0}";
},
{
name = ogonek;
position = "{591, 0}";
},
{
name = top;
position = "{314, 660}";
}
);
layerId = "8348C28B-C402-4653-9E73-107F95648308";
paths = (
{
closed = 1;
nodes = (
"579 536 LINE",
"579 660 LINE",
"44 660 LINE",
"44 530 LINE",
"477 530 LINE",
"447 588 LINE",
"37 124 LINE",
"37 0 LINE",
"591 0 LINE",
"591 130 LINE",
"142 130 LINE",
"172 72 LINE"
);
}
);
width = 622;
}
);
leftKerningGroup = Z;
rightKerningGroup = Z;
unicode = 005A;
},
{
color = 3;
glyphname = a;
lastChange = "2022-01-17 02:43:02 +0000";
layers = (
{
anchors = (
{
name = bottom;
position = "{231, 0}";
},
{
name = ogonek;
position = "{487, 0}";
},
{
name = top;
position = "{231, 500}";
}
);
background = {
anchors = (
{
name = bottom;
position = "{242, 0}";
},
{
name = ogonek;
position = "{515, 0}";
},
{
name = top;
position = "{242, 500}";
}
);
paths = (
{
closed = 1;
nodes = (
"407 165 LINE SMOOTH",
"407 51 OFFCURVE",
"290 4 OFFCURVE",
"211 4 CURVE SMOOTH",
"116 4 OFFCURVE",
"65 43 OFFCURVE",
"65 114 CURVE SMOOTH",
"65 177 OFFCURVE",
"111 215 OFFCURVE",
"204 233 CURVE SMOOTH",
"410 273 LINE",
"410 287 LINE",
"193 245 LINE SMOOTH",
"101 227 OFFCURVE",
"49 187 OFFCURVE",
"49 112 CURVE SMOOTH",
"49 34 OFFCURVE",
"108 -10 OFFCURVE",
"209 -10 CURVE SMOOTH",
"300 -10 OFFCURVE",
"400 37 OFFCURVE",
"414 136 CURVE",
"407 130 LINE",
"407 84 LINE SMOOTH",
"407 6 OFFCURVE",
"448 -8 OFFCURVE",
"479 -8 CURVE SMOOTH",
"495 -8 OFFCURVE",
"506 -5 OFFCURVE",
"515 0 CURVE",
"516 14 LINE",
"507 8 OFFCURVE",
"496 6 OFFCURVE",
"482 6 CURVE SMOOTH",
"443 6 OFFCURVE",
"423 29 OFFCURVE",
"423 78 CURVE SMOOTH",
"423 336 LINE SMOOTH",
"423 446 OFFCURVE",
"360 510 OFFCURVE",
"248 510 CURVE SMOOTH",
"155 510 OFFCURVE",
"87 471 OFFCURVE",
"56 388 CURVE",
"69 378 LINE",
"99 462 OFFCURVE",
"164 496 OFFCURVE",
"248 496 CURVE SMOOTH",
"350 496 OFFCURVE",
"407 434 OFFCURVE",
"407 336 CURVE SMOOTH"
);
}
);
};
layerId = "C00489B0-D6FE-4186-8C18-D0EE90D80B61";
paths = (
{
closed = 1;
nodes = (
"385 165 LINE SMOOTH",
"385 51 OFFCURVE",
"275 4 OFFCURVE",
"201 4 CURVE SMOOTH",
"113 4 OFFCURVE",
"65 43 OFFCURVE",
"65 114 CURVE SMOOTH",
"65 176 OFFCURVE",
"108 215 OFFCURVE",
"195 233 CURVE SMOOTH",
"388 273 LINE",
"388 287 LINE",
"184 245 LINE SMOOTH",
"98 227 OFFCURVE",
"49 187 OFFCURVE",
"49 112 CURVE SMOOTH",
"49 34 OFFCURVE",
"105 -10 OFFCURVE",
"199 -10 CURVE SMOOTH",
"285 -10 OFFCURVE",
"378 37 OFFCURVE",
"392 136 CURVE",
"385 130 LINE",
"385 84 LINE SMOOTH",
"385 6 OFFCURVE",
"424 -8 OFFCURVE",
"453 -8 CURVE SMOOTH",
"470 -8 OFFCURVE",
"480 -4 OFFCURVE",
"487 0 CURVE",
"488 14 LINE",
"479 8 OFFCURVE",
"470 6 OFFCURVE",
"456 6 CURVE SMOOTH",
"420 6 OFFCURVE",
"401 29 OFFCURVE",
"401 78 CURVE SMOOTH",
"401 336 LINE SMOOTH",
"401 446 OFFCURVE",
"341 510 OFFCURVE",
"236 510 CURVE SMOOTH",
"148 510 OFFCURVE",
"85 471 OFFCURVE",
"56 388 CURVE",
"69 378 LINE",
"97 462 OFFCURVE",
"157 496 OFFCURVE",
"236 496 CURVE SMOOTH",
"331 496 OFFCURVE",
"385 434 OFFCURVE",
"385 336 CURVE SMOOTH"
);
}
);
width = 489;
},
{
anchors = (
{
name = bottom;
position = "{264, 0}";
},
{
name = ogonek;
position = "{515, 3}";
},
{
name = top;
position = "{264, 500}";
}
);
background = {
anchors = (
{
name = bottom;
position = "{264, 0}";
},
{
name = ogonek;
position = "{515, 3}";
},
{
name = top;
position = "{264, 500}";
}
);
paths = (
{
closed = 1;
nodes = (
"374 183 LINE SMOOTH",
"374 93 OFFCURVE",
"300 53 OFFCURVE",
"228 53 CURVE SMOOTH",
"168 53 OFFCURVE",
"133 83 OFFCURVE",
"133 128 CURVE SMOOTH",
"133 174 OFFCURVE",
"164 197 OFFCURVE",
"230 211 CURVE SMOOTH",
"387 245 LINE",
"387 305 LINE",
"196 265 LINE SMOOTH",
"110 247 OFFCURVE",
"60 199 OFFCURVE",
"60 124 CURVE SMOOTH",
"60 35 OFFCURVE",
"130 -10 OFFCURVE",
"217 -10 CURVE SMOOTH",
"287 -10 OFFCURVE",
"368 26 OFFCURVE",
"390 105 CURVE",
"372 107 LINE",
"372 93 LINE SMOOTH",
"372 24 OFFCURVE",
"414 -7 OFFCURVE",
"466 -7 CURVE SMOOTH",
"488 -7 OFFCURVE",
"504 -3 OFFCURVE",
"515 3 CURVE",
"519 60 LINE",
"509 56 OFFCURVE",
"495 54 OFFCURVE",
"484 54 CURVE SMOOTH",
"459 54 OFFCURVE",
"446 68 OFFCURVE",
"446 95 CURVE SMOOTH",
"446 339 LINE SMOOTH",
"446 455 OFFCURVE",
"366 510 OFFCURVE",
"261 510 CURVE SMOOTH",
"159 510 OFFCURVE",
"89 461 OFFCURVE",
"63 385 CURVE",
"122 349 LINE",
"144 417 OFFCURVE",
"192 447 OFFCURVE",
"259 447 CURVE SMOOTH",
"331 447 OFFCURVE",
"374 402 OFFCURVE",
"374 325 CURVE SMOOTH"
);
}
);
};
layerId = "F67B2D2A-9F5D-44A5-A579-665B9797A041";
paths = (
{
closed = 1;
nodes = (
"374 183 LINE SMOOTH",
"374 93 OFFCURVE",
"300 53 OFFCURVE",
"228 53 CURVE SMOOTH",
"167 53 OFFCURVE",
"133 83 OFFCURVE",
"133 128 CURVE SMOOTH",
"133 174 OFFCURVE",
"164 197 OFFCURVE",
"230 211 CURVE SMOOTH",
"387 245 LINE",
"387 305 LINE",
"196 265 LINE SMOOTH",
"106 246 OFFCURVE",
"60 196 OFFCURVE",
"60 124 CURVE SMOOTH",
"60 35 OFFCURVE",
"130 -10 OFFCURVE",
"217 -10 CURVE SMOOTH",
"288 -10 OFFCURVE",
"368 26 OFFCURVE",
"390 105 CURVE",
"372 107 LINE",
"372 93 LINE SMOOTH",
"372 24 OFFCURVE",
"414 -7 OFFCURVE",
"466 -7 CURVE SMOOTH",
"487 -7 OFFCURVE",
"504 -3 OFFCURVE",
"515 3 CURVE",
"519 60 LINE",
"509 56 OFFCURVE",
"495 54 OFFCURVE",
"484 54 CURVE SMOOTH",
"459 54 OFFCURVE",
"446 68 OFFCURVE",
"446 95 CURVE SMOOTH",
"446 339 LINE SMOOTH",
"446 455 OFFCURVE",
"366 510 OFFCURVE",
"261 510 CURVE SMOOTH",
"161 510 OFFCURVE",
"89 461 OFFCURVE",
"63 385 CURVE",
"122 349 LINE",
"144 417 OFFCURVE",
"192 447 OFFCURVE",
"259 447 CURVE SMOOTH",
"332 447 OFFCURVE",
"374 401 OFFCURVE",
"374 325 CURVE SMOOTH"
);
}
);
width = 524;
},
{
anchors = (
{
name = bottom;
position = "{274, 0}";
},
{
name = ogonek;
position = "{558, 5}";
},
{
name = top;
position = "{274, 500}";
}
);
background = {
anchors = (
{
name = bottom;
position = "{276, 0}";
},
{
name = ogonek;
position = "{563, 5}";
},
{
name = top;
position = "{276, 500}";
}
);
paths = (
{
closed = 1;
nodes = (
"340 185 LINE SMOOTH",
"340 126 OFFCURVE",
"299 100 OFFCURVE",
"254 100 CURVE SMOOTH",
"224 100 OFFCURVE",
"200 114 OFFCURVE",
"200 144 CURVE SMOOTH",
"200 174 OFFCURVE",
"219 188 OFFCURVE",
"259 196 CURVE SMOOTH",
"355 216 LINE",
"356 306 LINE",
"167 267 LINE SMOOTH",
"74 248 OFFCURVE",
"32 200 OFFCURVE",
"32 128 CURVE SMOOTH",
"32 38 OFFCURVE",
"97 -10 OFFCURVE",
"200 -10 CURVE SMOOTH",
"288 -10 OFFCURVE",
"376 32 OFFCURVE",
"376 119 CURVE",
"357 112 LINE",
"357 106 LINE SMOOTH",
"357 28 OFFCURVE",
"412 -9 OFFCURVE",
"490 -9 CURVE SMOOTH",
"520 -9 OFFCURVE",
"544 -4 OFFCURVE",
"563 5 CURVE",
"573 102 LINE",
"565 99 OFFCURVE",
"555 98 OFFCURVE",
"544 98 CURVE SMOOTH",
"521 98 OFFCURVE",
"509 110 OFFCURVE",
"509 137 CURVE SMOOTH",
"509 320 LINE SMOOTH",
"509 444 OFFCURVE",
"424 510 OFFCURVE",
"278 510 CURVE SMOOTH",
"133 510 OFFCURVE",
"53 448 OFFCURVE",
"35 352 CURVE",
"179 318 LINE",
"191 374 OFFCURVE",
"224 393 OFFCURVE",
"268 393 CURVE SMOOTH",
"312 393 OFFCURVE",
"340 364 OFFCURVE",
"340 317 CURVE SMOOTH"
);
}
);
};
layerId = "8348C28B-C402-4653-9E73-107F95648308";
paths = (
{
closed = 1;
nodes = (
"336 185 LINE SMOOTH",
"336 126 OFFCURVE",
"296 100 OFFCURVE",
"252 100 CURVE SMOOTH",
"224 100 OFFCURVE",
"200 114 OFFCURVE",
"200 144 CURVE SMOOTH",
"200 176 OFFCURVE",
"221 188 OFFCURVE",
"257 196 CURVE SMOOTH",
"351 216 LINE",
"352 306 LINE",
"165 267 LINE SMOOTH",
"73 248 OFFCURVE",
"32 199 OFFCURVE",
"32 128 CURVE SMOOTH",
"32 38 OFFCURVE",
"97 -10 OFFCURVE",
"198 -10 CURVE SMOOTH",
"285 -10 OFFCURVE",
"372 32 OFFCURVE",
"372 119 CURVE",
"353 112 LINE",
"353 106 LINE SMOOTH",
"353 28 OFFCURVE",
"408 -9 OFFCURVE",
"485 -9 CURVE SMOOTH",
"516 -9 OFFCURVE",
"539 -4 OFFCURVE",
"558 5 CURVE",
"568 102 LINE",
"560 99 OFFCURVE",
"550 98 OFFCURVE",
"539 98 CURVE SMOOTH",
"517 98 OFFCURVE",
"505 110 OFFCURVE",
"505 137 CURVE SMOOTH",
"505 320 LINE SMOOTH",
"505 444 OFFCURVE",
"420 510 OFFCURVE",
"276 510 CURVE SMOOTH",
"132 510 OFFCURVE",
"53 448 OFFCURVE",
"35 352 CURVE",
"179 318 LINE",
"191 374 OFFCURVE",
"223 393 OFFCURVE",
"266 393 CURVE SMOOTH",
"308 393 OFFCURVE",
"336 364 OFFCURVE",
"336 317 CURVE SMOOTH"
);
}
);
width = 574;
}
);
leftKerningGroup = a;
rightKerningGroup = a;
unicode = 0061;
},
{
color = 8;
glyphname = ae;
lastChange = "2022-01-17 02:46:39 +0000";
layers = (
{
anchors = (
{
name = bottom;
position = "{408, 0}";
},
{
name = ogonek;
position = "{676, 0}";
},
{
name = top;
position = "{413, 500}";
}
);
hints = (
{
horizontal = 1;
place = "{-10, 14}";
type = Stem;
},
{
horizontal = 1;
place = "{510, 14}";
type = Stem;
},
{
horizontal = 1;
place = "{-10, 14}";
type = Stem;
},
{
horizontal = 1;
place = "{510, 14}";
type = Stem;
}
);
layerId = "C00489B0-D6FE-4186-8C18-D0EE90D80B61";
leftMetricsKey = "=a";
paths = (
{
closed = 1;
nodes = (
"290 -10 OFFCURVE",
"401 34 OFFCURVE",
"407 168 CURVE",
"405 167 LINE",
"422 58 OFFCURVE",
"503 -10 OFFCURVE",
"611 -10 CURVE SMOOTH",
"690 -10 OFFCURVE",
"763 35 OFFCURVE",
"797 109 CURVE",
"784 116 LINE",
"752 46 OFFCURVE",
"684 4 OFFCURVE",
"611 4 CURVE SMOOTH",
"480 4 OFFCURVE",
"409 97 OFFCURVE",
"409 250 CURVE SMOOTH",
"409 271 LINE",
"796 271 LINE",
"796 273 OFFCURVE",
"796 276 OFFCURVE",
"796 278 CURVE SMOOTH",
"796 416 OFFCURVE",
"724 510 OFFCURVE",
"603 510 CURVE SMOOTH",
"509 510 OFFCURVE",
"425 442 OFFCURVE",
"406 335 CURVE",
"409 332 LINE",
"409 450 OFFCURVE",
"343 510 OFFCURVE",
"241 510 CURVE SMOOTH",
"151 510 OFFCURVE",
"86 471 OFFCURVE",
"56 388 CURVE",
"69 378 LINE",
"98 462 OFFCURVE",
"160 496 OFFCURVE",
"241 496 CURVE SMOOTH",
"339 496 OFFCURVE",
"394 433 OFFCURVE",
"394 336 CURVE SMOOTH",
"394 284 LINE",
"188 245 LINE SMOOTH",
"99 228 OFFCURVE",
"49 187 OFFCURVE",
"49 112 CURVE SMOOTH",
"49 34 OFFCURVE",
"107 -10 OFFCURVE",
"203 -10 CURVE SMOOTH"
);
},
{
closed = 1;
nodes = (
"115 4 OFFCURVE",
"65 43 OFFCURVE",
"65 114 CURVE SMOOTH",
"65 176 OFFCURVE",
"109 216 OFFCURVE",
"199 233 CURVE SMOOTH",
"394 270 LINE",
"394 175 LINE SMOOTH",
"394 51 OFFCURVE",
"290 4 OFFCURVE",
"205 4 CURVE SMOOTH"
);
},
{
closed = 1;
nodes = (
"422 418 OFFCURVE",
"500 496 OFFCURVE",
"603 496 CURVE SMOOTH",
"717 496 OFFCURVE",
"779 404 OFFCURVE",
"782 286 CURVE",
"411 286 LINE"
);
}
);
width = 845;
},
{
anchors = (
{
name = bottom;
position = "{416, 0}";
},
{
name = ogonek;
position = "{671, 0}";
},
{
name = top;
position = "{429, 500}";
}
);
hints = (
{
horizontal = 1;
place = "{-1, 2}";
type = Stem;
},
{
horizontal = 1;
place = "{55, 63}";
type = Stem;
},
{
horizontal = 1;
place = "{-1, 2}";
type = Stem;
},
{
horizontal = 1;
place = "{510, 63}";
type = Stem;
}
);
layerId = "F67B2D2A-9F5D-44A5-A579-665B9797A041";
leftMetricsKey = "=a";
paths = (
{
closed = 1;
nodes = (
"313 -10 OFFCURVE",
"410 45 OFFCURVE",
"421 141 CURVE",
"399 135 LINE",
"430 41 OFFCURVE",
"506 -10 OFFCURVE",
"604 -10 CURVE SMOOTH",
"690 -10 OFFCURVE",
"758 33 OFFCURVE",
"794 102 CURVE",
"737 135 LINE",
"711 85 OFFCURVE",
"665 53 OFFCURVE",
"602 53 CURVE SMOOTH",
"514 53 OFFCURVE",
"449 119 OFFCURVE",
"449 230 CURVE SMOOTH",
"449 233 LINE",
"799 233 LINE",
"801 245 OFFCURVE",
"803 261 OFFCURVE",
"803 282 CURVE SMOOTH",
"803 412 OFFCURVE",
"725 510 OFFCURVE",
"598 510 CURVE SMOOTH",
"515 510 OFFCURVE",
"443 465 OFFCURVE",
"409 389 CURVE",
"431 386 LINE",
"411 472 OFFCURVE",
"342 510 OFFCURVE",
"257 510 CURVE SMOOTH",
"162 510 OFFCURVE",
"92 461 OFFCURVE",
"63 385 CURVE",
"122 349 LINE",
"146 415 OFFCURVE",
"194 447 OFFCURVE",
"258 447 CURVE SMOOTH",
"327 447 OFFCURVE",
"373 402 OFFCURVE",
"373 325 CURVE SMOOTH",
"373 302 LINE",
"192 264 LINE SMOOTH",
"105 246 OFFCURVE",
"60 195 OFFCURVE",
"60 124 CURVE SMOOTH",
"60 35 OFFCURVE",
"130 -10 OFFCURVE",
"220 -10 CURVE SMOOTH"
);
},
{
closed = 1;
nodes = (
"167 53 OFFCURVE",
"133 83 OFFCURVE",
"133 128 CURVE SMOOTH",
"133 174 OFFCURVE",
"164 197 OFFCURVE",
"230 211 CURVE SMOOTH",
"373 241 LINE",
"373 184 LINE SMOOTH",
"373 93 OFFCURVE",
"301 53 OFFCURVE",
"228 53 CURVE SMOOTH"
);
},
{
closed = 1;
nodes = (
"461 392 OFFCURVE",
"518 447 OFFCURVE",
"597 447 CURVE SMOOTH",
"675 447 OFFCURVE",
"728 391 OFFCURVE",
"731 297 CURVE",
"448 297 LINE"
);
}
);
width = 861;
},
{
anchors = (
{
name = bottom;
position = "{424, 0}";
},
{
name = ogonek;
position = "{702, 4}";
},
{
name = top;
position = "{434, 500}";
}
);
associatedMasterId = "F67B2D2A-9F5D-44A5-A579-665B9797A041";
hints = (
{
horizontal = 1;
place = "{-10, 2000}";
type = Stem;
},
{
horizontal = 1;
place = "{510, 2000}";
type = Stem;
}
);
layerId = "08C36151-20F1-4A6D-9954-A937105BC4A0";
leftMetricsKey = "=a";
name = "{137}";
paths = (
{
closed = 1;
nodes = (
"331 -10 OFFCURVE",
"416 53 OFFCURVE",
"430 140 CURVE",
"398 141 LINE",
"428 42 OFFCURVE",
"508 -10 OFFCURVE",
"618 -10 CURVE SMOOTH",
"716 -10 OFFCURVE",
"798 35 OFFCURVE",
"830 114 CURVE",
"720 156 LINE",
"700 116 OFFCURVE",
"670 92 OFFCURVE",
"616 92 CURVE SMOOTH",
"547 92 OFFCURVE",
"488 127 OFFCURVE",
"488 207 CURVE",
"488 207 LINE",
"835 207 LINE",
"837 233 OFFCURVE",
"839 254 OFFCURVE",
"839 277 CURVE SMOOTH",
"839 411 OFFCURVE",
"757 510 OFFCURVE",
"613 510 CURVE SMOOTH",
"525 510 OFFCURVE",
"453 468 OFFCURVE",
"414 397 CURVE",
"457 397 LINE",
"430 473 OFFCURVE",
"359 510 OFFCURVE",
"264 510 CURVE SMOOTH",
"147 510 OFFCURVE",
"57 448 OFFCURVE",
"45 364 CURVE",
"159 328 LINE",
"177 387 OFFCURVE",
"216 410 OFFCURVE",
"264 410 CURVE SMOOTH",
"319 410 OFFCURVE",
"354 376 OFFCURVE",
"354 318 CURVE SMOOTH",
"354 299 LINE",
"178 264 LINE SMOOTH",
"92 247 OFFCURVE",
"41 201 OFFCURVE",
"41 127 CURVE SMOOTH",
"41 37 OFFCURVE",
"110 -10 OFFCURVE",
"214 -10 CURVE SMOOTH"
);
},
{
closed = 1;
nodes = (
"201 87 OFFCURVE",
"181 110 OFFCURVE",
"181 138 CURVE SMOOTH",
"181 171 OFFCURVE",
"199 184 OFFCURVE",
"249 194 CURVE SMOOTH",
"354 216 LINE",
"354 180 LINE SMOOTH",
"354 115 OFFCURVE",
"302 87 OFFCURVE",
"246 87 CURVE SMOOTH"
);
},
{
closed = 1;
nodes = (
"500 370 OFFCURVE",
"542 409 OFFCURVE",
"605 409 CURVE SMOOTH",
"665 409 OFFCURVE",
"705 368 OFFCURVE",
"708 302 CURVE",
"489 302 LINE"
);
}
);
width = 883;
},
{
anchors = (
{
name = bottom;
position = "{423, 0}";
},
{
name = ogonek;
position = "{708, 6}";
},
{
name = top;
position = "{429, 500}";
}
);
associatedMasterId = "F67B2D2A-9F5D-44A5-A579-665B9797A041";
hints = (
{
horizontal = 1;
origin = "{0, 48}";
target = "{1, 10}";
type = Stem;
},
{
horizontal = 1;
origin = "{0, 30}";
target = "{0, 37}";
type = Stem;
}
);
layerId = "040D3D04-6514-4AA9-BC9D-955D66750147";
leftMetricsKey = "=a";
name = "{170}";
paths = (
{
closed = 1;
nodes = (
"337 -10 OFFCURVE",
"412 57 OFFCURVE",
"428 142 CURVE",
"392 148 LINE",
"420 44 OFFCURVE",
"499 -10 OFFCURVE",
"615 -10 CURVE SMOOTH",
"718 -10 OFFCURVE",
"806 36 OFFCURVE",
"835 122 CURVE",
"698 167 LINE",
"683 131 OFFCURVE",
"660 110 OFFCURVE",
"613 110 CURVE SMOOTH",
"555 110 OFFCURVE",
"503 144 OFFCURVE",
"503 207 CURVE",
"503 207 LINE",
"840 207 LINE",
"842 228 OFFCURVE",
"844 250 OFFCURVE",
"844 273 CURVE SMOOTH",
"844 411 OFFCURVE",
"761 510 OFFCURVE",
"610 510 CURVE SMOOTH",
"522 510 OFFCURVE",
"450 468 OFFCURVE",
"410 397 CURVE",
"465 399 LINE",
"447 474 OFFCURVE",
"374 510 OFFCURVE",
"265 510 CURVE SMOOTH",
"137 510 OFFCURVE",
"45 441 OFFCURVE",
"34 352 CURVE",
"179 318 LINE",
"192 374 OFFCURVE",
"224 393 OFFCURVE",
"264 393 CURVE SMOOTH",
"311 393 OFFCURVE",
"339 364 OFFCURVE",
"339 315 CURVE SMOOTH",
"339 302 LINE",
"169 268 LINE SMOOTH",
"83 251 OFFCURVE",
"32 201 OFFCURVE",
"32 128 CURVE SMOOTH",
"32 38 OFFCURVE",
"97 -10 OFFCURVE",
"208 -10 CURVE SMOOTH"
);
},
{
closed = 1;
nodes = (
"218 99 OFFCURVE",
"199 119 OFFCURVE",
"199 144 CURVE SMOOTH",
"199 176 OFFCURVE",
"216 188 OFFCURVE",
"257 197 CURVE SMOOTH",
"339 215 LINE",
"339 186 LINE SMOOTH",
"339 130 OFFCURVE",
"298 99 OFFCURVE",
"254 99 CURVE SMOOTH"
);
},
{
closed = 1;
nodes = (
"513 360 OFFCURVE",
"546 391 OFFCURVE",
"599 391 CURVE SMOOTH",
"649 391 OFFCURVE",
"680 356 OFFCURVE",
"683 298 CURVE",
"503 298 LINE"
);
}
);
width = 878;
},
{
anchors = (
{
name = bottom;
position = "{421, 0}";
},
{
name = ogonek;
position = "{704, 6}";
},
{
name = top;
position = "{426, 500}";
}
);
hints = (
{
horizontal = 1;
origin = "{0, 48}";
target = "{1, 10}";
type = Stem;
},
{
horizontal = 1;
origin = "{0, 30}";
target = "{0, 37}";
type = Stem;
}
);
layerId = "8348C28B-C402-4653-9E73-107F95648308";
leftMetricsKey = "=a";
paths = (
{
closed = 1;
nodes = (
"334 -10 OFFCURVE",
"410 57 OFFCURVE",
"426 142 CURVE",
"390 148 LINE",
"417 44 OFFCURVE",
"497 -10 OFFCURVE",
"611 -10 CURVE SMOOTH",
"714 -10 OFFCURVE",
"801 36 OFFCURVE",
"830 122 CURVE",
"693 167 LINE",
"678 131 OFFCURVE",
"656 110 OFFCURVE",
"609 110 CURVE SMOOTH",
"553 110 OFFCURVE",
"501 144 OFFCURVE",
"501 207 CURVE",
"501 207 LINE",
"835 207 LINE",
"837 228 OFFCURVE",
"839 250 OFFCURVE",
"839 273 CURVE SMOOTH",
"839 411 OFFCURVE",
"756 510 OFFCURVE",
"606 510 CURVE SMOOTH",
"520 510 OFFCURVE",
"447 468 OFFCURVE",
"408 397 CURVE",
"463 399 LINE",
"445 474 OFFCURVE",
"372 510 OFFCURVE",
"264 510 CURVE SMOOTH",
"136 510 OFFCURVE",
"45 441 OFFCURVE",
"34 352 CURVE",
"179 318 LINE",
"192 374 OFFCURVE",
"223 393 OFFCURVE",
"263 393 CURVE SMOOTH",
"309 393 OFFCURVE",
"337 364 OFFCURVE",
"337 315 CURVE SMOOTH",
"337 302 LINE",
"168 268 LINE SMOOTH",
"83 251 OFFCURVE",
"32 201 OFFCURVE",
"32 128 CURVE SMOOTH",
"32 38 OFFCURVE",
"97 -10 OFFCURVE",
"207 -10 CURVE SMOOTH"
);
},
{
closed = 1;
nodes = (
"218 99 OFFCURVE",
"199 119 OFFCURVE",
"199 144 CURVE SMOOTH",
"199 176 OFFCURVE",
"216 188 OFFCURVE",
"256 197 CURVE SMOOTH",
"337 215 LINE",
"337 186 LINE SMOOTH",
"337 130 OFFCURVE",
"296 99 OFFCURVE",
"253 99 CURVE SMOOTH"
);
},
{
closed = 1;
nodes = (
"511 363 OFFCURVE",
"546 391 OFFCURVE",
"595 391 CURVE SMOOTH",
"644 391 OFFCURVE",
"675 356 OFFCURVE",
"678 298 CURVE",
"501 298 LINE"
);
}
);
width = 873;
},
{
anchors = (
{
name = bottom;
position = "{424, 0}";
},
{
name = ogonek;
position = "{702, 4}";
},
{
name = top;
position = "{434, 500}";
}
);
associatedMasterId = "8348C28B-C402-4653-9E73-107F95648308";
hints = (
{
horizontal = 1;
place = "{-10, 2000}";
type = Stem;
},
{
horizontal = 1;
place = "{510, 2000}";
type = Stem;
}
);
layerId = "9E78414D-64BC-4897-AA01-A86621E49CF3";
leftMetricsKey = "=a";
name = "{137}";
paths = (
{
closed = 1;
nodes = (
"331 -10 OFFCURVE",
"416 53 OFFCURVE",
"430 140 CURVE",
"398 141 LINE",
"428 42 OFFCURVE",
"508 -10 OFFCURVE",
"618 -10 CURVE SMOOTH",
"716 -10 OFFCURVE",
"798 35 OFFCURVE",
"830 114 CURVE",
"720 156 LINE",
"700 116 OFFCURVE",
"670 92 OFFCURVE",
"616 92 CURVE SMOOTH",
"547 92 OFFCURVE",
"488 127 OFFCURVE",
"488 207 CURVE",
"488 207 LINE",
"835 207 LINE",
"837 233 OFFCURVE",
"839 254 OFFCURVE",
"839 277 CURVE SMOOTH",
"839 411 OFFCURVE",
"757 510 OFFCURVE",
"613 510 CURVE SMOOTH",
"525 510 OFFCURVE",
"453 468 OFFCURVE",
"414 397 CURVE",
"457 397 LINE",
"430 473 OFFCURVE",
"359 510 OFFCURVE",
"264 510 CURVE SMOOTH",
"147 510 OFFCURVE",
"57 448 OFFCURVE",
"45 364 CURVE",
"159 328 LINE",
"177 387 OFFCURVE",
"216 410 OFFCURVE",
"264 410 CURVE SMOOTH",
"319 410 OFFCURVE",
"354 376 OFFCURVE",
"354 318 CURVE SMOOTH",
"354 299 LINE",
"178 264 LINE SMOOTH",
"92 247 OFFCURVE",
"41 201 OFFCURVE",
"41 127 CURVE SMOOTH",
"41 37 OFFCURVE",
"110 -10 OFFCURVE",
"214 -10 CURVE SMOOTH"
);
},
{
closed = 1;
nodes = (
"201 87 OFFCURVE",
"181 110 OFFCURVE",
"181 138 CURVE SMOOTH",
"181 171 OFFCURVE",
"199 184 OFFCURVE",
"249 194 CURVE SMOOTH",
"354 216 LINE",
"354 180 LINE SMOOTH",
"354 115 OFFCURVE",
"302 87 OFFCURVE",
"246 87 CURVE SMOOTH"
);
},
{
closed = 1;
nodes = (
"500 370 OFFCURVE",
"542 409 OFFCURVE",
"605 409 CURVE SMOOTH",
"665 409 OFFCURVE",
"705 368 OFFCURVE",
"708 302 CURVE",
"489 302 LINE"
);
}
);
width = 883;
},
{
anchors = (
{
name = bottom;
position = "{423, 0}";
},
{
name = ogonek;
position = "{708, 6}";
},
{
name = top;
position = "{429, 500}";
}
);
associatedMasterId = "8348C28B-C402-4653-9E73-107F95648308";
hints = (
{
horizontal = 1;
origin = "{0, 48}";
target = "{1, 10}";
type = Stem;
},
{
horizontal = 1;
origin = "{0, 30}";
target = "{0, 37}";
type = Stem;
}
);
layerId = "76BB65D3-60BB-4F66-9E4B-A73C470A07C1";
leftMetricsKey = "=a";
name = "{170}";
paths = (
{
closed = 1;
nodes = (
"337 -10 OFFCURVE",
"412 57 OFFCURVE",
"428 142 CURVE",
"392 148 LINE",
"420 44 OFFCURVE",
"499 -10 OFFCURVE",
"615 -10 CURVE SMOOTH",
"718 -10 OFFCURVE",
"806 36 OFFCURVE",
"835 122 CURVE",
"698 167 LINE",
"683 131 OFFCURVE",
"660 110 OFFCURVE",
"613 110 CURVE SMOOTH",
"555 110 OFFCURVE",
"503 144 OFFCURVE",
"503 207 CURVE",
"503 207 LINE",
"840 207 LINE",
"842 228 OFFCURVE",
"844 250 OFFCURVE",
"844 273 CURVE SMOOTH",
"844 411 OFFCURVE",
"761 510 OFFCURVE",
"610 510 CURVE SMOOTH",
"522 510 OFFCURVE",
"450 468 OFFCURVE",
"410 397 CURVE",
"465 399 LINE",
"447 474 OFFCURVE",
"374 510 OFFCURVE",
"265 510 CURVE SMOOTH",
"137 510 OFFCURVE",
"45 441 OFFCURVE",
"34 352 CURVE",
"179 318 LINE",
"192 374 OFFCURVE",
"224 393 OFFCURVE",
"264 393 CURVE SMOOTH",
"311 393 OFFCURVE",
"339 364 OFFCURVE",
"339 315 CURVE SMOOTH",
"339 302 LINE",
"169 268 LINE SMOOTH",
"83 251 OFFCURVE",
"32 201 OFFCURVE",
"32 128 CURVE SMOOTH",
"32 38 OFFCURVE",
"97 -10 OFFCURVE",
"208 -10 CURVE SMOOTH"
);
},
{
closed = 1;
nodes = (
"218 99 OFFCURVE",
"199 119 OFFCURVE",
"199 144 CURVE SMOOTH",
"199 176 OFFCURVE",
"216 188 OFFCURVE",
"257 197 CURVE SMOOTH",
"339 215 LINE",
"339 186 LINE SMOOTH",
"339 130 OFFCURVE",
"298 99 OFFCURVE",
"254 99 CURVE SMOOTH"
);
},
{
closed = 1;
nodes = (
"513 360 OFFCURVE",
"546 391 OFFCURVE",
"599 391 CURVE SMOOTH",
"649 391 OFFCURVE",
"680 356 OFFCURVE",
"683 298 CURVE",
"503 298 LINE"
);
}
);
width = 878;
}
);
leftKerningGroup = a;
rightKerningGroup = e;
rightMetricsKey = "=e";
unicode = 00E6;
},
{
color = 8;
glyphname = b;
lastChange = "2022-01-17 02:44:33 +0000";
layers = (
{
anchors = (
{
name = bottom;
position = "{288, 0}";
},
{
name = ogonek;
position = "{401, 21}";
},
{
name = top;
position = "{93, 680}";
}
);
layerId = "C00489B0-D6FE-4186-8C18-D0EE90D80B61";
paths = (
{
closed = 1;
nodes = (
"422 -10 OFFCURVE",
"506 87 OFFCURVE",
"506 250 CURVE SMOOTH",
"506 413 OFFCURVE",
"422 510 OFFCURVE",
"294 510 CURVE SMOOTH",
"200 510 OFFCURVE",
"123 450 OFFCURVE",
"100 345 CURVE",
"101 343 LINE",
"101 730 LINE",
"85 730 LINE",
"85 0 LINE",
"101 0 LINE",
"101 159 LINE",
"100 157 LINE",
"121 51 OFFCURVE",
"198 -10 OFFCURVE",
"294 -10 CURVE SMOOTH"
);
},
{
closed = 1;
nodes = (
"183 4 OFFCURVE",
"101 100 OFFCURVE",
"101 250 CURVE SMOOTH",
"101 400 OFFCURVE",
"182 496 OFFCURVE",
"291 496 CURVE SMOOTH",
"411 496 OFFCURVE",
"490 405 OFFCURVE",
"490 250 CURVE SMOOTH",
"490 95 OFFCURVE",
"411 4 OFFCURVE",
"291 4 CURVE SMOOTH"
);
}
);
width = 557;
},
{
anchors = (
{
name = bottom;
position = "{311, 0}";
},
{
name = ogonek;
position = "{429, 18}";
},
{
name = top;
position = "{128, 698}";
}
);
layerId = "F67B2D2A-9F5D-44A5-A579-665B9797A041";
paths = (
{
closed = 1;
nodes = (
"447 -10 OFFCURVE",
"545 88 OFFCURVE",
"545 250 CURVE SMOOTH",
"545 413 OFFCURVE",
"447 510 OFFCURVE",
"327 510 CURVE SMOOTH",
"247 510 OFFCURVE",
"181 463 OFFCURVE",
"155 395 CURVE",
"164 382 LINE",
"164 730 LINE",
"92 730 LINE",
"92 0 LINE",
"155 0 LINE",
"161 127 LINE",
"152 114 LINE",
"175 41 OFFCURVE",
"243 -10 OFFCURVE",
"326 -10 CURVE SMOOTH"
);
},
{
closed = 1;
nodes = (
"227 53 OFFCURVE",
"164 129 OFFCURVE",
"164 248 CURVE SMOOTH",
"164 367 OFFCURVE",
"227 447 OFFCURVE",
"319 447 CURVE SMOOTH",
"416 447 OFFCURVE",
"473 370 OFFCURVE",
"473 250 CURVE SMOOTH",
"473 130 OFFCURVE",
"415 53 OFFCURVE",
"318 53 CURVE SMOOTH"
);
}
);
width = 604;
},
{
anchors = (
{
name = bottom;
position = "{317, 0}";
},
{
name = ogonek;
position = "{470, 13}";
},
{
name = top;
position = "{146, 700}";
}
);
layerId = "8348C28B-C402-4653-9E73-107F95648308";
paths = (
{
closed = 1;
nodes = (
"501 -10 OFFCURVE",
"583 85 OFFCURVE",
"583 248 CURVE SMOOTH",
"583 414 OFFCURVE",
"500 510 OFFCURVE",
"386 510 CURVE SMOOTH",
"290 510 OFFCURVE",
"233 449 OFFCURVE",
"215 367 CURVE",
"231 343 LINE",
"231 712 LINE",
"61 712 LINE",
"61 0 LINE",
"210 0 LINE",
"219 181 LINE",
"203 160 LINE",
"217 62 OFFCURVE",
"283 -10 OFFCURVE",
"380 -10 CURVE SMOOTH"
);
},
{
closed = 1;
nodes = (
"266 115 OFFCURVE",
"231 162 OFFCURVE",
"231 249 CURVE SMOOTH",
"231 334 OFFCURVE",
"264 385 OFFCURVE",
"321 385 CURVE SMOOTH",
"378 385 OFFCURVE",
"412 342 OFFCURVE",
"412 250 CURVE SMOOTH",
"412 158 OFFCURVE",
"378 115 OFFCURVE",
"321 115 CURVE SMOOTH"
);
}
);
width = 622;
}
);
leftKerningGroup = h;
leftMetricsKey = n;
rightKerningGroup = o;
rightMetricsKey = p;
unicode = 0062;
},
{
color = 8;
glyphname = c;
lastChange = "2022-01-17 02:44:33 +0000";
layers = (
{
anchors = (
{
name = bottom;
position = "{262, 0}";
},
{
name = ogonek;
position = "{373, 21}";
},
{
name = top;
position = "{260, 500}";
}
);
layerId = "C00489B0-D6FE-4186-8C18-D0EE90D80B61";
paths = (
{
closed = 1;
nodes = (
"143 510 OFFCURVE",
"51 412 OFFCURVE",
"51 250 CURVE SMOOTH",
"51 88 OFFCURVE",
"140 -10 OFFCURVE",
"263 -10 CURVE SMOOTH",
"357 -10 OFFCURVE",
"438 47 OFFCURVE",
"454 137 CURVE",
"440 142 LINE",
"427 57 OFFCURVE",
"349 4 OFFCURVE",
"263 4 CURVE SMOOTH",
"150 4 OFFCURVE",
"67 97 OFFCURVE",
"67 250 CURVE SMOOTH",
"67 403 OFFCURVE",
"153 496 OFFCURVE",
"266 496 CURVE SMOOTH",
"352 496 OFFCURVE",
"416 449 OFFCURVE",
"436 366 CURVE",
"450 373 LINE",
"428 461 OFFCURVE",
"358 510 OFFCURVE",
"266 510 CURVE SMOOTH"
);
}
);
width = 496;
},
{
anchors = (
{
name = bottom;
position = "{286, 0}";
},
{
name = ogonek;
position = "{396, 18}";
},
{
name = top;
position = "{281, 500}";
}
);
layerId = "F67B2D2A-9F5D-44A5-A579-665B9797A041";
paths = (
{
closed = 1;
nodes = (
"154 510 OFFCURVE",
"57 412 OFFCURVE",
"57 250 CURVE SMOOTH",
"57 88 OFFCURVE",
"153 -10 OFFCURVE",
"287 -10 CURVE SMOOTH",
"389 -10 OFFCURVE",
"460 45 OFFCURVE",
"490 137 CURVE",
"424 160 LINE",
"410 92 OFFCURVE",
"362 53 OFFCURVE",
"287 53 CURVE SMOOTH",
"190 53 OFFCURVE",
"129 127 OFFCURVE",
"129 250 CURVE SMOOTH",
"129 373 OFFCURVE",
"190 447 OFFCURVE",
"286 447 CURVE SMOOTH",
"354 447 OFFCURVE",
"398 411 OFFCURVE",
"417 344 CURVE",
"485 377 LINE",
"453 458 OFFCURVE",
"388 510 OFFCURVE",
"288 510 CURVE SMOOTH"
);
}
);
width = 538;
},
{
anchors = (
{
name = bottom;
position = "{294, 0}";
},
{
name = ogonek;
position = "{414, 13}";
},
{
name = top;
position = "{292, 500}";
}
);
layerId = "8348C28B-C402-4653-9E73-107F95648308";
paths = (
{
closed = 1;
nodes = (
"141 510 OFFCURVE",
"35 414 OFFCURVE",
"35 250 CURVE SMOOTH",
"35 86 OFFCURVE",
"139 -10 OFFCURVE",
"302 -10 CURVE SMOOTH",
"435 -10 OFFCURVE",
"520 56 OFFCURVE",
"535 143 CURVE",
"382 192 LINE",
"374 140 OFFCURVE",
"349 111 OFFCURVE",
"301 111 CURVE SMOOTH",
"243 111 OFFCURVE",
"206 149 OFFCURVE",
"206 248 CURVE SMOOTH",
"206 346 OFFCURVE",
"238 389 OFFCURVE",
"300 389 CURVE SMOOTH",
"346 389 OFFCURVE",
"368 361 OFFCURVE",
"377 303 CURVE",
"534 355 LINE",
"518 438 OFFCURVE",
"444 510 OFFCURVE",
"295 510 CURVE SMOOTH"
);
}
);
width = 562;
}
);
leftKerningGroup = o;
leftMetricsKey = o;
rightKerningGroup = c;
unicode = 0063;
},
{
color = 3;
glyphname = d;
lastChange = "2022-01-17 02:43:02 +0000";
layers = (
{
anchors = (
{
name = bottom;
position = "{269, 0}";
},
{
name = center;
position = "{285, 281}";
},
{
name = ogonek;
position = "{372, 21}";
},
{
name = top;
position = "{464, 680}";
},
{
name = topright;
position = "{575, 730}";
}
);
background = {
anchors = (
{
name = bottom;
position = "{283, 0}";
},
{
name = center;
position = "{301, 281}";
},
{
name = ogonek;
position = "{394, 21}";
},
{
name = top;
position = "{492, 680}";
},
{
name = topright;
position = "{611, 730}";
}
);
paths = (
{
closed = 1;
nodes = (
"383 -10 OFFCURVE",
"462 51 OFFCURVE",
"485 157 CURVE",
"484 159 LINE",
"484 0 LINE",
"500 0 LINE",
"500 730 LINE",
"484 730 LINE",
"484 343 LINE",
"485 345 LINE",
"460 450 OFFCURVE",
"382 510 OFFCURVE",
"280 510 CURVE SMOOTH",
"143 510 OFFCURVE",
"51 413 OFFCURVE",
"51 250 CURVE SMOOTH",
"51 87 OFFCURVE",
"143 -10 OFFCURVE",
"280 -10 CURVE SMOOTH"
);
},
{
closed = 1;
nodes = (
"154 4 OFFCURVE",
"67 95 OFFCURVE",
"67 250 CURVE SMOOTH",
"67 405 OFFCURVE",
"154 496 OFFCURVE",
"283 496 CURVE SMOOTH",
"400 496 OFFCURVE",
"484 401 OFFCURVE",
"484 250 CURVE SMOOTH",
"484 99 OFFCURVE",
"399 4 OFFCURVE",
"283 4 CURVE SMOOTH"
);
}
);
};
layerId = "C00489B0-D6FE-4186-8C18-D0EE90D80B61";
paths = (
{
closed = 1;
nodes = (
"361 -10 OFFCURVE",
"436 51 OFFCURVE",
"457 157 CURVE",
"456 159 LINE",
"456 0 LINE",
"472 0 LINE",
"472 730 LINE",
"456 730 LINE",
"456 343 LINE",
"457 345 LINE",
"434 450 OFFCURVE",
"360 510 OFFCURVE",
"266 510 CURVE SMOOTH",
"138 510 OFFCURVE",
"51 413 OFFCURVE",
"51 250 CURVE SMOOTH",
"51 87 OFFCURVE",
"138 -10 OFFCURVE",
"265 -10 CURVE SMOOTH"
);
},
{
closed = 1;
nodes = (
"148 4 OFFCURVE",
"67 96 OFFCURVE",
"67 250 CURVE SMOOTH",
"67 404 OFFCURVE",
"148 496 OFFCURVE",
"268 496 CURVE SMOOTH",
"377 496 OFFCURVE",
"456 401 OFFCURVE",
"456 250 CURVE SMOOTH",
"456 99 OFFCURVE",
"376 4 OFFCURVE",
"268 4 CURVE SMOOTH"
);
}
);
width = 557;
},
{
anchors = (
{
name = bottom;
position = "{293, 0}";
},
{
name = center;
position = "{308, 254}";
},
{
name = ogonek;
position = "{376, 18}";
},
{
name = top;
position = "{476, 698}";
},
{
name = topright;
position = "{589, 730}";
}
);
background = {
anchors = (
{
name = bottom;
position = "{302, 0}";
},
{
name = center;
position = "{318, 254}";
},
{
name = ogonek;
position = "{391, 18}";
},
{
name = top;
position = "{494, 698}";
},
{
name = topright;
position = "{611, 730}";
}
);
paths = (
{
closed = 1;
nodes = (
"375 -10 OFFCURVE",
"454 41 OFFCURVE",
"470 131 CURVE",
"460 126 LINE",
"467 0 LINE",
"530 0 LINE",
"530 730 LINE",
"458 730 LINE",
"458 381 LINE",
"467 387 LINE",
"446 461 OFFCURVE",
"379 510 OFFCURVE",
"294 510 CURVE SMOOTH",
"168 510 OFFCURVE",
"59 416 OFFCURVE",
"59 250 CURVE SMOOTH",
"59 87 OFFCURVE",
"161 -10 OFFCURVE",
"287 -10 CURVE SMOOTH"
);
},
{
closed = 1;
nodes = (
"192 53 OFFCURVE",
"131 130 OFFCURVE",
"131 250 CURVE SMOOTH",
"131 370 OFFCURVE",
"193 447 OFFCURVE",
"298 447 CURVE SMOOTH",
"392 447 OFFCURVE",
"458 375 OFFCURVE",
"458 256 CURVE SMOOTH",
"458 131 OFFCURVE",
"392 53 OFFCURVE",
"294 53 CURVE SMOOTH"
);
}
);
};
layerId = "F67B2D2A-9F5D-44A5-A579-665B9797A041";
paths = (
{
closed = 1;
nodes = (
"361 -10 OFFCURVE",
"437 41 OFFCURVE",
"452 131 CURVE",
"442 126 LINE",
"449 0 LINE",
"512 0 LINE",
"512 730 LINE",
"440 730 LINE",
"440 381 LINE",
"449 387 LINE",
"429 461 OFFCURVE",
"364 510 OFFCURVE",
"283 510 CURVE SMOOTH",
"163 510 OFFCURVE",
"59 416 OFFCURVE",
"59 250 CURVE SMOOTH",
"59 88 OFFCURVE",
"156 -10 OFFCURVE",
"277 -10 CURVE SMOOTH"
);
},
{
closed = 1;
nodes = (
"189 53 OFFCURVE",
"131 130 OFFCURVE",
"131 250 CURVE SMOOTH",
"131 370 OFFCURVE",
"190 447 OFFCURVE",
"289 447 CURVE SMOOTH",
"377 447 OFFCURVE",
"440 375 OFFCURVE",
"440 256 CURVE SMOOTH",
"440 131 OFFCURVE",
"377 53 OFFCURVE",
"285 53 CURVE SMOOTH"
);
}
);
width = 604;
},
{
anchors = (
{
name = bottom;
position = "{305, 0}";
},
{
name = center;
position = "{311, 250}";
},
{
name = ogonek;
position = "{325, 13}";
},
{
name = top;
position = "{476, 700}";
},
{
name = topright;
position = "{624, 712}";
}
);
background = {
anchors = (
{
name = bottom;
position = "{308, 0}";
},
{
name = center;
position = "{314, 250}";
},
{
name = ogonek;
position = "{329, 13}";
},
{
name = top;
position = "{481, 700}";
},
{
name = topright;
position = "{630, 712}";
}
);
paths = (
{
closed = 1;
nodes = (
"340 -10 OFFCURVE",
"409 56 OFFCURVE",
"423 155 CURVE",
"403 170 LINE",
"414 0 LINE",
"566 0 LINE",
"566 712 LINE",
"396 712 LINE",
"396 342 LINE",
"412 363 LINE",
"397 449 OFFCURVE",
"340 510 OFFCURVE",
"249 510 CURVE SMOOTH",
"125 510 OFFCURVE",
"39 415 OFFCURVE",
"39 248 CURVE SMOOTH",
"39 85 OFFCURVE",
"121 -10 OFFCURVE",
"245 -10 CURVE SMOOTH"
);
},
{
closed = 1;
nodes = (
"245 115 OFFCURVE",
"210 157 OFFCURVE",
"210 250 CURVE SMOOTH",
"210 343 OFFCURVE",
"246 385 OFFCURVE",
"305 385 CURVE SMOOTH",
"362 385 OFFCURVE",
"396 337 OFFCURVE",
"396 253 CURVE SMOOTH",
"396 163 OFFCURVE",
"360 115 OFFCURVE",
"304 115 CURVE SMOOTH"
);
}
);
};
layerId = "8348C28B-C402-4653-9E73-107F95648308";
paths = (
{
closed = 1;
nodes = (
"337 -10 OFFCURVE",
"404 56 OFFCURVE",
"418 155 CURVE",
"398 170 LINE",
"409 0 LINE",
"561 0 LINE",
"561 712 LINE",
"391 712 LINE",
"391 342 LINE",
"407 363 LINE",
"392 449 OFFCURVE",
"336 510 OFFCURVE",
"246 510 CURVE SMOOTH",
"124 510 OFFCURVE",
"39 415 OFFCURVE",
"39 248 CURVE SMOOTH",
"39 85 OFFCURVE",
"120 -10 OFFCURVE",
"242 -10 CURVE SMOOTH"
);
},
{
closed = 1;
nodes = (
"244 115 OFFCURVE",
"210 158 OFFCURVE",
"210 250 CURVE SMOOTH",
"210 342 OFFCURVE",
"245 385 OFFCURVE",
"302 385 CURVE SMOOTH",
"358 385 OFFCURVE",
"391 337 OFFCURVE",
"391 253 CURVE SMOOTH",
"391 163 OFFCURVE",
"356 115 OFFCURVE",
"301 115 CURVE SMOOTH"
);
}
);
width = 622;
}
);
leftKerningGroup = o;
rightKerningGroup = d;
rightMetricsKey = "=|n";
unicode = 0064;
},
{
color = 8;
glyphname = eth;
lastChange = "2022-01-17 02:46:39 +0000";
layers = (
{
anchors = (
{
name = bottom;
position = "{268, 0}";
},
{
name = ogonek;
position = "{374, 21}";
},
{
name = top;
position = "{268, 730}";
}
);
layerId = "C00489B0-D6FE-4186-8C18-D0EE90D80B61";
paths = (
{
closed = 1;
nodes = (
"403 -10 OFFCURVE",
"484 85 OFFCURVE",
"484 283 CURVE SMOOTH",
"484 549 OFFCURVE",
"379 672 OFFCURVE",
"258 730 CURVE",
"227 730 LINE",
"360 676 OFFCURVE",
"468 536 OFFCURVE",
"470 294 CURVE",
"475 304 LINE",
"461 413 OFFCURVE",
"384 485 OFFCURVE",
"266 485 CURVE SMOOTH",
"137 485 OFFCURVE",
"51 388 OFFCURVE",
"51 237 CURVE SMOOTH",
"51 88 OFFCURVE",
"136 -10 OFFCURVE",
"273 -10 CURVE SMOOTH"
);
},
{
closed = 1;
nodes = (
"145 4 OFFCURVE",
"67 95 OFFCURVE",
"67 237 CURVE SMOOTH",
"67 379 OFFCURVE",
"146 471 OFFCURVE",
"266 471 CURVE SMOOTH",
"379 471 OFFCURVE",
"468 391 OFFCURVE",
"468 259 CURVE SMOOTH",
"468 117 OFFCURVE",
"405 4 OFFCURVE",
"273 4 CURVE SMOOTH"
);
},
{
closed = 1;
nodes = (
"393 613 LINE",
"385 625 LINE",
"213 587 LINE",
"217 574 LINE"
);
},
{
closed = 1;
nodes = (
"502 638 LINE",
"498 651 LINE",
"385 625 LINE",
"393 613 LINE"
);
}
);
width = 549;
},
{
anchors = (
{
name = bottom;
position = "{293, 0}";
},
{
name = ogonek;
position = "{401, 18}";
},
{
name = top;
position = "{293, 730}";
}
);
layerId = "F67B2D2A-9F5D-44A5-A579-665B9797A041";
paths = (
{
closed = 1;
nodes = (
"448 -10 OFFCURVE",
"526 110 OFFCURVE",
"526 287 CURVE SMOOTH",
"526 498 OFFCURVE",
"449 642 OFFCURVE",
"302 730 CURVE",
"204 730 LINE",
"349 651 OFFCURVE",
"427 543 OFFCURVE",
"454 385 CURVE",
"462 392 LINE",
"430 451 OFFCURVE",
"370 485 OFFCURVE",
"286 485 CURVE SMOOTH",
"157 485 OFFCURVE",
"61 392 OFFCURVE",
"61 238 CURVE SMOOTH",
"61 84 OFFCURVE",
"149 -10 OFFCURVE",
"289 -10 CURVE SMOOTH"
);
},
{
closed = 1;
nodes = (
"196 53 OFFCURVE",
"135 122 OFFCURVE",
"135 238 CURVE SMOOTH",
"135 352 OFFCURVE",
"196 422 OFFCURVE",
"296 422 CURVE SMOOTH",
"393 422 OFFCURVE",
"455 353 OFFCURVE",
"455 241 CURVE SMOOTH",
"455 141 OFFCURVE",
"397 53 OFFCURVE",
"292 53 CURVE SMOOTH"
);
},
{
closed = 1;
nodes = (
"413 593 LINE",
"382 636 LINE",
"191 593 LINE",
"205 538 LINE"
);
},
{
closed = 1;
nodes = (
"533 621 LINE",
"519 675 LINE",
"383 636 LINE",
"414 593 LINE"
);
}
);
width = 599;
},
{
anchors = (
{
name = bottom;
position = "{300, 0}";
},
{
name = ogonek;
position = "{406, 13}";
},
{
name = top;
position = "{300, 712}";
}
);
layerId = "8348C28B-C402-4653-9E73-107F95648308";
paths = (
{
closed = 1;
nodes = (
"453 -10 OFFCURVE",
"557 104 OFFCURVE",
"557 303 CURVE SMOOTH",
"557 522 OFFCURVE",
"446 658 OFFCURVE",
"329 722 CURVE",
"174 722 LINE",
"328 619 OFFCURVE",
"409 536 OFFCURVE",
"428 378 CURVE",
"436 382 LINE",
"417 451 OFFCURVE",
"366 495 OFFCURVE",
"277 495 CURVE SMOOTH",
"140 495 OFFCURVE",
"41 402 OFFCURVE",
"41 243 CURVE SMOOTH",
"41 83 OFFCURVE",
"137 -10 OFFCURVE",
"296 -10 CURVE SMOOTH"
);
},
{
closed = 1;
nodes = (
"243 111 OFFCURVE",
"213 154 OFFCURVE",
"213 243 CURVE SMOOTH",
"213 339 OFFCURVE",
"243 383 OFFCURVE",
"304 383 CURVE SMOOTH",
"366 383 OFFCURVE",
"396 340 OFFCURVE",
"396 243 CURVE SMOOTH",
"396 159 OFFCURVE",
"366 111 OFFCURVE",
"302 111 CURVE SMOOTH"
);
},
{
closed = 1;
nodes = (
"380 580 LINE",
"353 634 LINE",
"178 600 LINE",
"190 539 LINE"
);
},
{
closed = 1;
nodes = (
"563 615 LINE",
"549 673 LINE",
"392 640 LINE",
"415 586 LINE"
);
}
);
width = 599;
}
);
unicode = 00F0;
},
{
color = 3;
glyphname = e;
lastChange = "2022-01-17 02:43:02 +0000";
layers = (
{
anchors = (
{
name = bottom;
position = "{269, 0}";
},
{
name = ogonek;
position = "{347, 5}";
},
{
name = top;
position = "{257, 500}";
}
);
background = {
anchors = (
{
name = bottom;
position = "{284, 0}";
},
{
name = ogonek;
position = "{367, 5}";
},
{
name = top;
position = "{271, 500}";
}
);
paths = (
{
closed = 1;
nodes = (
"371 -10 OFFCURVE",
"447 35 OFFCURVE",
"482 109 CURVE",
"469 116 LINE",
"436 46 OFFCURVE",
"364 4 OFFCURVE",
"283 4 CURVE SMOOTH",
"159 4 OFFCURVE",
"67 96 OFFCURVE",
"67 250 CURVE SMOOTH",
"67 404 OFFCURVE",
"158 496 OFFCURVE",
"275 496 CURVE SMOOTH",
"402 496 OFFCURVE",
"471 401 OFFCURVE",
"472 264 CURVE",
"479 270 LINE",
"59 270 LINE",
"59 255 LINE",
"486 255 LINE",
"486 257 OFFCURVE",
"486 260 OFFCURVE",
"486 262 CURVE SMOOTH",
"486 416 OFFCURVE",
"407 510 OFFCURVE",
"275 510 CURVE SMOOTH",
"149 510 OFFCURVE",
"51 413 OFFCURVE",
"51 250 CURVE SMOOTH",
"51 87 OFFCURVE",
"150 -10 OFFCURVE",
"283 -10 CURVE SMOOTH"
);
}
);
};
hints = (
{
horizontal = 1;
origin = "{0, 31}";
target = "{0, 6}";
type = Stem;
},
{
horizontal = 1;
origin = "{0, 25}";
target = "{0, 12}";
type = Stem;
}
);
layerId = "C00489B0-D6FE-4186-8C18-D0EE90D80B61";
paths = (
{
closed = 1;
nodes = (
"351 -10 OFFCURVE",
"421 35 OFFCURVE",
"454 109 CURVE",
"441 116 LINE",
"410 46 OFFCURVE",
"344 4 OFFCURVE",
"268 4 CURVE SMOOTH",
"153 4 OFFCURVE",
"67 96 OFFCURVE",
"67 250 CURVE SMOOTH",
"67 404 OFFCURVE",
"152 496 OFFCURVE",
"261 496 CURVE SMOOTH",
"378 496 OFFCURVE",
"443 401 OFFCURVE",
"444 264 CURVE",
"451 270 LINE",
"59 270 LINE",
"59 255 LINE",
"458 255 LINE",
"458 257 OFFCURVE",
"458 260 OFFCURVE",
"458 262 CURVE SMOOTH",
"458 416 OFFCURVE",
"384 510 OFFCURVE",
"261 510 CURVE SMOOTH",
"143 510 OFFCURVE",
"51 413 OFFCURVE",
"51 250 CURVE SMOOTH",
"51 87 OFFCURVE",
"144 -10 OFFCURVE",
"268 -10 CURVE SMOOTH"
);
}
);
width = 506;
},
{
anchors = (
{
name = bottom;
position = "{288, 0}";
},
{
name = ogonek;
position = "{381, 7}";
},
{
name = top;
position = "{280, 500}";
}
);
background = {
anchors = (
{
name = bottom;
position = "{298, 0}";
},
{
name = ogonek;
position = "{394, 7}";
},
{
name = top;
position = "{289, 500}";
}
);
paths = (
{
closed = 1;
nodes = (
"396 -10 OFFCURVE",
"467 33 OFFCURVE",
"505 102 CURVE",
"448 135 LINE",
"419 85 OFFCURVE",
"372 53 OFFCURVE",
"298 53 CURVE SMOOTH",
"194 53 OFFCURVE",
"127 127 OFFCURVE",
"127 250 CURVE SMOOTH",
"127 373 OFFCURVE",
"192 447 OFFCURVE",
"293 447 CURVE SMOOTH",
"383 447 OFFCURVE",
"442 388 OFFCURVE",
"442 287 CURVE",
"479 295 LINE",
"104 295 LINE",
"104 231 LINE",
"511 231 LINE",
"512 243 OFFCURVE",
"514 260 OFFCURVE",
"514 280 CURVE SMOOTH",
"514 412 OFFCURVE",
"433 510 OFFCURVE",
"294 510 CURVE SMOOTH",
"157 510 OFFCURVE",
"57 412 OFFCURVE",
"57 250 CURVE SMOOTH",
"57 88 OFFCURVE",
"158 -10 OFFCURVE",
"300 -10 CURVE SMOOTH"
);
}
);
};
hints = (
{
horizontal = 1;
origin = "{0, 31}";
target = "{0, 6}";
type = Stem;
},
{
horizontal = 1;
origin = "{0, 25}";
target = "{0, 12}";
type = Stem;
}
);
layerId = "F67B2D2A-9F5D-44A5-A579-665B9797A041";
paths = (
{
closed = 1;
nodes = (
"382 -10 OFFCURVE",
"451 33 OFFCURVE",
"487 102 CURVE",
"430 135 LINE",
"403 85 OFFCURVE",
"358 53 OFFCURVE",
"289 53 CURVE SMOOTH",
"190 53 OFFCURVE",
"127 128 OFFCURVE",
"127 250 CURVE SMOOTH",
"127 372 OFFCURVE",
"188 447 OFFCURVE",
"284 447 CURVE SMOOTH",
"368 447 OFFCURVE",
"424 388 OFFCURVE",
"424 287 CURVE",
"461 295 LINE",
"104 295 LINE",
"104 231 LINE",
"493 231 LINE",
"494 243 OFFCURVE",
"496 259 OFFCURVE",
"496 280 CURVE SMOOTH",
"496 412 OFFCURVE",
"418 510 OFFCURVE",
"285 510 CURVE SMOOTH",
"153 510 OFFCURVE",
"57 412 OFFCURVE",
"57 250 CURVE SMOOTH",
"57 88 OFFCURVE",
"154 -10 OFFCURVE",
"290 -10 CURVE SMOOTH"
);
}
);
width = 554;
},
{
anchors = (
{
name = bottom;
position = "{296, 0}";
},
{
name = ogonek;
position = "{404, 7}";
},
{
name = top;
position = "{291, 500}";
}
);
associatedMasterId = "F67B2D2A-9F5D-44A5-A579-665B9797A041";
hints = (
{
horizontal = 1;
origin = "{0, 31}";
target = "{0, 6}";
type = Stem;
},
{
horizontal = 1;
origin = "{0, 25}";
target = "{0, 12}";
type = Stem;
}
);
layerId = "72421C35-BB32-41DB-AC18-520E82ABE3E5";
leftMetricsKey = "=o";
name = "{137}";
paths = (
{
closed = 1;
nodes = (
"404 -10 OFFCURVE",
"491 35 OFFCURVE",
"523 114 CURVE",
"414 156 LINE",
"394 116 OFFCURVE",
"360 92 OFFCURVE",
"301 92 CURVE SMOOTH",
"221 92 OFFCURVE",
"173 142 OFFCURVE",
"173 248 CURVE SMOOTH",
"173 355 OFFCURVE",
"217 409 OFFCURVE",
"294 409 CURVE SMOOTH",
"363 409 OFFCURVE",
"403 362 OFFCURVE",
"403 278 CURVE",
"469 302 LINE",
"130 302 LINE",
"130 207 LINE",
"529 207 LINE",
"531 225 OFFCURVE",
"533 250 OFFCURVE",
"533 277 CURVE SMOOTH",
"533 411 OFFCURVE",
"446 510 OFFCURVE",
"295 510 CURVE SMOOTH",
"146 510 OFFCURVE",
"42 414 OFFCURVE",
"42 250 CURVE SMOOTH",
"42 86 OFFCURVE",
"144 -10 OFFCURVE",
"302 -10 CURVE SMOOTH"
);
}
);
width = 577;
},
{
anchors = (
{
name = bottom;
position = "{294, 0}";
},
{
name = ogonek;
position = "{406, 7}";
},
{
name = top;
position = "{291, 500}";
}
);
background = {
anchors = (
{
name = bottom;
position = "{297, 0}";
},
{
name = ogonek;
position = "{410, 7}";
},
{
name = top;
position = "{294, 500}";
}
);
paths = (
{
closed = 1;
nodes = (
"410 -10 OFFCURVE",
"506 36 OFFCURVE",
"535 122 CURVE",
"399 167 LINE",
"384 131 OFFCURVE",
"355 110 OFFCURVE",
"305 110 CURVE SMOOTH",
"236 110 OFFCURVE",
"197 148 OFFCURVE",
"197 247 CURVE SMOOTH",
"197 347 OFFCURVE",
"232 391 OFFCURVE",
"297 391 CURVE SMOOTH",
"356 391 OFFCURVE",
"385 347 OFFCURVE",
"385 267 CURVE",
"466 298 LINE",
"145 298 LINE",
"145 207 LINE",
"541 207 LINE",
"543 223 OFFCURVE",
"545 248 OFFCURVE",
"545 273 CURVE SMOOTH",
"545 411 OFFCURVE",
"455 510 OFFCURVE",
"297 510 CURVE SMOOTH",
"142 510 OFFCURVE",
"35 415 OFFCURVE",
"35 250 CURVE SMOOTH",
"35 85 OFFCURVE",
"139 -10 OFFCURVE",
"305 -10 CURVE SMOOTH"
);
}
);
};
hints = (
{
horizontal = 1;
origin = "{0, 31}";
target = "{0, 6}";
type = Stem;
},
{
horizontal = 1;
origin = "{0, 25}";
target = "{0, 12}";
type = Stem;
}
);
layerId = "8348C28B-C402-4653-9E73-107F95648308";
paths = (
{
closed = 1;
nodes = (
"405 -10 OFFCURVE",
"502 36 OFFCURVE",
"530 122 CURVE",
"394 167 LINE",
"380 131 OFFCURVE",
"350 110 OFFCURVE",
"302 110 CURVE SMOOTH",
"235 110 OFFCURVE",
"197 148 OFFCURVE",
"197 247 CURVE SMOOTH",
"197 347 OFFCURVE",
"231 391 OFFCURVE",
"294 391 CURVE SMOOTH",
"352 391 OFFCURVE",
"380 347 OFFCURVE",
"380 267 CURVE",
"461 298 LINE",
"145 298 LINE",
"145 207 LINE",
"536 207 LINE",
"538 223 OFFCURVE",
"540 248 OFFCURVE",
"540 273 CURVE SMOOTH",
"540 411 OFFCURVE",
"450 510 OFFCURVE",
"294 510 CURVE SMOOTH",
"141 510 OFFCURVE",
"35 415 OFFCURVE",
"35 250 CURVE SMOOTH",
"35 85 OFFCURVE",
"138 -10 OFFCURVE",
"302 -10 CURVE SMOOTH"
);
}
);
width = 574;
},
{
anchors = (
{
name = bottom;
position = "{296, 0}";
},
{
name = ogonek;
position = "{404, 7}";
},
{
name = top;
position = "{291, 500}";
}
);
associatedMasterId = "8348C28B-C402-4653-9E73-107F95648308";
hints = (
{
horizontal = 1;
origin = "{0, 31}";
target = "{0, 6}";
type = Stem;
},
{
horizontal = 1;
origin = "{0, 25}";
target = "{0, 12}";
type = Stem;
}
);
layerId = "5583B7B0-9537-40E9-BAD3-12C9571058CA";
leftMetricsKey = "=o";
name = "{137}";
paths = (
{
closed = 1;
nodes = (
"404 -10 OFFCURVE",
"491 35 OFFCURVE",
"523 114 CURVE",
"414 156 LINE",
"394 116 OFFCURVE",
"360 92 OFFCURVE",
"301 92 CURVE SMOOTH",
"221 92 OFFCURVE",
"173 142 OFFCURVE",
"173 248 CURVE SMOOTH",
"173 355 OFFCURVE",
"217 409 OFFCURVE",
"294 409 CURVE SMOOTH",
"363 409 OFFCURVE",
"403 362 OFFCURVE",
"403 278 CURVE",
"469 302 LINE",
"130 302 LINE",
"130 207 LINE",
"529 207 LINE",
"531 225 OFFCURVE",
"533 250 OFFCURVE",
"533 277 CURVE SMOOTH",
"533 411 OFFCURVE",
"446 510 OFFCURVE",
"295 510 CURVE SMOOTH",
"146 510 OFFCURVE",
"42 414 OFFCURVE",
"42 250 CURVE SMOOTH",
"42 86 OFFCURVE",
"144 -10 OFFCURVE",
"302 -10 CURVE SMOOTH"
);
}
);
width = 577;
}
);
leftKerningGroup = o;
leftMetricsKey = o;
rightKerningGroup = e;
unicode = 0065;
},
{
color = 8;
glyphname = f;
lastChange = "2022-01-17 02:44:33 +0000";
layers = (
{
anchors = (
{
name = bottom;
position = "{111, 0}";
},
{
name = ogonek;
position = "{119, 0}";
},
{
name = top;
position = "{198, 730}";
}
);
hints = (
{
horizontal = 1;
origin = "{0, 3}";
target = up;
type = BottomGhost;
},
{
horizontal = 1;
origin = "{1, 0}";
target = "{1, 1}";
type = Stem;
},
{
horizontal = 1;
origin = "{0, 17}";
target = "{0, 10}";
type = Stem;
},
{
origin = "{0, 3}";
target = "{0, 4}";
type = Stem;
}
);
layerId = "C00489B0-D6FE-4186-8C18-D0EE90D80B61";
paths = (
{
closed = 1;
nodes = (
"148 735 OFFCURVE",
"103 677 OFFCURVE",
"103 583 CURVE SMOOTH",
"103 0 LINE",
"119 0 LINE",
"119 491 LINE",
"119 500 LINE",
"119 583 LINE SMOOTH",
"119 669 OFFCURVE",
"159 721 OFFCURVE",
"224 721 CURVE SMOOTH",
"253 721 OFFCURVE",
"271 713 OFFCURVE",
"287 692 CURVE",
"294 704 LINE",
"279 722 OFFCURVE",
"259 735 OFFCURVE",
"224 735 CURVE SMOOTH"
);
},
{
closed = 1;
nodes = (
"12 500 LINE",
"12 486 LINE",
"287 486 LINE",
"287 500 LINE"
);
}
);
width = 292;
},
{
anchors = (
{
name = bottom;
position = "{159, 0}";
},
{
name = ogonek;
position = "{195, 0}";
},
{
name = top;
position = "{240, 730}";
}
);
guideLines = (
{
angle = 90;
position = "{379, 500}";
}
);
hints = (
{
horizontal = 1;
origin = "{0, 3}";
target = up;
type = BottomGhost;
},
{
horizontal = 1;
origin = "{1, 0}";
target = "{1, 1}";
type = Stem;
},
{
horizontal = 1;
origin = "{0, 17}";
target = "{0, 10}";
type = Stem;
},
{
origin = "{0, 3}";
target = "{0, 4}";
type = Stem;
}
);
layerId = "F67B2D2A-9F5D-44A5-A579-665B9797A041";
paths = (
{
closed = 1;
nodes = (
"175 735 OFFCURVE",
"123 674 OFFCURVE",
"123 584 CURVE SMOOTH",
"123 0 LINE",
"195 0 LINE",
"195 476 LINE",
"195 500 LINE",
"195 577 LINE SMOOTH",
"195 640 OFFCURVE",
"227 669 OFFCURVE",
"283 669 CURVE SMOOTH",
"305 669 OFFCURVE",
"322 664 OFFCURVE",
"337 653 CURVE",
"356 711 LINE",
"339 726 OFFCURVE",
"309 735 OFFCURVE",
"275 735 CURVE SMOOTH"
);
},
{
closed = 1;
nodes = (
"30 500 LINE",
"30 438 LINE",
"353 438 LINE",
"353 500 LINE"
);
}
);
width = 366;
},
{
anchors = (
{
name = bottom;
position = "{178, 0}";
},
{
name = ogonek;
position = "{263, 0}";
},
{
name = top;
position = "{251, 712}";
}
);
guideLines = (
{
angle = 90;
position = "{379, 500}";
}
);
hints = (
{
horizontal = 1;
origin = "{0, 3}";
target = up;
type = BottomGhost;
},
{
horizontal = 1;
origin = "{1, 0}";
target = "{1, 1}";
type = Stem;
},
{
horizontal = 1;
origin = "{0, 10}";
target = "{0, 17}";
type = Stem;
},
{
origin = "{0, 3}";
target = "{0, 4}";
type = Stem;
}
);
layerId = "8348C28B-C402-4653-9E73-107F95648308";
paths = (
{
closed = 1;
nodes = (
"185 726 OFFCURVE",
"93 674 OFFCURVE",
"93 546 CURVE SMOOTH",
"93 0 LINE",
"263 0 LINE",
"263 442 LINE",
"253 470 LINE",
"253 535 LINE SMOOTH",
"253 589 OFFCURVE",
"285 607 OFFCURVE",
"331 607 CURVE SMOOTH",
"358 607 OFFCURVE",
"377 600 OFFCURVE",
"390 592 CURVE",
"407 698 LINE",
"387 713 OFFCURVE",
"343 726 OFFCURVE",
"290 726 CURVE SMOOTH"
);
},
{
closed = 1;
nodes = (
"15 500 LINE",
"15 379 LINE",
"402 379 LINE",
"402 500 LINE"
);
}
);
width = 410;
}
);
leftKerningGroup = f;
rightKerningGroup = f;
unicode = 0066;
},
{
color = 3;
glyphname = g;
lastChange = "2022-01-17 02:43:02 +0000";
layers = (
{
anchors = (
{
name = bottom;
position = "{240, -210}";
},
{
name = ogonek;
position = "{376, -189}";
},
{
name = top;
position = "{240, 500}";
}
);
background = {
anchors = (
{
name = bottom;
position = "{253, -210}";
},
{
name = ogonek;
position = "{399, -189}";
},
{
name = top;
position = "{253, 500}";
}
);
paths = (
{
closed = 1;
nodes = (
"489 592 OFFCURVE",
"490 592 OFFCURVE",
"488 592 CURVE SMOOTH",
"421 592 OFFCURVE",
"379 543 OFFCURVE",
"379 470 CURVE",
"392 465 LINE",
"392 531 OFFCURVE",
"428 578 OFFCURVE",
"493 578 CURVE SMOOTH",
"494 578 OFFCURVE",
"495 578 OFFCURVE",
"496 578 CURVE",
"491 592 LINE"
);
},
{
closed = 1;
nodes = (
"203 37 LINE SMOOTH",
"143 37 OFFCURVE",
"92 64 OFFCURVE",
"92 119 CURVE SMOOTH",
"92 173 OFFCURVE",
"146 199 OFFCURVE",
"205 199 CURVE SMOOTH",
"237 199 LINE",
"186 207 LINE",
"126 207 OFFCURVE",
"76 173 OFFCURVE",
"76 117 CURVE SMOOTH",
"76 68 OFFCURVE",
"117 40 OFFCURVE",
"157 30 CURVE",
"158 32 LINE",
"85 22 OFFCURVE",
"34 -22 OFFCURVE",
"34 -81 CURVE SMOOTH",
"34 -161 OFFCURVE",
"121 -215 OFFCURVE",
"264 -215 CURVE SMOOTH",
"400 -215 OFFCURVE",
"492 -157 OFFCURVE",
"492 -73 CURVE SMOOTH",
"492 -7 OFFCURVE",
"428 37 OFFCURVE",
"326 37 CURVE SMOOTH"
);
},
{
closed = 1;
nodes = (
"132 -201 OFFCURVE",
"50 -151 OFFCURVE",
"50 -79 CURVE SMOOTH",
"50 -19 OFFCURVE",
"111 23 OFFCURVE",
"197 23 CURVE SMOOTH",
"325 23 LINE SMOOTH",
"417 23 OFFCURVE",
"476 -16 OFFCURVE",
"476 -75 CURVE SMOOTH",
"476 -150 OFFCURVE",
"384 -201 OFFCURVE",
"266 -201 CURVE SMOOTH"
);
},
{
closed = 1;
nodes = (
"139 510 OFFCURVE",
"60 448 OFFCURVE",
"60 353 CURVE SMOOTH",
"60 258 OFFCURVE",
"139 196 OFFCURVE",
"258 196 CURVE SMOOTH",
"376 196 OFFCURVE",
"454 258 OFFCURVE",
"454 353 CURVE SMOOTH",
"454 448 OFFCURVE",
"376 510 OFFCURVE",
"258 510 CURVE SMOOTH"
);
},
{
closed = 1;
nodes = (
"367 496 OFFCURVE",
"438 439 OFFCURVE",
"438 353 CURVE SMOOTH",
"438 267 OFFCURVE",
"367 210 OFFCURVE",
"258 210 CURVE SMOOTH",
"148 210 OFFCURVE",
"76 267 OFFCURVE",
"76 353 CURVE SMOOTH",
"76 439 OFFCURVE",
"148 496 OFFCURVE",
"258 496 CURVE SMOOTH"
);
}
);
};
hints = (
{
horizontal = 1;
origin = "{0, 13}";
target = down;
type = TopGhost;
},
{
horizontal = 1;
origin = "{1, 21}";
target = "{2, 12}";
type = Stem;
},
{
horizontal = 1;
origin = "{2, 5}";
target = "{1, 0}";
type = Stem;
},
{
horizontal = 1;
place = "{510, 14}";
type = Stem;
},
{
horizontal = 1;
origin = "{1, 6}";
target = "{1, 8}";
type = Stem;
},
{
place = "{438, 16}";
type = Stem;
},
{
place = "{60, 16}";
type = Stem;
}
);
layerId = "C00489B0-D6FE-4186-8C18-D0EE90D80B61";
paths = (
{
closed = 1;
nodes = (
"461 592 OFFCURVE",
"462 592 OFFCURVE",
"460 592 CURVE SMOOTH",
"398 592 OFFCURVE",
"358 543 OFFCURVE",
"358 470 CURVE",
"370 465 LINE",
"370 530 OFFCURVE",
"404 578 OFFCURVE",
"465 578 CURVE SMOOTH",
"466 578 OFFCURVE",
"467 578 OFFCURVE",
"468 578 CURVE",
"463 592 LINE"
);
},
{
closed = 1;
nodes = (
"193 37 LINE SMOOTH",
"137 37 OFFCURVE",
"89 64 OFFCURVE",
"89 119 CURVE SMOOTH",
"89 173 OFFCURVE",
"140 199 OFFCURVE",
"195 199 CURVE SMOOTH",
"224 199 LINE",
"177 207 LINE",
"120 207 OFFCURVE",
"73 173 OFFCURVE",
"73 117 CURVE SMOOTH",
"73 68 OFFCURVE",
"112 40 OFFCURVE",
"149 30 CURVE",
"150 32 LINE",
"82 22 OFFCURVE",
"34 -22 OFFCURVE",
"34 -81 CURVE SMOOTH",
"34 -161 OFFCURVE",
"116 -215 OFFCURVE",
"250 -215 CURVE SMOOTH",
"377 -215 OFFCURVE",
"464 -157 OFFCURVE",
"464 -73 CURVE SMOOTH",
"464 -7 OFFCURVE",
"404 37 OFFCURVE",
"308 37 CURVE SMOOTH"
);
},
{
closed = 1;
nodes = (
"127 -201 OFFCURVE",
"50 -151 OFFCURVE",
"50 -79 CURVE SMOOTH",
"50 -19 OFFCURVE",
"107 23 OFFCURVE",
"187 23 CURVE SMOOTH",
"307 23 LINE SMOOTH",
"393 23 OFFCURVE",
"448 -16 OFFCURVE",
"448 -75 CURVE SMOOTH",
"448 -150 OFFCURVE",
"362 -201 OFFCURVE",
"252 -201 CURVE SMOOTH"
);
},
{
closed = 1;
nodes = (
"133 510 OFFCURVE",
"58 448 OFFCURVE",
"58 353 CURVE SMOOTH",
"58 258 OFFCURVE",
"133 196 OFFCURVE",
"244 196 CURVE SMOOTH",
"354 196 OFFCURVE",
"428 258 OFFCURVE",
"428 353 CURVE SMOOTH",
"428 448 OFFCURVE",
"354 510 OFFCURVE",
"244 510 CURVE SMOOTH"
);
},
{
closed = 1;
nodes = (
"345 496 OFFCURVE",
"412 439 OFFCURVE",
"412 353 CURVE SMOOTH",
"412 267 OFFCURVE",
"345 210 OFFCURVE",
"244 210 CURVE SMOOTH",
"142 210 OFFCURVE",
"74 267 OFFCURVE",
"74 353 CURVE SMOOTH",
"74 439 OFFCURVE",
"142 496 OFFCURVE",
"244 496 CURVE SMOOTH"
);
}
);
width = 468;
},
{
anchors = (
{
name = bottom;
position = "{257, -210}";
},
{
name = ogonek;
position = "{387, -193}";
},
{
name = top;
position = "{256, 500}";
}
);
background = {
anchors = (
{
name = bottom;
position = "{265, -210}";
},
{
name = ogonek;
position = "{401, -193}";
},
{
name = top;
position = "{265, 500}";
}
);
paths = (
{
closed = 1;
nodes = (
"509 592 OFFCURVE",
"508 592 OFFCURVE",
"506 592 CURVE SMOOTH",
"432 592 OFFCURVE",
"375 542 OFFCURVE",
"375 465 CURVE",
"419 442 LINE",
"419 500 OFFCURVE",
"455 528 OFFCURVE",
"521 528 CURVE SMOOTH",
"524 528 OFFCURVE",
"526 528 OFFCURVE",
"528 528 CURVE",
"511 592 LINE"
);
},
{
closed = 1;
nodes = (
"213 60 LINE SMOOTH",
"162 60 OFFCURVE",
"131 80 OFFCURVE",
"131 119 CURVE SMOOTH",
"131 153 OFFCURVE",
"160 182 OFFCURVE",
"224 188 CURVE",
"237 188 LINE",
"184 212 LINE",
"105 204 OFFCURVE",
"65 160 OFFCURVE",
"65 108 CURVE SMOOTH",
"65 54 OFFCURVE",
"102 27 OFFCURVE",
"146 15 CURVE",
"152 29 LINE",
"70 22 OFFCURVE",
"35 -26 OFFCURVE",
"35 -79 CURVE SMOOTH",
"35 -155 OFFCURVE",
"114 -215 OFFCURVE",
"269 -215 CURVE SMOOTH",
"405 -215 OFFCURVE",
"509 -154 OFFCURVE",
"509 -58 CURVE SMOOTH",
"509 13 OFFCURVE",
"452 60 OFFCURVE",
"356 60 CURVE SMOOTH"
);
},
{
closed = 1;
nodes = (
"164 -156 OFFCURVE",
"101 -121 OFFCURVE",
"101 -69 CURVE SMOOTH",
"101 -28 OFFCURVE",
"138 -1 OFFCURVE",
"187 -1 CURVE SMOOTH",
"337 -1 LINE SMOOTH",
"414 -1 OFFCURVE",
"444 -26 OFFCURVE",
"444 -66 CURVE SMOOTH",
"444 -114 OFFCURVE",
"385 -156 OFFCURVE",
"269 -156 CURVE SMOOTH"
);
},
{
closed = 1;
nodes = (
"142 510 OFFCURVE",
"58 441 OFFCURVE",
"58 343 CURVE SMOOTH",
"58 244 OFFCURVE",
"132 175 OFFCURVE",
"262 175 CURVE SMOOTH",
"380 175 OFFCURVE",
"465 244 OFFCURVE",
"465 343 CURVE SMOOTH",
"465 441 OFFCURVE",
"381 510 OFFCURVE",
"262 510 CURVE SMOOTH"
);
},
{
closed = 1;
nodes = (
"336 452 OFFCURVE",
"392 408 OFFCURVE",
"392 343 CURVE SMOOTH",
"392 277 OFFCURVE",
"335 233 OFFCURVE",
"262 233 CURVE SMOOTH",
"188 233 OFFCURVE",
"131 277 OFFCURVE",
"131 343 CURVE SMOOTH",
"131 408 OFFCURVE",
"187 452 OFFCURVE",
"262 452 CURVE SMOOTH"
);
}
);
};
hints = (
{
horizontal = 1;
origin = "{0, 13}";
target = down;
type = TopGhost;
}
);
layerId = "F67B2D2A-9F5D-44A5-A579-665B9797A041";
paths = (
{
closed = 1;
nodes = (
"492 592 OFFCURVE",
"491 592 OFFCURVE",
"489 592 CURVE SMOOTH",
"417 592 OFFCURVE",
"362 542 OFFCURVE",
"362 465 CURVE",
"405 442 LINE",
"405 500 OFFCURVE",
"440 528 OFFCURVE",
"503 528 CURVE SMOOTH",
"506 528 OFFCURVE",
"508 528 OFFCURVE",
"510 528 CURVE",
"494 592 LINE"
);
},
{
closed = 1;
nodes = (
"206 60 LINE SMOOTH",
"158 60 OFFCURVE",
"128 80 OFFCURVE",
"128 119 CURVE SMOOTH",
"128 153 OFFCURVE",
"156 182 OFFCURVE",
"217 188 CURVE",
"230 188 LINE",
"178 212 LINE",
"102 204 OFFCURVE",
"64 159 OFFCURVE",
"64 108 CURVE SMOOTH",
"64 55 OFFCURVE",
"99 27 OFFCURVE",
"143 15 CURVE",
"148 29 LINE",
"69 22 OFFCURVE",
"35 -26 OFFCURVE",
"35 -79 CURVE SMOOTH",
"35 -155 OFFCURVE",
"111 -215 OFFCURVE",
"260 -215 CURVE SMOOTH",
"392 -215 OFFCURVE",
"492 -154 OFFCURVE",
"492 -58 CURVE SMOOTH",
"492 13 OFFCURVE",
"437 60 OFFCURVE",
"344 60 CURVE SMOOTH"
);
},
{
closed = 1;
nodes = (
"161 -156 OFFCURVE",
"100 -121 OFFCURVE",
"100 -69 CURVE SMOOTH",
"100 -28 OFFCURVE",
"136 -1 OFFCURVE",
"182 -1 CURVE SMOOTH",
"327 -1 LINE SMOOTH",
"399 -1 OFFCURVE",
"428 -26 OFFCURVE",
"428 -66 CURVE SMOOTH",
"428 -114 OFFCURVE",
"371 -156 OFFCURVE",
"261 -156 CURVE SMOOTH"
);
},
{
closed = 1;
nodes = (
"138 510 OFFCURVE",
"57 441 OFFCURVE",
"57 343 CURVE SMOOTH",
"57 244 OFFCURVE",
"129 175 OFFCURVE",
"254 175 CURVE SMOOTH",
"368 175 OFFCURVE",
"450 244 OFFCURVE",
"450 343 CURVE SMOOTH",
"450 441 OFFCURVE",
"369 510 OFFCURVE",
"254 510 CURVE SMOOTH"
);
},
{
closed = 1;
nodes = (
"324 452 OFFCURVE",
"377 408 OFFCURVE",
"377 343 CURVE SMOOTH",
"377 277 OFFCURVE",
"323 233 OFFCURVE",
"254 233 CURVE SMOOTH",
"184 233 OFFCURVE",
"130 277 OFFCURVE",
"130 343 CURVE SMOOTH",
"130 408 OFFCURVE",
"183 452 OFFCURVE",
"254 452 CURVE SMOOTH"
);
}
);
width = 510;
},
{
anchors = (
{
name = bottom;
position = "{284, -210}";
},
{
name = ogonek;
position = "{410, -197}";
},
{
name = top;
position = "{258, 500}";
}
);
background = {
anchors = (
{
name = bottom;
position = "{286, -210}";
},
{
name = ogonek;
position = "{414, -197}";
},
{
name = top;
position = "{260, 500}";
}
);
paths = (
{
closed = 1;
nodes = (
"539 635 OFFCURVE",
"533 635 OFFCURVE",
"529 635 CURVE SMOOTH",
"432 635 OFFCURVE",
"388 553 OFFCURVE",
"388 470 CURVE",
"448 448 LINE",
"448 491 OFFCURVE",
"476 523 OFFCURVE",
"535 523 CURVE SMOOTH",
"542 523 OFFCURVE",
"550 522 OFFCURVE",
"559 520 CURVE",
"545 634 LINE"
);
},
{
closed = 1;
nodes = (
"214 111 LINE SMOOTH",
"176 111 OFFCURVE",
"158 123 OFFCURVE",
"158 145 CURVE SMOOTH",
"158 167 OFFCURVE",
"177 183 OFFCURVE",
"229 185 CURVE",
"245 185 LINE",
"182 214 LINE",
"99 211 OFFCURVE",
"43 167 OFFCURVE",
"43 103 CURVE SMOOTH",
"43 40 OFFCURVE",
"83 2 OFFCURVE",
"164 -9 CURVE",
"168 7 LINE",
"63 5 OFFCURVE",
"22 -34 OFFCURVE",
"22 -89 CURVE SMOOTH",
"22 -167 OFFCURVE",
"96 -215 OFFCURVE",
"277 -215 CURVE SMOOTH",
"445 -215 OFFCURVE",
"553 -155 OFFCURVE",
"553 -30 CURVE SMOOTH",
"553 61 OFFCURVE",
"488 111 OFFCURVE",
"373 111 CURVE SMOOTH"
);
},
{
closed = 1;
nodes = (
"198 -105 OFFCURVE",
"149 -87 OFFCURVE",
"149 -57 CURVE SMOOTH",
"149 -37 OFFCURVE",
"166 -22 OFFCURVE",
"192 -22 CURVE SMOOTH",
"370 -22 LINE SMOOTH",
"409 -22 OFFCURVE",
"421 -35 OFFCURVE",
"421 -54 CURVE SMOOTH",
"421 -84 OFFCURVE",
"375 -105 OFFCURVE",
"279 -105 CURVE SMOOTH"
);
},
{
closed = 1;
nodes = (
"131 510 OFFCURVE",
"43 448 OFFCURVE",
"43 340 CURVE SMOOTH",
"43 232 OFFCURVE",
"126 171 OFFCURVE",
"284 171 CURVE SMOOTH",
"437 171 OFFCURVE",
"526 232 OFFCURVE",
"526 340 CURVE SMOOTH",
"526 448 OFFCURVE",
"437 510 OFFCURVE",
"284 510 CURVE SMOOTH"
);
},
{
closed = 1;
nodes = (
"328 413 OFFCURVE",
"358 387 OFFCURVE",
"358 340 CURVE SMOOTH",
"358 294 OFFCURVE",
"328 268 OFFCURVE",
"284 268 CURVE SMOOTH",
"240 268 OFFCURVE",
"210 294 OFFCURVE",
"210 340 CURVE SMOOTH",
"210 387 OFFCURVE",
"240 413 OFFCURVE",
"284 413 CURVE SMOOTH"
);
}
);
};
hints = (
{
horizontal = 1;
origin = "{0, 13}";
target = down;
type = TopGhost;
},
{
horizontal = 1;
origin = "{1, 21}";
target = "{2, 12}";
type = Stem;
},
{
horizontal = 1;
origin = "{2, 5}";
target = "{1, 0}";
type = Stem;
},
{
horizontal = 1;
place = "{0, 0}";
type = Stem;
},
{
horizontal = 1;
origin = "{1, 6}";
target = "{1, 8}";
type = Stem;
},
{
place = "{-8, 0}";
type = Stem;
},
{
place = "{-8, 0}";
type = Stem;
}
);
layerId = "8348C28B-C402-4653-9E73-107F95648308";
paths = (
{
closed = 1;
nodes = (
"534 635 OFFCURVE",
"528 635 OFFCURVE",
"524 635 CURVE SMOOTH",
"428 635 OFFCURVE",
"384 553 OFFCURVE",
"384 470 CURVE",
"444 448 LINE",
"444 491 OFFCURVE",
"472 523 OFFCURVE",
"530 523 CURVE SMOOTH",
"536 523 OFFCURVE",
"545 522 OFFCURVE",
"554 520 CURVE",
"540 634 LINE"
);
},
{
closed = 1;
nodes = (
"212 111 LINE SMOOTH",
"175 111 OFFCURVE",
"157 123 OFFCURVE",
"157 145 CURVE SMOOTH",
"157 167 OFFCURVE",
"176 183 OFFCURVE",
"227 185 CURVE",
"243 185 LINE",
"180 214 LINE",
"98 211 OFFCURVE",
"43 166 OFFCURVE",
"43 103 CURVE SMOOTH",
"43 41 OFFCURVE",
"82 2 OFFCURVE",
"163 -9 CURVE",
"167 7 LINE",
"64 5 OFFCURVE",
"22 -33 OFFCURVE",
"22 -89 CURVE SMOOTH",
"22 -167 OFFCURVE",
"96 -215 OFFCURVE",
"275 -215 CURVE SMOOTH",
"441 -215 OFFCURVE",
"548 -155 OFFCURVE",
"548 -30 CURVE SMOOTH",
"548 61 OFFCURVE",
"483 111 OFFCURVE",
"370 111 CURVE SMOOTH"
);
},
{
closed = 1;
nodes = (
"197 -105 OFFCURVE",
"149 -87 OFFCURVE",
"149 -57 CURVE SMOOTH",
"149 -37 OFFCURVE",
"166 -22 OFFCURVE",
"190 -22 CURVE SMOOTH",
"367 -22 LINE SMOOTH",
"402 -22 OFFCURVE",
"416 -33 OFFCURVE",
"416 -54 CURVE SMOOTH",
"416 -84 OFFCURVE",
"371 -105 OFFCURVE",
"277 -105 CURVE SMOOTH"
);
},
{
closed = 1;
nodes = (
"130 510 OFFCURVE",
"43 448 OFFCURVE",
"43 340 CURVE SMOOTH",
"43 232 OFFCURVE",
"125 171 OFFCURVE",
"282 171 CURVE SMOOTH",
"433 171 OFFCURVE",
"522 232 OFFCURVE",
"522 340 CURVE SMOOTH",
"522 448 OFFCURVE",
"433 510 OFFCURVE",
"282 510 CURVE SMOOTH"
);
},
{
closed = 1;
nodes = (
"324 413 OFFCURVE",
"354 387 OFFCURVE",
"354 340 CURVE SMOOTH",
"354 294 OFFCURVE",
"324 268 OFFCURVE",
"282 268 CURVE SMOOTH",
"239 268 OFFCURVE",
"210 294 OFFCURVE",
"210 340 CURVE SMOOTH",
"210 387 OFFCURVE",
"239 413 OFFCURVE",
"282 413 CURVE SMOOTH"
);
}
);
width = 555;
}
);
leftKerningGroup = g;
rightKerningGroup = g;
unicode = 0067;
},
{
color = 3;
glyphname = h;
lastChange = "2022-01-17 02:43:02 +0000";
layers = (
{
anchors = (
{
name = bottom;
position = "{307, 0}";
},
{
name = ogonek;
position = "{467, 0}";
},
{
name = top;
position = "{93, 680}";
}
);
background = {
anchors = (
{
name = bottom;
position = "{323, 0}";
},
{
name = ogonek;
position = "{495, 0}";
},
{
name = top;
position = "{93, 680}";
}
);
paths = (
{
closed = 1;
nodes = (
"101 0 LINE",
"101 302 LINE SMOOTH",
"101 406 OFFCURVE",
"189 497 OFFCURVE",
"306 497 CURVE SMOOTH",
"412 497 OFFCURVE",
"479 435 OFFCURVE",
"479 328 CURVE SMOOTH",
"479 1 LINE",
"495 1 LINE",
"495 330 LINE SMOOTH",
"495 445 OFFCURVE",
"424 511 OFFCURVE",
"309 511 CURVE SMOOTH",
"204 511 OFFCURVE",
"124 450 OFFCURVE",
"101 368 CURVE",
"101 730 LINE",
"85 730 LINE",
"85 0 LINE"
);
}
);
};
layerId = "C00489B0-D6FE-4186-8C18-D0EE90D80B61";
paths = (
{
closed = 1;
nodes = (
"101 0 LINE",
"101 302 LINE SMOOTH",
"101 406 OFFCURVE",
"183 497 OFFCURVE",
"291 497 CURVE SMOOTH",
"388 497 OFFCURVE",
"451 435 OFFCURVE",
"451 328 CURVE SMOOTH",
"451 1 LINE",
"467 1 LINE",
"467 330 LINE SMOOTH",
"467 445 OFFCURVE",
"400 511 OFFCURVE",
"294 511 CURVE SMOOTH",
"197 511 OFFCURVE",
"123 450 OFFCURVE",
"101 368 CURVE",
"101 730 LINE",
"85 730 LINE",
"85 0 LINE"
);
}
);
width = 546;
},
{
anchors = (
{
name = bottom;
position = "{329, 0}";
},
{
name = ogonek;
position = "{509, 0}";
},
{
name = top;
position = "{128, 706}";
}
);
background = {
anchors = (
{
name = bottom;
position = "{340, 0}";
},
{
name = ogonek;
position = "{527, 0}";
},
{
name = top;
position = "{128, 706}";
}
);
paths = (
{
closed = 1;
nodes = (
"164 0 LINE",
"164 270 LINE SMOOTH",
"164 395 OFFCURVE",
"247 447 OFFCURVE",
"325 447 CURVE SMOOTH",
"399 447 OFFCURVE",
"455 407 OFFCURVE",
"455 297 CURVE SMOOTH",
"455 0 LINE",
"527 0 LINE",
"527 321 LINE SMOOTH",
"527 449 OFFCURVE",
"441 510 OFFCURVE",
"333 510 CURVE SMOOTH",
"260 510 OFFCURVE",
"198 481 OFFCURVE",
"164 418 CURVE",
"164 730 LINE",
"92 730 LINE",
"92 0 LINE"
);
}
);
};
layerId = "F67B2D2A-9F5D-44A5-A579-665B9797A041";
paths = (
{
closed = 1;
nodes = (
"164 0 LINE",
"164 270 LINE SMOOTH",
"164 395 OFFCURVE",
"242 447 OFFCURVE",
"315 447 CURVE SMOOTH",
"384 447 OFFCURVE",
"437 407 OFFCURVE",
"437 297 CURVE SMOOTH",
"437 0 LINE",
"509 0 LINE",
"509 321 LINE SMOOTH",
"509 449 OFFCURVE",
"427 510 OFFCURVE",
"325 510 CURVE SMOOTH",
"256 510 OFFCURVE",
"196 481 OFFCURVE",
"164 418 CURVE",
"164 730 LINE",
"92 730 LINE",
"92 0 LINE"
);
}
);
width = 595;
},
{
anchors = (
{
name = bottom;
position = "{316, 0}";
},
{
name = ogonek;
position = "{557, 0}";
},
{
name = top;
position = "{146, 704}";
}
);
background = {
anchors = (
{
name = bottom;
position = "{319, 0}";
},
{
name = ogonek;
position = "{562, 0}";
},
{
name = top;
position = "{146, 704}";
}
);
paths = (
{
closed = 1;
nodes = (
"231 0 LINE",
"231 263 LINE SMOOTH",
"231 347 OFFCURVE",
"272 381 OFFCURVE",
"321 381 CURVE SMOOTH",
"363 381 OFFCURVE",
"392 357 OFFCURVE",
"392 286 CURVE SMOOTH",
"392 0 LINE",
"562 0 LINE",
"562 333 LINE SMOOTH",
"562 449 OFFCURVE",
"492 510 OFFCURVE",
"389 510 CURVE SMOOTH",
"317 510 OFFCURVE",
"261 476 OFFCURVE",
"231 409 CURVE",
"231 712 LINE",
"61 712 LINE",
"61 0 LINE"
);
}
);
};
layerId = "8348C28B-C402-4653-9E73-107F95648308";
paths = (
{
closed = 1;
nodes = (
"231 0 LINE",
"231 263 LINE SMOOTH",
"231 347 OFFCURVE",
"271 381 OFFCURVE",
"318 381 CURVE SMOOTH",
"359 381 OFFCURVE",
"387 356 OFFCURVE",
"387 286 CURVE SMOOTH",
"387 0 LINE",
"557 0 LINE",
"557 333 LINE SMOOTH",
"557 449 OFFCURVE",
"488 510 OFFCURVE",
"387 510 CURVE SMOOTH",
"316 510 OFFCURVE",
"261 476 OFFCURVE",
"231 409 CURVE",
"231 712 LINE",
"61 712 LINE",
"61 0 LINE"
);
}
);
width = 615;
}
);
leftKerningGroup = h;
rightKerningGroup = n;
unicode = 0068;
},
{
color = 8;
glyphname = idotless;
lastChange = "2022-01-02 01:25:12 +0000";
layers = (
{
anchors = (
{
name = bottom;
position = "{128, 0}";
},
{
name = ogonek;
position = "{164, 0}";
},
{
name = top;
position = "{128, 500}";
}
);
hints = (
{
horizontal = 1;
origin = "{0, 1}";
target = up;
type = BottomGhost;
},
{
horizontal = 1;
origin = "{0, 0}";
target = down;
type = TopGhost;
},
{
origin = "{0, 1}";
target = "{0, 2}";
type = Stem;
}
);
layerId = "F67B2D2A-9F5D-44A5-A579-665B9797A041";
paths = (
{
closed = 1;
nodes = (
"92 500 LINE",
"92 0 LINE",
"164 0 LINE",
"164 500 LINE"
);
}
);
width = 256;
},
{
anchors = (
{
name = bottom;
position = "{93, 0}";
},
{
name = ogonek;
position = "{101, 0}";
},
{
name = top;
position = "{93, 500}";
}
);
hints = (
{
horizontal = 1;
origin = "{0, 1}";
target = up;
type = BottomGhost;
},
{
horizontal = 1;
origin = "{0, 0}";
target = down;
type = TopGhost;
},
{
origin = "{0, 1}";
target = "{0, 2}";
type = Stem;
}
);
layerId = "C00489B0-D6FE-4186-8C18-D0EE90D80B61";
paths = (
{
closed = 1;
nodes = (
"85 500 LINE",
"85 0 LINE",
"101 0 LINE",
"101 500 LINE"
);
}
);
width = 186;
},
{
anchors = (
{
name = bottom;
position = "{146, 0}";
},
{
name = ogonek;
position = "{231, 0}";
},
{
name = top;
position = "{146, 500}";
}
);
hints = (
{
horizontal = 1;
origin = "{0, 1}";
target = up;
type = BottomGhost;
},
{
horizontal = 1;
origin = "{0, 0}";
target = down;
type = TopGhost;
},
{
origin = "{0, 1}";
target = "{0, 2}";
type = Stem;
}
);
layerId = "8348C28B-C402-4653-9E73-107F95648308";
paths = (
{
closed = 1;
nodes = (
"61 500 LINE",
"61 0 LINE",
"231 0 LINE",
"231 500 LINE"
);
}
);
width = 291;
}
);
leftKerningGroup = i;
rightKerningGroup = i;
unicode = 0131;
},
{
color = 8;
glyphname = idieresis;
lastChange = "2022-01-02 01:25:12 +0000";
layers = (
{
components = (
{
alignment = -1;
name = idotless;
}
);
layerId = "C00489B0-D6FE-4186-8C18-D0EE90D80B61";
paths = (
{
closed = 1;
nodes = (
"156 598 OFFCURVE",
"165 607 OFFCURVE",
"165 620 CURVE SMOOTH",
"165 633 OFFCURVE",
"156 642 OFFCURVE",
"143 642 CURVE SMOOTH",
"130 642 OFFCURVE",
"121 633 OFFCURVE",
"121 620 CURVE SMOOTH",
"121 607 OFFCURVE",
"130 598 OFFCURVE",
"143 598 CURVE SMOOTH"
);
},
{
closed = 1;
nodes = (
"56 598 OFFCURVE",
"65 607 OFFCURVE",
"65 620 CURVE SMOOTH",
"65 633 OFFCURVE",
"56 642 OFFCURVE",
"43 642 CURVE SMOOTH",
"30 642 OFFCURVE",
"21 633 OFFCURVE",
"21 620 CURVE SMOOTH",
"21 607 OFFCURVE",
"30 598 OFFCURVE",
"43 598 CURVE SMOOTH"
);
}
);
width = 186;
},
{
components = (
{
alignment = -1;
name = idotless;
}
);
hints = (
{
horizontal = 1;
origin = "{1, 11}";
target = "{1, 5}";
type = Stem;
}
);
layerId = "F67B2D2A-9F5D-44A5-A579-665B9797A041";
paths = (
{
closed = 1;
nodes = (
"236 584 OFFCURVE",
"257 605 OFFCURVE",
"257 637 CURVE SMOOTH",
"257 668 OFFCURVE",
"236 689 OFFCURVE",
"204 689 CURVE SMOOTH",
"172 689 OFFCURVE",
"151 668 OFFCURVE",
"151 637 CURVE SMOOTH",
"151 605 OFFCURVE",
"172 584 OFFCURVE",
"204 584 CURVE SMOOTH"
);
},
{
closed = 1;
nodes = (
"84 584 OFFCURVE",
"105 605 OFFCURVE",
"105 637 CURVE SMOOTH",
"105 668 OFFCURVE",
"84 689 OFFCURVE",
"52 689 CURVE SMOOTH",
"20 689 OFFCURVE",
"-1 668 OFFCURVE",
"-1 637 CURVE SMOOTH",
"-1 605 OFFCURVE",
"20 584 OFFCURVE",
"52 584 CURVE SMOOTH"
);
}
);
width = 256;
},
{
components = (
{
alignment = -1;
name = idotless;
}
);
hints = (
{
horizontal = 1;
origin = "{1, 11}";
target = "{1, 5}";
type = Stem;
}
);
layerId = "8348C28B-C402-4653-9E73-107F95648308";
paths = (
{
closed = 1;
nodes = (
"294 554 OFFCURVE",
"322 582 OFFCURVE",
"322 633 CURVE SMOOTH",
"322 684 OFFCURVE",
"294 712 OFFCURVE",
"242 712 CURVE SMOOTH",
"189 712 OFFCURVE",
"161 684 OFFCURVE",
"161 633 CURVE SMOOTH",
"161 582 OFFCURVE",
"189 554 OFFCURVE",
"242 554 CURVE SMOOTH"
);
},
{
closed = 1;
nodes = (
"102 554 OFFCURVE",
"130 582 OFFCURVE",
"130 633 CURVE SMOOTH",
"130 684 OFFCURVE",
"102 712 OFFCURVE",
"49 712 CURVE SMOOTH",
"-3 712 OFFCURVE",
"-31 684 OFFCURVE",
"-31 633 CURVE SMOOTH",
"-31 582 OFFCURVE",
"-3 554 OFFCURVE",
"49 554 CURVE SMOOTH"
);
}
);
width = 291;
}
);
leftKerningGroup = i;
rightKerningGroup = i;
unicode = 00EF;
},
{
color = 8;
glyphname = jdotless;
lastChange = "2022-01-03 13:47:19 +0000";
layers = (
{
anchors = (
{
name = top;
position = "{93, 500}";
}
);
layerId = "C00489B0-D6FE-4186-8C18-D0EE90D80B61";
paths = (
{
closed = 1;
nodes = (
"49 -215 OFFCURVE",
"101 -156 OFFCURVE",
"101 -64 CURVE SMOOTH",
"101 500 LINE",
"85 500 LINE",
"85 -64 LINE SMOOTH",
"85 -147 OFFCURVE",
"39 -201 OFFCURVE",
"-31 -201 CURVE SMOOTH",
"-55 -201 OFFCURVE",
"-81 -194 OFFCURVE",
"-97 -179 CURVE",
"-102 -193 LINE",
"-86 -207 OFFCURVE",
"-59 -215 OFFCURVE",
"-31 -215 CURVE SMOOTH"
);
}
);
width = 186;
},
{
anchors = (
{
name = top;
position = "{110, 500}";
}
);
layerId = "F67B2D2A-9F5D-44A5-A579-665B9797A041";
paths = (
{
closed = 1;
nodes = (
"74 -215 OFFCURVE",
"146 -174 OFFCURVE",
"146 -53 CURVE SMOOTH",
"146 500 LINE",
"74 500 LINE",
"74 -46 LINE SMOOTH",
"74 -117 OFFCURVE",
"45 -145 OFFCURVE",
"4 -145 CURVE SMOOTH",
"-26 -145 OFFCURVE",
"-51 -132 OFFCURVE",
"-67 -115 CURVE",
"-82 -183 LINE",
"-61 -202 OFFCURVE",
"-29 -215 OFFCURVE",
"8 -215 CURVE SMOOTH"
);
}
);
width = 238;
},
{
anchors = (
{
name = top;
position = "{146, 500}";
}
);
layerId = "8348C28B-C402-4653-9E73-107F95648308";
paths = (
{
closed = 1;
nodes = (
"157 -215 OFFCURVE",
"231 -163 OFFCURVE",
"231 -28 CURVE SMOOTH",
"231 500 LINE",
"61 500 LINE",
"61 -13 LINE SMOOTH",
"61 -72 OFFCURVE",
"34 -92 OFFCURVE",
"-6 -92 CURVE SMOOTH",
"-34 -92 OFFCURVE",
"-55 -84 OFFCURVE",
"-70 -73 CURVE",
"-94 -183 LINE",
"-60 -204 OFFCURVE",
"-17 -215 OFFCURVE",
"37 -215 CURVE SMOOTH"
);
}
);
width = 291;
}
);
rightMetricsKey = "=idotless";
unicode = 0237;
},
{
color = 8;
glyphname = k;
lastChange = "2022-01-17 02:44:33 +0000";
layers = (
{
anchors = (
{
name = bottom;
position = "{293, 0}";
},
{
name = top;
position = "{93, 680}";
}
);
layerId = "C00489B0-D6FE-4186-8C18-D0EE90D80B61";
paths = (
{
closed = 1;
nodes = (
"414 500 LINE",
"93 177 LINE",
"93 155 LINE",
"226 289 LINE",
"230 292 LINE",
"437 500 LINE"
);
},
{
closed = 1;
nodes = (
"85 730 LINE",
"85 0 LINE",
"101 0 LINE",
"101 730 LINE"
);
},
{
closed = 1;
nodes = (
"218 291 LINE",
"422 0 LINE",
"442 0 LINE",
"230 302 LINE"
);
}
);
width = 454;
},
{
anchors = (
{
name = bottom;
position = "{304, 0}";
},
{
name = top;
position = "{128, 698}";
}
);
layerId = "F67B2D2A-9F5D-44A5-A579-665B9797A041";
paths = (
{
closed = 1;
nodes = (
"416 500 LINE",
"130 198 LINE",
"130 108 LINE",
"283 268 LINE",
"300 285 LINE",
"507 500 LINE"
);
},
{
closed = 1;
nodes = (
"92 730 LINE",
"92 0 LINE",
"164 0 LINE",
"164 730 LINE"
);
},
{
closed = 1;
nodes = (
"247 281 LINE",
"430 0 LINE",
"517 0 LINE",
"306 322 LINE"
);
}
);
width = 538;
},
{
anchors = (
{
name = bottom;
position = "{325, 0}";
},
{
name = top;
position = "{146, 700}";
}
);
layerId = "8348C28B-C402-4653-9E73-107F95648308";
paths = (
{
closed = 1;
nodes = (
"416 500 LINE",
"194 249 LINE",
"195 75 LINE",
"336 235 LINE",
"368 244 LINE",
"605 500 LINE"
);
},
{
closed = 1;
nodes = (
"61 712 LINE",
"61 0 LINE",
"231 0 LINE",
"231 712 LINE"
);
},
{
closed = 1;
nodes = (
"283 250 LINE",
"428 0 LINE",
"616 0 LINE",
"394 350 LINE"
);
}
);
width = 617;
}
);
leftKerningGroup = h;
leftMetricsKey = n;
rightKerningGroup = k;
unicode = 006B;
},
{
color = 3;
glyphname = l;
lastChange = "2022-01-17 02:43:02 +0000";
layers = (
{
anchors = (
{
name = bottom;
position = "{144, 0}";
},
{
name = center;
position = "{190, 360}";
},
{
name = ogonek;
position = "{193, 0}";
},
{
name = top;
position = "{89, 730}";
},
{
name = topright;
position = "{185, 730}";
}
);
background = {
anchors = (
{
name = bottom;
position = "{159, 0}";
},
{
name = center;
position = "{216, 360}";
},
{
name = ogonek;
position = "{221, 0}";
},
{
name = top;
position = "{89, 730}";
},
{
name = topright;
position = "{211, 730}";
}
);
paths = (
{
closed = 1;
nodes = (
"81 730 LINE",
"81 107 LINE SMOOTH",
"81 25 OFFCURVE",
"111 -10 OFFCURVE",
"170 -10 CURVE SMOOTH",
"196 -10 OFFCURVE",
"215 -5 OFFCURVE",
"228 2 CURVE",
"228 16 LINE",
"212 8 OFFCURVE",
"199 4 OFFCURVE",
"170 4 CURVE SMOOTH",
"121 4 OFFCURVE",
"97 34 OFFCURVE",
"97 107 CURVE SMOOTH",
"97 730 LINE"
);
}
);
};
layerId = "C00489B0-D6FE-4186-8C18-D0EE90D80B61";
paths = (
{
closed = 1;
nodes = (
"81 730 LINE",
"81 107 LINE SMOOTH",
"81 33 OFFCURVE",
"100 -10 OFFCURVE",
"153 -10 CURVE SMOOTH",
"173 -10 OFFCURVE",
"189 -5 OFFCURVE",
"199 2 CURVE",
"200 16 LINE",
"187 8 OFFCURVE",
"176 4 OFFCURVE",
"154 4 CURVE SMOOTH",
"112 4 OFFCURVE",
"97 41 OFFCURVE",
"97 107 CURVE SMOOTH",
"97 730 LINE"
);
}
);
width = 209;
},
{
anchors = (
{
name = bottom;
position = "{184, 0}";
},
{
name = center;
position = "{247, 365}";
},
{
name = ogonek;
position = "{243, 0}";
},
{
name = top;
position = "{123, 730}";
},
{
name = topright;
position = "{230, 730}";
}
);
background = {
anchors = (
{
name = bottom;
position = "{194, 0}";
},
{
name = center;
position = "{262, 365}";
},
{
name = ogonek;
position = "{260, 0}";
},
{
name = top;
position = "{124, 730}";
},
{
name = topright;
position = "{242, 730}";
}
);
paths = (
{
closed = 1;
nodes = (
"88 730 LINE",
"88 122 LINE SMOOTH",
"88 32 OFFCURVE",
"126 -10 OFFCURVE",
"204 -10 CURVE SMOOTH",
"230 -10 OFFCURVE",
"256 -5 OFFCURVE",
"276 4 CURVE",
"288 67 LINE",
"260 56 OFFCURVE",
"248 53 OFFCURVE",
"221 53 CURVE SMOOTH",
"179 53 OFFCURVE",
"160 71 OFFCURVE",
"160 125 CURVE SMOOTH",
"160 730 LINE"
);
}
);
};
layerId = "F67B2D2A-9F5D-44A5-A579-665B9797A041";
paths = (
{
closed = 1;
nodes = (
"88 730 LINE",
"88 122 LINE SMOOTH",
"88 45 OFFCURVE",
"113 -10 OFFCURVE",
"193 -10 CURVE SMOOTH",
"216 -10 OFFCURVE",
"242 -5 OFFCURVE",
"260 4 CURVE",
"270 67 LINE",
"246 56 OFFCURVE",
"236 53 OFFCURVE",
"213 53 CURVE SMOOTH",
"172 53 OFFCURVE",
"160 77 OFFCURVE",
"160 125 CURVE SMOOTH",
"160 730 LINE"
);
}
);
width = 279;
},
{
anchors = (
{
name = bottom;
position = "{192, 0}";
},
{
name = center;
position = "{290, 358}";
},
{
name = ogonek;
position = "{268, 0}";
},
{
name = top;
position = "{138, 712}";
},
{
name = topright;
position = "{285, 712}";
}
);
background = {
anchors = (
{
name = bottom;
position = "{195, 0}";
},
{
name = center;
position = "{294, 358}";
},
{
name = ogonek;
position = "{273, 0}";
},
{
name = top;
position = "{138, 712}";
},
{
name = topright;
position = "{289, 712}";
}
);
paths = (
{
closed = 1;
nodes = (
"59 712 LINE",
"59 148 LINE SMOOTH",
"59 37 OFFCURVE",
"104 -10 OFFCURVE",
"211 -10 CURVE SMOOTH",
"248 -10 OFFCURVE",
"291 0 OFFCURVE",
"315 15 CURVE",
"326 117 LINE",
"308 111 OFFCURVE",
"297 109 OFFCURVE",
"277 109 CURVE SMOOTH",
"242 109 OFFCURVE",
"229 126 OFFCURVE",
"229 170 CURVE SMOOTH",
"229 712 LINE"
);
}
);
};
layerId = "8348C28B-C402-4653-9E73-107F95648308";
paths = (
{
closed = 1;
nodes = (
"59 712 LINE",
"59 148 LINE SMOOTH",
"59 48 OFFCURVE",
"94 -10 OFFCURVE",
"208 -10 CURVE SMOOTH",
"243 -10 OFFCURVE",
"287 0 OFFCURVE",
"310 15 CURVE",
"321 117 LINE",
"304 111 OFFCURVE",
"293 109 OFFCURVE",
"274 109 CURVE SMOOTH",
"239 109 OFFCURVE",
"229 130 OFFCURVE",
"229 170 CURVE SMOOTH",
"229 712 LINE"
);
}
);
width = 322;
}
);
leftKerningGroup = l;
rightKerningGroup = l;
unicode = 006C;
},
{
color = 8;
glyphname = m;
lastChange = "2022-01-17 02:44:33 +0000";
layers = (
{
anchors = (
{
name = bottom;
position = "{473, 0}";
},
{
name = ogonek;
position = "{861, 2}";
},
{
name = top;
position = "{473, 500}";
}
);
layerId = "C00489B0-D6FE-4186-8C18-D0EE90D80B61";
paths = (
{
closed = 1;
nodes = (
"101 0 LINE",
"101 301 LINE SMOOTH",
"101 405 OFFCURVE",
"186 496 OFFCURVE",
"298 496 CURVE SMOOTH",
"400 496 OFFCURVE",
"465 434 OFFCURVE",
"465 327 CURVE SMOOTH",
"465 0 LINE",
"481 0 LINE",
"481 303 LINE SMOOTH",
"481 407 OFFCURVE",
"566 498 OFFCURVE",
"678 498 CURVE SMOOTH",
"780 498 OFFCURVE",
"845 436 OFFCURVE",
"845 329 CURVE SMOOTH",
"845 2 LINE",
"861 2 LINE",
"861 331 LINE SMOOTH",
"861 446 OFFCURVE",
"792 512 OFFCURVE",
"681 512 CURVE SMOOTH",
"578 512 OFFCURVE",
"498 447 OFFCURVE",
"479 361 CURVE",
"467 456 OFFCURVE",
"401 510 OFFCURVE",
"301 510 CURVE SMOOTH",
"201 510 OFFCURVE",
"123 449 OFFCURVE",
"101 367 CURVE",
"101 500 LINE",
"85 500 LINE",
"85 0 LINE"
);
}
);
width = 940;
},
{
anchors = (
{
name = bottom;
position = "{471, 0}";
},
{
name = ogonek;
position = "{850, 0}";
},
{
name = top;
position = "{471, 500}";
}
);
guideLines = (
{
position = "{193, 423}";
}
);
layerId = "F67B2D2A-9F5D-44A5-A579-665B9797A041";
paths = (
{
closed = 1;
nodes = (
"164 0 LINE",
"164 271 LINE SMOOTH",
"164 393 OFFCURVE",
"245 447 OFFCURVE",
"314 447 CURVE SMOOTH",
"382 447 OFFCURVE",
"435 407 OFFCURVE",
"435 314 CURVE SMOOTH",
"435 0 LINE",
"507 0 LINE",
"507 278 LINE SMOOTH",
"507 384 OFFCURVE",
"577 447 OFFCURVE",
"657 447 CURVE SMOOTH",
"725 447 OFFCURVE",
"778 407 OFFCURVE",
"778 314 CURVE SMOOTH",
"778 0 LINE",
"850 0 LINE",
"850 321 LINE SMOOTH",
"850 451 OFFCURVE",
"760 510 OFFCURVE",
"665 510 CURVE SMOOTH",
"598 510 OFFCURVE",
"520 476 OFFCURVE",
"490 406 CURVE",
"461 476 OFFCURVE",
"394 510 OFFCURVE",
"322 510 CURVE SMOOTH",
"256 510 OFFCURVE",
"193 479 OFFCURVE",
"160 415 CURVE",
"155 500 LINE",
"92 500 LINE",
"92 0 LINE"
);
}
);
width = 937;
},
{
anchors = (
{
name = bottom;
position = "{470, 0}";
},
{
name = ogonek;
position = "{876, 0}";
},
{
name = top;
position = "{470, 500}";
}
);
guideLines = (
{
position = "{193, 423}";
}
);
layerId = "8348C28B-C402-4653-9E73-107F95648308";
paths = (
{
closed = 1;
nodes = (
"231 0 LINE",
"231 264 LINE SMOOTH",
"231 346 OFFCURVE",
"272 380 OFFCURVE",
"318 380 CURVE SMOOTH",
"357 380 OFFCURVE",
"385 356 OFFCURVE",
"385 294 CURVE SMOOTH",
"385 0 LINE",
"555 0 LINE",
"555 267 LINE SMOOTH",
"555 342 OFFCURVE",
"591 380 OFFCURVE",
"641 380 CURVE SMOOTH",
"681 380 OFFCURVE",
"708 357 OFFCURVE",
"708 294 CURVE SMOOTH",
"708 0 LINE",
"878 0 LINE",
"878 333 LINE SMOOTH",
"878 450 OFFCURVE",
"805 510 OFFCURVE",
"708 510 CURVE SMOOTH",
"638 510 OFFCURVE",
"572 476 OFFCURVE",
"542 411 CURVE",
"516 476 OFFCURVE",
"457 510 OFFCURVE",
"385 510 CURVE SMOOTH",
"310 510 OFFCURVE",
"250 473 OFFCURVE",
"218 403 CURVE",
"213 500 LINE",
"61 500 LINE",
"61 0 LINE"
);
}
);
width = 936;
}
);
leftKerningGroup = n;
leftMetricsKey = n;
rightKerningGroup = n;
unicode = 006D;
},
{
color = 3;
glyphname = n;
lastChange = "2022-01-17 02:43:02 +0000";
layers = (
{
anchors = (
{
name = bottom;
position = "{307, 0}";
},
{
name = ogonek;
position = "{467, 0}";
},
{
name = top;
position = "{279, 500}";
}
);
background = {
anchors = (
{
name = bottom;
position = "{323, 0}";
},
{
name = ogonek;
position = "{495, 0}";
},
{
name = top;
position = "{293, 500}";
}
);
paths = (
{
closed = 1;
nodes = (
"101 0 LINE",
"101 301 LINE SMOOTH",
"101 405 OFFCURVE",
"189 496 OFFCURVE",
"306 496 CURVE SMOOTH",
"412 496 OFFCURVE",
"479 434 OFFCURVE",
"479 327 CURVE SMOOTH",
"479 0 LINE",
"495 0 LINE",
"495 329 LINE SMOOTH",
"495 444 OFFCURVE",
"424 510 OFFCURVE",
"309 510 CURVE SMOOTH",
"202 510 OFFCURVE",
"121 447 OFFCURVE",
"100 363 CURVE",
"101 360 LINE",
"101 500 LINE",
"85 500 LINE",
"85 0 LINE"
);
}
);
};
layerId = "C00489B0-D6FE-4186-8C18-D0EE90D80B61";
paths = (
{
closed = 1;
nodes = (
"101 0 LINE",
"101 301 LINE SMOOTH",
"101 405 OFFCURVE",
"183 496 OFFCURVE",
"291 496 CURVE SMOOTH",
"388 496 OFFCURVE",
"451 434 OFFCURVE",
"451 327 CURVE SMOOTH",
"451 0 LINE",
"467 0 LINE",
"467 329 LINE SMOOTH",
"467 444 OFFCURVE",
"400 510 OFFCURVE",
"294 510 CURVE SMOOTH",
"197 510 OFFCURVE",
"120 449 OFFCURVE",
"100 363 CURVE",
"101 360 LINE",
"101 500 LINE",
"85 500 LINE",
"85 0 LINE"
);
}
);
width = 546;
},
{
anchors = (
{
name = bottom;
position = "{329, 0}";
},
{
name = ogonek;
position = "{509, 0}";
},
{
name = top;
position = "{306, 500}";
}
);
background = {
anchors = (
{
name = bottom;
position = "{340, 0}";
},
{
name = ogonek;
position = "{527, 0}";
},
{
name = top;
position = "{315, 500}";
}
);
paths = (
{
closed = 1;
nodes = (
"164 0 LINE",
"164 270 LINE SMOOTH",
"164 395 OFFCURVE",
"247 447 OFFCURVE",
"325 447 CURVE SMOOTH",
"399 447 OFFCURVE",
"455 407 OFFCURVE",
"455 296 CURVE SMOOTH",
"455 0 LINE",
"527 0 LINE",
"527 321 LINE SMOOTH",
"527 448 OFFCURVE",
"441 510 OFFCURVE",
"333 510 CURVE SMOOTH",
"252 510 OFFCURVE",
"180 475 OFFCURVE",
"150 395 CURVE",
"161 385 LINE",
"155 500 LINE",
"92 500 LINE",
"92 0 LINE"
);
}
);
};
layerId = "F67B2D2A-9F5D-44A5-A579-665B9797A041";
paths = (
{
closed = 1;
nodes = (
"164 0 LINE",
"164 270 LINE SMOOTH",
"164 395 OFFCURVE",
"242 447 OFFCURVE",
"315 447 CURVE SMOOTH",
"384 447 OFFCURVE",
"437 407 OFFCURVE",
"437 296 CURVE SMOOTH",
"437 0 LINE",
"509 0 LINE",
"509 321 LINE SMOOTH",
"509 448 OFFCURVE",
"427 510 OFFCURVE",
"325 510 CURVE SMOOTH",
"248 510 OFFCURVE",
"178 475 OFFCURVE",
"150 395 CURVE",
"161 385 LINE",
"155 500 LINE",
"92 500 LINE",
"92 0 LINE"
);
}
);
width = 595;
},
{
anchors = (
{
name = bottom;
position = "{316, 0}";
},
{
name = ogonek;
position = "{557, 0}";
},
{
name = top;
position = "{310, 500}";
}
);
background = {
anchors = (
{
name = bottom;
position = "{319, 0}";
},
{
name = ogonek;
position = "{562, 0}";
},
{
name = top;
position = "{313, 500}";
}
);
paths = (
{
closed = 1;
nodes = (
"231 0 LINE",
"231 265 LINE SMOOTH",
"231 348 OFFCURVE",
"272 380 OFFCURVE",
"321 380 CURVE SMOOTH",
"363 380 OFFCURVE",
"392 357 OFFCURVE",
"392 288 CURVE SMOOTH",
"392 0 LINE",
"562 0 LINE",
"562 333 LINE SMOOTH",
"562 449 OFFCURVE",
"492 510 OFFCURVE",
"389 510 CURVE SMOOTH",
"291 510 OFFCURVE",
"223 454 OFFCURVE",
"203 347 CURVE",
"222 328 LINE",
"213 500 LINE",
"61 500 LINE",
"61 0 LINE"
);
}
);
};
layerId = "8348C28B-C402-4653-9E73-107F95648308";
paths = (
{
closed = 1;
nodes = (
"231 0 LINE",
"231 265 LINE SMOOTH",
"231 348 OFFCURVE",
"271 380 OFFCURVE",
"318 380 CURVE SMOOTH",
"359 380 OFFCURVE",
"387 356 OFFCURVE",
"387 288 CURVE SMOOTH",
"387 0 LINE",
"557 0 LINE",
"557 333 LINE SMOOTH",
"557 449 OFFCURVE",
"488 510 OFFCURVE",
"387 510 CURVE SMOOTH",
"290 510 OFFCURVE",
"223 454 OFFCURVE",
"203 347 CURVE",
"222 328 LINE",
"213 500 LINE",
"61 500 LINE",
"61 0 LINE"
);
}
);
width = 615;
}
);
leftKerningGroup = n;
rightKerningGroup = n;
unicode = 006E;
},
{
color = 3;
glyphname = o;
lastChange = "2022-01-17 02:43:02 +0000";
layers = (
{
anchors = (
{
name = bottom;
position = "{271, 0}";
},
{
name = center;
position = "{271, 250}";
},
{
name = ogonek;
position = "{361, 9}";
},
{
name = top;
position = "{271, 496}";
},
{
name = topright;
position = "{396, 500}";
}
);
background = {
anchors = (
{
name = bottom;
position = "{285, 0}";
},
{
name = center;
position = "{285, 250}";
},
{
name = ogonek;
position = "{381, 9}";
},
{
name = top;
position = "{285, 496}";
},
{
name = topright;
position = "{418, 500}";
}
);
paths = (
{
closed = 1;
nodes = (
"147 510 OFFCURVE",
"51 412 OFFCURVE",
"51 250 CURVE SMOOTH",
"51 88 OFFCURVE",
"147 -10 OFFCURVE",
"285 -10 CURVE SMOOTH",
"423 -10 OFFCURVE",
"518 88 OFFCURVE",
"518 250 CURVE SMOOTH",
"518 412 OFFCURVE",
"423 510 OFFCURVE",
"285 510 CURVE SMOOTH"
);
},
{
closed = 1;
nodes = (
"413 496 OFFCURVE",
"502 403 OFFCURVE",
"502 250 CURVE SMOOTH",
"502 97 OFFCURVE",
"413 4 OFFCURVE",
"285 4 CURVE SMOOTH",
"157 4 OFFCURVE",
"67 97 OFFCURVE",
"67 250 CURVE SMOOTH",
"67 403 OFFCURVE",
"157 496 OFFCURVE",
"285 496 CURVE SMOOTH"
);
}
);
};
layerId = "C00489B0-D6FE-4186-8C18-D0EE90D80B61";
paths = (
{
closed = 1;
nodes = (
"142 510 OFFCURVE",
"51 412 OFFCURVE",
"51 250 CURVE SMOOTH",
"51 88 OFFCURVE",
"142 -10 OFFCURVE",
"271 -10 CURVE SMOOTH",
"400 -10 OFFCURVE",
"490 88 OFFCURVE",
"490 250 CURVE SMOOTH",
"490 412 OFFCURVE",
"400 510 OFFCURVE",
"271 510 CURVE SMOOTH"
);
},
{
closed = 1;
nodes = (
"390 496 OFFCURVE",
"474 403 OFFCURVE",
"474 250 CURVE SMOOTH",
"474 97 OFFCURVE",
"390 4 OFFCURVE",
"271 4 CURVE SMOOTH",
"151 4 OFFCURVE",
"67 98 OFFCURVE",
"67 250 CURVE SMOOTH",
"67 402 OFFCURVE",
"151 496 OFFCURVE",
"271 496 CURVE SMOOTH"
);
}
);
width = 541;
},
{
anchors = (
{
name = bottom;
position = "{289, 0}";
},
{
name = center;
position = "{289, 250}";
},
{
name = ogonek;
position = "{393, 13}";
},
{
name = top;
position = "{289, 500}";
},
{
name = topright;
position = "{430, 500}";
}
);
background = {
anchors = (
{
name = bottom;
position = "{298, 0}";
},
{
name = center;
position = "{298, 250}";
},
{
name = ogonek;
position = "{406, 13}";
},
{
name = top;
position = "{298, 500}";
},
{
name = topright;
position = "{444, 500}";
}
);
paths = (
{
closed = 1;
nodes = (
"158 510 OFFCURVE",
"57 412 OFFCURVE",
"57 250 CURVE SMOOTH",
"57 88 OFFCURVE",
"158 -10 OFFCURVE",
"298 -10 CURVE SMOOTH",
"439 -10 OFFCURVE",
"539 88 OFFCURVE",
"539 250 CURVE SMOOTH",
"539 412 OFFCURVE",
"439 510 OFFCURVE",
"298 510 CURVE SMOOTH"
);
},
{
closed = 1;
nodes = (
"403 448 OFFCURVE",
"467 373 OFFCURVE",
"467 250 CURVE SMOOTH",
"467 127 OFFCURVE",
"403 52 OFFCURVE",
"298 52 CURVE SMOOTH",
"194 52 OFFCURVE",
"129 127 OFFCURVE",
"129 250 CURVE SMOOTH",
"129 373 OFFCURVE",
"194 448 OFFCURVE",
"298 448 CURVE SMOOTH"
);
}
);
};
layerId = "F67B2D2A-9F5D-44A5-A579-665B9797A041";
paths = (
{
closed = 1;
nodes = (
"155 510 OFFCURVE",
"57 412 OFFCURVE",
"57 250 CURVE SMOOTH",
"57 88 OFFCURVE",
"155 -10 OFFCURVE",
"289 -10 CURVE SMOOTH",
"424 -10 OFFCURVE",
"521 88 OFFCURVE",
"521 250 CURVE SMOOTH",
"521 412 OFFCURVE",
"424 510 OFFCURVE",
"289 510 CURVE SMOOTH"
);
},
{
closed = 1;
nodes = (
"388 448 OFFCURVE",
"449 373 OFFCURVE",
"449 250 CURVE SMOOTH",
"449 127 OFFCURVE",
"388 52 OFFCURVE",
"289 52 CURVE SMOOTH",
"191 52 OFFCURVE",
"129 127 OFFCURVE",
"129 250 CURVE SMOOTH",
"129 373 OFFCURVE",
"191 448 OFFCURVE",
"289 448 CURVE SMOOTH"
);
}
);
width = 578;
},
{
anchors = (
{
name = bottom;
position = "{296, 0}";
},
{
name = center;
position = "{296, 250}";
},
{
name = ogonek;
position = "{416, 12}";
},
{
name = top;
position = "{296, 500}";
},
{
name = topright;
position = "{463, 500}";
}
);
background = {
anchors = (
{
name = bottom;
position = "{299, 0}";
},
{
name = center;
position = "{299, 250}";
},
{
name = ogonek;
position = "{420, 12}";
},
{
name = top;
position = "{299, 500}";
},
{
name = topright;
position = "{467, 500}";
}
);
paths = (
{
closed = 1;
nodes = (
"143 510 OFFCURVE",
"35 414 OFFCURVE",
"35 250 CURVE SMOOTH",
"35 86 OFFCURVE",
"143 -10 OFFCURVE",
"299 -10 CURVE SMOOTH",
"456 -10 OFFCURVE",
"564 86 OFFCURVE",
"564 250 CURVE SMOOTH",
"564 414 OFFCURVE",
"456 510 OFFCURVE",
"299 510 CURVE SMOOTH"
);
},
{
closed = 1;
nodes = (
"358 389 OFFCURVE",
"393 348 OFFCURVE",
"393 250 CURVE SMOOTH",
"393 152 OFFCURVE",
"358 111 OFFCURVE",
"299 111 CURVE SMOOTH",
"240 111 OFFCURVE",
"206 152 OFFCURVE",
"206 250 CURVE SMOOTH",
"206 348 OFFCURVE",
"240 389 OFFCURVE",
"299 389 CURVE SMOOTH"
);
}
);
};
layerId = "8348C28B-C402-4653-9E73-107F95648308";
paths = (
{
closed = 1;
nodes = (
"142 510 OFFCURVE",
"35 414 OFFCURVE",
"35 250 CURVE SMOOTH",
"35 86 OFFCURVE",
"142 -10 OFFCURVE",
"296 -10 CURVE SMOOTH",
"452 -10 OFFCURVE",
"559 86 OFFCURVE",
"559 250 CURVE SMOOTH",
"559 414 OFFCURVE",
"452 510 OFFCURVE",
"296 510 CURVE SMOOTH"
);
},
{
closed = 1;
nodes = (
"354 389 OFFCURVE",
"388 347 OFFCURVE",
"388 250 CURVE SMOOTH",
"388 153 OFFCURVE",
"354 111 OFFCURVE",
"296 111 CURVE SMOOTH",
"239 111 OFFCURVE",
"206 152 OFFCURVE",
"206 250 CURVE SMOOTH",
"206 348 OFFCURVE",
"239 389 OFFCURVE",
"296 389 CURVE SMOOTH"
);
}
);
width = 594;
}
);
leftKerningGroup = o;
rightKerningGroup = o;
unicode = 006F;
},
{
color = 8;
glyphname = oe;
lastChange = "2022-01-17 02:46:39 +0000";
layers = (
{
anchors = (
{
name = bottom;
position = "{496, 0}";
},
{
name = top;
position = "{496, 500}";
}
);
hints = (
{
horizontal = 1;
place = "{-10, 14}";
type = Stem;
},
{
horizontal = 1;
place = "{510, 14}";
type = Stem;
},
{
horizontal = 1;
origin = "{0, 6}";
target = "{0, 13}";
type = Stem;
},
{
horizontal = 1;
origin = "{0, 29}";
target = "{0, 19}";
type = Stem;
}
);
layerId = "C00489B0-D6FE-4186-8C18-D0EE90D80B61";
paths = (
{
closed = 1;
nodes = (
"391 -10 OFFCURVE",
"474 61 OFFCURVE",
"496 181 CURVE",
"494 181 LINE",
"517 60 OFFCURVE",
"602 -10 OFFCURVE",
"711 -10 CURVE SMOOTH",
"796 -10 OFFCURVE",
"870 35 OFFCURVE",
"904 109 CURVE",
"891 116 LINE",
"859 46 OFFCURVE",
"789 4 OFFCURVE",
"711 4 CURVE SMOOTH",
"592 4 OFFCURVE",
"502 96 OFFCURVE",
"502 250 CURVE SMOOTH",
"502 404 OFFCURVE",
"591 496 OFFCURVE",
"704 496 CURVE SMOOTH",
"824 496 OFFCURVE",
"891 404 OFFCURVE",
"894 270 CURVE",
"495 270 LINE",
"495 255 LINE",
"908 255 LINE",
"908 257 OFFCURVE",
"908 260 OFFCURVE",
"908 262 CURVE SMOOTH",
"908 416 OFFCURVE",
"831 510 OFFCURVE",
"704 510 CURVE SMOOTH",
"600 510 OFFCURVE",
"517 440 OFFCURVE",
"494 320 CURVE",
"496 320 LINE",
"474 440 OFFCURVE",
"390 510 OFFCURVE",
"278 510 CURVE SMOOTH",
"144 510 OFFCURVE",
"51 411 OFFCURVE",
"51 250 CURVE SMOOTH",
"51 89 OFFCURVE",
"144 -10 OFFCURVE",
"278 -10 CURVE SMOOTH"
);
},
{
closed = 1;
nodes = (
"154 4 OFFCURVE",
"67 97 OFFCURVE",
"67 250 CURVE SMOOTH",
"67 403 OFFCURVE",
"154 496 OFFCURVE",
"278 496 CURVE SMOOTH",
"401 496 OFFCURVE",
"487 403 OFFCURVE",
"487 250 CURVE SMOOTH",
"487 97 OFFCURVE",
"401 4 OFFCURVE",
"278 4 CURVE SMOOTH"
);
}
);
width = 956;
},
{
anchors = (
{
name = bottom;
position = "{488, 0}";
},
{
name = top;
position = "{488, 500}";
}
);
hints = (
{
horizontal = 1;
place = "{-1, 2}";
type = Stem;
},
{
horizontal = 1;
place = "{64, 2}";
type = Stem;
},
{
horizontal = 1;
origin = "{0, 6}";
target = "{0, 13}";
type = Stem;
},
{
horizontal = 1;
origin = "{0, 29}";
target = "{0, 19}";
type = Stem;
}
);
layerId = "F67B2D2A-9F5D-44A5-A579-665B9797A041";
paths = (
{
closed = 1;
nodes = (
"384 -10 OFFCURVE",
"461 39 OFFCURVE",
"496 135 CURVE",
"475 134 LINE",
"511 38 OFFCURVE",
"589 -10 OFFCURVE",
"684 -10 CURVE SMOOTH",
"776 -10 OFFCURVE",
"847 33 OFFCURVE",
"883 102 CURVE",
"826 135 LINE",
"799 85 OFFCURVE",
"753 53 OFFCURVE",
"683 53 CURVE SMOOTH",
"585 53 OFFCURVE",
"520 127 OFFCURVE",
"520 250 CURVE SMOOTH",
"520 373 OFFCURVE",
"583 447 OFFCURVE",
"678 447 CURVE SMOOTH",
"762 447 OFFCURVE",
"817 391 OFFCURVE",
"820 295 CURVE",
"497 295 LINE",
"497 231 LINE",
"888 231 LINE",
"890 243 OFFCURVE",
"892 260 OFFCURVE",
"892 280 CURVE SMOOTH",
"892 412 OFFCURVE",
"813 510 OFFCURVE",
"680 510 CURVE SMOOTH",
"588 510 OFFCURVE",
"511 461 OFFCURVE",
"475 366 CURVE",
"496 366 LINE",
"460 461 OFFCURVE",
"383 510 OFFCURVE",
"289 510 CURVE SMOOTH",
"155 510 OFFCURVE",
"57 412 OFFCURVE",
"57 250 CURVE SMOOTH",
"57 88 OFFCURVE",
"155 -10 OFFCURVE",
"289 -10 CURVE SMOOTH"
);
},
{
closed = 1;
nodes = (
"191 52 OFFCURVE",
"129 127 OFFCURVE",
"129 250 CURVE SMOOTH",
"129 373 OFFCURVE",
"191 448 OFFCURVE",
"290 448 CURVE SMOOTH",
"389 448 OFFCURVE",
"450 373 OFFCURVE",
"450 250 CURVE SMOOTH",
"450 127 OFFCURVE",
"389 52 OFFCURVE",
"290 52 CURVE SMOOTH"
);
}
);
width = 950;
},
{
anchors = (
{
name = bottom;
position = "{478, 0}";
},
{
name = top;
position = "{478, 500}";
}
);
hints = (
{
horizontal = 1;
place = "{0, 0}";
type = Stem;
},
{
horizontal = 1;
place = "{0, 0}";
type = Stem;
},
{
horizontal = 1;
origin = "{0, 6}";
target = "{0, 13}";
type = Stem;
},
{
horizontal = 1;
origin = "{0, 29}";
target = "{0, 19}";
type = Stem;
}
);
layerId = "8348C28B-C402-4653-9E73-107F95648308";
paths = (
{
closed = 1;
nodes = (
"391 -10 OFFCURVE",
"467 34 OFFCURVE",
"503 117 CURVE",
"453 117 LINE",
"489 34 OFFCURVE",
"565 -10 OFFCURVE",
"666 -10 CURVE SMOOTH",
"772 -10 OFFCURVE",
"865 35 OFFCURVE",
"894 122 CURVE",
"758 167 LINE",
"743 131 OFFCURVE",
"714 110 OFFCURVE",
"665 110 CURVE SMOOTH",
"597 110 OFFCURVE",
"558 148 OFFCURVE",
"558 248 CURVE SMOOTH",
"558 347 OFFCURVE",
"593 391 OFFCURVE",
"657 391 CURVE SMOOTH",
"709 391 OFFCURVE",
"739 357 OFFCURVE",
"743 294 CURVE",
"506 294 LINE",
"506 214 LINE",
"899 214 LINE",
"902 228 OFFCURVE",
"904 250 OFFCURVE",
"904 273 CURVE SMOOTH",
"904 412 OFFCURVE",
"811 510 OFFCURVE",
"663 510 CURVE SMOOTH",
"564 510 OFFCURVE",
"489 465 OFFCURVE",
"452 380 CURVE",
"503 381 LINE",
"467 466 OFFCURVE",
"390 510 OFFCURVE",
"290 510 CURVE SMOOTH",
"148 510 OFFCURVE",
"35 414 OFFCURVE",
"35 250 CURVE SMOOTH",
"35 86 OFFCURVE",
"148 -10 OFFCURVE",
"290 -10 CURVE SMOOTH"
);
},
{
closed = 1;
nodes = (
"240 111 OFFCURVE",
"206 152 OFFCURVE",
"206 250 CURVE SMOOTH",
"206 348 OFFCURVE",
"240 389 OFFCURVE",
"298 389 CURVE SMOOTH",
"356 389 OFFCURVE",
"390 347 OFFCURVE",
"390 250 CURVE SMOOTH",
"390 153 OFFCURVE",
"356 111 OFFCURVE",
"298 111 CURVE SMOOTH"
);
}
);
width = 938;
}
);
leftKerningGroup = o;
leftMetricsKey = o;
rightKerningGroup = e;
rightMetricsKey = e;
unicode = 0153;
},
{
color = 8;
glyphname = p;
lastChange = "2022-01-17 02:44:33 +0000";
layers = (
{
anchors = (
{
name = bottom;
position = "{93, -210}";
},
{
name = ogonek;
position = "{402, 21}";
},
{
name = top;
position = "{288, 500}";
}
);
layerId = "C00489B0-D6FE-4186-8C18-D0EE90D80B61";
paths = (
{
closed = 1;
nodes = (
"101 -210 LINE",
"101 157 LINE",
"100 155 LINE",
"123 50 OFFCURVE",
"200 -10 OFFCURVE",
"294 -10 CURVE SMOOTH",
"422 -10 OFFCURVE",
"506 87 OFFCURVE",
"506 250 CURVE SMOOTH",
"506 413 OFFCURVE",
"422 510 OFFCURVE",
"294 510 CURVE SMOOTH",
"199 510 OFFCURVE",
"121 449 OFFCURVE",
"100 343 CURVE",
"101 341 LINE",
"101 500 LINE",
"85 500 LINE",
"85 -210 LINE"
);
},
{
closed = 1;
nodes = (
"182 4 OFFCURVE",
"101 100 OFFCURVE",
"101 250 CURVE SMOOTH",
"101 400 OFFCURVE",
"183 496 OFFCURVE",
"291 496 CURVE SMOOTH",
"411 496 OFFCURVE",
"490 405 OFFCURVE",
"490 250 CURVE SMOOTH",
"490 95 OFFCURVE",
"411 4 OFFCURVE",
"291 4 CURVE SMOOTH"
);
}
);
width = 557;
},
{
anchors = (
{
name = bottom;
position = "{128, -210}";
},
{
name = ogonek;
position = "{429, 18}";
},
{
name = top;
position = "{311, 500}";
}
);
layerId = "F67B2D2A-9F5D-44A5-A579-665B9797A041";
paths = (
{
closed = 1;
nodes = (
"164 -210 LINE",
"164 119 LINE",
"155 105 LINE",
"181 37 OFFCURVE",
"245 -10 OFFCURVE",
"326 -10 CURVE SMOOTH",
"446 -10 OFFCURVE",
"545 88 OFFCURVE",
"545 250 CURVE SMOOTH",
"545 412 OFFCURVE",
"448 510 OFFCURVE",
"329 510 CURVE SMOOTH",
"244 510 OFFCURVE",
"175 460 OFFCURVE",
"152 386 CURVE",
"161 373 LINE",
"155 500 LINE",
"92 500 LINE",
"92 -210 LINE"
);
},
{
closed = 1;
nodes = (
"226 53 OFFCURVE",
"164 131 OFFCURVE",
"164 250 CURVE SMOOTH",
"164 370 OFFCURVE",
"228 447 OFFCURVE",
"321 447 CURVE SMOOTH",
"416 447 OFFCURVE",
"473 370 OFFCURVE",
"473 250 CURVE SMOOTH",
"473 130 OFFCURVE",
"414 53 OFFCURVE",
"318 53 CURVE SMOOTH"
);
}
);
width = 604;
},
{
anchors = (
{
name = bottom;
position = "{146, -210}";
},
{
name = ogonek;
position = "{470, 13}";
},
{
name = top;
position = "{317, 500}";
}
);
layerId = "8348C28B-C402-4653-9E73-107F95648308";
paths = (
{
closed = 1;
nodes = (
"231 -210 LINE",
"231 157 LINE",
"215 133 LINE",
"233 51 OFFCURVE",
"289 -10 OFFCURVE",
"379 -10 CURVE SMOOTH",
"500 -10 OFFCURVE",
"583 86 OFFCURVE",
"583 252 CURVE SMOOTH",
"583 415 OFFCURVE",
"502 510 OFFCURVE",
"381 510 CURVE SMOOTH",
"283 510 OFFCURVE",
"217 438 OFFCURVE",
"203 340 CURVE",
"223 319 LINE",
"214 500 LINE",
"61 500 LINE",
"61 -210 LINE"
);
},
{
closed = 1;
nodes = (
"263 115 OFFCURVE",
"231 166 OFFCURVE",
"231 250 CURVE SMOOTH",
"231 337 OFFCURVE",
"266 385 OFFCURVE",
"322 385 CURVE SMOOTH",
"378 385 OFFCURVE",
"412 342 OFFCURVE",
"412 250 CURVE SMOOTH",
"412 158 OFFCURVE",
"377 115 OFFCURVE",
"321 115 CURVE SMOOTH"
);
}
);
width = 622;
}
);
leftKerningGroup = n;
leftMetricsKey = n;
rightKerningGroup = o;
unicode = 0070;
},
{
color = 8;
glyphname = thorn;
lastChange = "2022-01-17 02:46:39 +0000";
layers = (
{
anchors = (
{
name = bottom;
position = "{93, -210}";
},
{
name = ogonek;
position = "{404, 21}";
},
{
name = top;
position = "{93, 730}";
}
);
layerId = "C00489B0-D6FE-4186-8C18-D0EE90D80B61";
paths = (
{
closed = 1;
nodes = (
"101 -210 LINE",
"101 157 LINE",
"100 155 LINE",
"123 50 OFFCURVE",
"200 -10 OFFCURVE",
"294 -10 CURVE SMOOTH",
"422 -10 OFFCURVE",
"506 87 OFFCURVE",
"506 250 CURVE SMOOTH",
"506 413 OFFCURVE",
"422 510 OFFCURVE",
"294 510 CURVE SMOOTH",
"199 510 OFFCURVE",
"122 450 OFFCURVE",
"100 343 CURVE",
"101 341 LINE",
"101 730 LINE",
"85 730 LINE",
"85 -210 LINE"
);
},
{
closed = 1;
nodes = (
"182 4 OFFCURVE",
"101 100 OFFCURVE",
"101 250 CURVE SMOOTH",
"101 400 OFFCURVE",
"183 496 OFFCURVE",
"291 496 CURVE SMOOTH",
"411 496 OFFCURVE",
"490 405 OFFCURVE",
"490 250 CURVE SMOOTH",
"490 95 OFFCURVE",
"411 4 OFFCURVE",
"291 4 CURVE SMOOTH"
);
}
);
width = 557;
},
{
anchors = (
{
name = bottom;
position = "{128, -210}";
},
{
name = ogonek;
position = "{430, 18}";
},
{
name = top;
position = "{128, 730}";
}
);
layerId = "F67B2D2A-9F5D-44A5-A579-665B9797A041";
paths = (
{
closed = 1;
nodes = (
"164 -210 LINE",
"164 119 LINE",
"155 105 LINE",
"181 37 OFFCURVE",
"245 -10 OFFCURVE",
"326 -10 CURVE SMOOTH",
"446 -10 OFFCURVE",
"545 88 OFFCURVE",
"545 250 CURVE SMOOTH",
"545 413 OFFCURVE",
"447 510 OFFCURVE",
"327 510 CURVE SMOOTH",
"247 510 OFFCURVE",
"181 463 OFFCURVE",
"155 395 CURVE",
"164 373 LINE",
"164 730 LINE",
"92 730 LINE",
"92 -210 LINE"
);
},
{
closed = 1;
nodes = (
"226 53 OFFCURVE",
"164 131 OFFCURVE",
"164 250 CURVE SMOOTH",
"164 370 OFFCURVE",
"228 447 OFFCURVE",
"321 447 CURVE SMOOTH",
"416 447 OFFCURVE",
"473 370 OFFCURVE",
"473 250 CURVE SMOOTH",
"473 130 OFFCURVE",
"414 53 OFFCURVE",
"318 53 CURVE SMOOTH"
);
}
);
width = 604;
},
{
anchors = (
{
name = bottom;
position = "{146, -210}";
},
{
name = ogonek;
position = "{470, 13}";
},
{
name = top;
position = "{146, 712}";
}
);
layerId = "8348C28B-C402-4653-9E73-107F95648308";
paths = (
{
closed = 1;
nodes = (
"231 -210 LINE",
"231 157 LINE",
"215 133 LINE",
"233 51 OFFCURVE",
"288 -10 OFFCURVE",
"379 -10 CURVE SMOOTH",
"500 -10 OFFCURVE",
"583 86 OFFCURVE",
"583 248 CURVE SMOOTH",
"583 414 OFFCURVE",
"500 510 OFFCURVE",
"386 510 CURVE SMOOTH",
"290 510 OFFCURVE",
"233 449 OFFCURVE",
"215 367 CURVE",
"231 361 LINE",
"231 712 LINE",
"61 712 LINE",
"61 -210 LINE"
);
},
{
closed = 1;
nodes = (
"263 115 OFFCURVE",
"231 166 OFFCURVE",
"231 250 CURVE SMOOTH",
"231 337 OFFCURVE",
"266 385 OFFCURVE",
"322 385 CURVE SMOOTH",
"378 385 OFFCURVE",
"412 342 OFFCURVE",
"412 250 CURVE SMOOTH",
"412 158 OFFCURVE",
"377 115 OFFCURVE",
"321 115 CURVE SMOOTH"
);
}
);
width = 622;
}
);
leftKerningGroup = h;
leftMetricsKey = h;
rightKerningGroup = o;
rightMetricsKey = p;
unicode = 00FE;
},
{
color = 8;
glyphname = q;
lastChange = "2022-01-17 02:44:33 +0000";
layers = (
{
anchors = (
{
name = bottom;
position = "{464, -210}";
},
{
name = ogonek;
position = "{371, 21}";
},
{
name = top;
position = "{268, 500}";
}
);
layerId = "C00489B0-D6FE-4186-8C18-D0EE90D80B61";
paths = (
{
closed = 1;
nodes = (
"472 -210 LINE",
"472 500 LINE",
"456 500 LINE",
"456 341 LINE",
"457 343 LINE",
"436 449 OFFCURVE",
"361 510 OFFCURVE",
"266 510 CURVE SMOOTH",
"138 510 OFFCURVE",
"51 413 OFFCURVE",
"51 250 CURVE SMOOTH",
"51 87 OFFCURVE",
"138 -10 OFFCURVE",
"265 -10 CURVE SMOOTH",
"360 -10 OFFCURVE",
"434 50 OFFCURVE",
"457 155 CURVE",
"456 157 LINE",
"456 -210 LINE"
);
},
{
closed = 1;
nodes = (
"148 4 OFFCURVE",
"67 96 OFFCURVE",
"67 250 CURVE SMOOTH",
"67 404 OFFCURVE",
"148 496 OFFCURVE",
"268 496 CURVE SMOOTH",
"376 496 OFFCURVE",
"456 401 OFFCURVE",
"456 250 CURVE SMOOTH",
"456 99 OFFCURVE",
"377 4 OFFCURVE",
"268 4 CURVE SMOOTH"
);
}
);
width = 557;
},
{
anchors = (
{
name = bottom;
position = "{476, -210}";
},
{
name = ogonek;
position = "{375, 18}";
},
{
name = top;
position = "{292, 500}";
}
);
layerId = "F67B2D2A-9F5D-44A5-A579-665B9797A041";
paths = (
{
closed = 1;
nodes = (
"512 -210 LINE",
"512 500 LINE",
"449 500 LINE",
"442 378 LINE",
"453 378 LINE",
"437 460 OFFCURVE",
"365 510 OFFCURVE",
"283 510 CURVE SMOOTH",
"163 510 OFFCURVE",
"59 416 OFFCURVE",
"59 250 CURVE SMOOTH",
"59 87 OFFCURVE",
"157 -10 OFFCURVE",
"277 -10 CURVE SMOOTH",
"361 -10 OFFCURVE",
"436 40 OFFCURVE",
"452 131 CURVE",
"440 140 LINE",
"440 -210 LINE"
);
},
{
closed = 1;
nodes = (
"189 53 OFFCURVE",
"131 130 OFFCURVE",
"131 250 CURVE SMOOTH",
"131 370 OFFCURVE",
"190 447 OFFCURVE",
"287 447 CURVE SMOOTH",
"378 447 OFFCURVE",
"440 377 OFFCURVE",
"440 253 CURVE SMOOTH",
"440 132 OFFCURVE",
"377 53 OFFCURVE",
"285 53 CURVE SMOOTH"
);
}
);
width = 604;
},
{
anchors = (
{
name = bottom;
position = "{476, -210}";
},
{
name = ogonek;
position = "{324, 13}";
},
{
name = top;
position = "{305, 500}";
}
);
layerId = "8348C28B-C402-4653-9E73-107F95648308";
paths = (
{
closed = 1;
nodes = (
"561 -210 LINE",
"561 500 LINE",
"408 500 LINE",
"399 321 LINE",
"419 337 LINE",
"409 438 OFFCURVE",
"341 510 OFFCURVE",
"245 510 CURVE SMOOTH",
"123 510 OFFCURVE",
"39 416 OFFCURVE",
"39 252 CURVE SMOOTH",
"39 86 OFFCURVE",
"122 -10 OFFCURVE",
"242 -10 CURVE SMOOTH",
"334 -10 OFFCURVE",
"395 52 OFFCURVE",
"409 145 CURVE",
"391 167 LINE",
"391 -210 LINE"
);
},
{
closed = 1;
nodes = (
"244 115 OFFCURVE",
"210 158 OFFCURVE",
"210 250 CURVE SMOOTH",
"210 342 OFFCURVE",
"245 385 OFFCURVE",
"302 385 CURVE SMOOTH",
"357 385 OFFCURVE",
"391 341 OFFCURVE",
"391 251 CURVE SMOOTH",
"391 166 OFFCURVE",
"358 115 OFFCURVE",
"301 115 CURVE SMOOTH"
);
}
);
width = 622;
}
);
leftKerningGroup = o;
leftMetricsKey = d;
rightKerningGroup = u;
rightMetricsKey = u;
unicode = 0071;
},
{
color = 8;
glyphname = r;
lastChange = "2022-01-17 02:44:33 +0000";
layers = (
{
anchors = (
{
name = bottom;
position = "{93, 0}";
},
{
name = ogonek;
position = "{101, 0}";
},
{
name = top;
position = "{189, 500}";
}
);
hints = (
{
horizontal = 1;
origin = "{0, 17}";
target = up;
type = BottomGhost;
},
{
horizontal = 1;
origin = "{0, 11}";
target = "{0, 4}";
type = Stem;
},
{
origin = "{0, 17}";
target = "{0, 0}";
type = Stem;
}
);
layerId = "C00489B0-D6FE-4186-8C18-D0EE90D80B61";
paths = (
{
closed = 1;
nodes = (
"101 0 LINE",
"101 291 LINE SMOOTH",
"101 394 OFFCURVE",
"162 496 OFFCURVE",
"243 496 CURVE SMOOTH",
"276 496 OFFCURVE",
"288 487 OFFCURVE",
"300 474 CURVE",
"308 486 LINE",
"296 500 OFFCURVE",
"276 510 OFFCURVE",
"246 510 CURVE SMOOTH",
"174 510 OFFCURVE",
"121 449 OFFCURVE",
"101 370 CURVE",
"101 500 LINE",
"85 500 LINE",
"85 0 LINE"
);
}
);
width = 315;
},
{
anchors = (
{
name = bottom;
position = "{128, 0}";
},
{
name = ogonek;
position = "{164, 0}";
},
{
name = top;
position = "{223, 500}";
}
);
hints = (
{
horizontal = 1;
origin = "{0, 17}";
target = up;
type = BottomGhost;
},
{
horizontal = 1;
origin = "{0, 11}";
target = "{0, 4}";
type = Stem;
},
{
origin = "{0, 17}";
target = "{0, 0}";
type = Stem;
}
);
layerId = "F67B2D2A-9F5D-44A5-A579-665B9797A041";
paths = (
{
closed = 1;
nodes = (
"164 0 LINE",
"164 273 LINE SMOOTH",
"164 383 OFFCURVE",
"230 443 OFFCURVE",
"291 443 CURVE SMOOTH",
"320 443 OFFCURVE",
"334 439 OFFCURVE",
"348 433 CURVE",
"360 498 LINE",
"346 507 OFFCURVE",
"326 510 OFFCURVE",
"308 510 CURVE SMOOTH",
"237 510 OFFCURVE",
"185 475 OFFCURVE",
"161 412 CURVE",
"152 500 LINE",
"92 500 LINE",
"92 0 LINE"
);
}
);
width = 382;
},
{
anchors = (
{
name = bottom;
position = "{146, 0}";
},
{
name = ogonek;
position = "{231, 0}";
},
{
name = top;
position = "{241, 500}";
}
);
hints = (
{
horizontal = 1;
origin = "{0, 17}";
target = up;
type = BottomGhost;
},
{
horizontal = 1;
origin = "{0, 11}";
target = "{0, 4}";
type = Stem;
},
{
origin = "{0, 17}";
target = "{0, 0}";
type = Stem;
}
);
layerId = "8348C28B-C402-4653-9E73-107F95648308";
paths = (
{
closed = 1;
nodes = (
"231 0 LINE",
"231 252 LINE SMOOTH",
"231 330 OFFCURVE",
"282 368 OFFCURVE",
"341 368 CURVE SMOOTH",
"372 368 OFFCURVE",
"391 363 OFFCURVE",
"402 359 CURVE",
"419 499 LINE",
"408 505 OFFCURVE",
"391 510 OFFCURVE",
"366 510 CURVE SMOOTH",
"291 510 OFFCURVE",
"242 466 OFFCURVE",
"218 392 CURVE",
"211 500 LINE",
"61 500 LINE",
"61 0 LINE"
);
}
);
width = 425;
}
);
leftKerningGroup = n;
leftMetricsKey = n;
rightKerningGroup = r;
unicode = 0072;
},
{
color = 3;
glyphname = s;
lastChange = "2022-01-17 02:43:02 +0000";
layers = (
{
anchors = (
{
name = bottom;
position = "{232, 0}";
},
{
name = ogonek;
position = "{346, 21}";
},
{
name = top;
position = "{225, 500}";
}
);
background = {
anchors = (
{
name = bottom;
position = "{247, 0}";
},
{
name = ogonek;
position = "{370, 21}";
},
{
name = top;
position = "{239, 500}";
}
);
paths = (
{
closed = 1;
nodes = (
"358 -10 OFFCURVE",
"432 41 OFFCURVE",
"432 124 CURVE SMOOTH",
"432 184 OFFCURVE",
"398 222 OFFCURVE",
"304 243 CURVE SMOOTH",
"188 269 LINE SMOOTH",
"105 288 OFFCURVE",
"75 327 OFFCURVE",
"75 378 CURVE SMOOTH",
"75 445 OFFCURVE",
"146 496 OFFCURVE",
"244 496 CURVE SMOOTH",
"338 496 OFFCURVE",
"398 459 OFFCURVE",
"415 377 CURVE",
"429 385 LINE",
"410 472 OFFCURVE",
"346 510 OFFCURVE",
"244 510 CURVE SMOOTH",
"137 510 OFFCURVE",
"59 451 OFFCURVE",
"59 374 CURVE SMOOTH",
"59 317 OFFCURVE",
"95 273 OFFCURVE",
"187 253 CURVE SMOOTH",
"301 228 LINE SMOOTH",
"389 209 OFFCURVE",
"416 175 OFFCURVE",
"416 124 CURVE SMOOTH",
"416 51 OFFCURVE",
"349 4 OFFCURVE",
"243 4 CURVE SMOOTH",
"142 4 OFFCURVE",
"69 43 OFFCURVE",
"52 118 CURVE",
"37 111 LINE",
"56 31 OFFCURVE",
"136 -10 OFFCURVE",
"240 -10 CURVE SMOOTH"
);
}
);
};
layerId = "C00489B0-D6FE-4186-8C18-D0EE90D80B61";
paths = (
{
closed = 1;
nodes = (
"335 -10 OFFCURVE",
"404 41 OFFCURVE",
"404 124 CURVE SMOOTH",
"404 193 OFFCURVE",
"360 225 OFFCURVE",
"285 243 CURVE SMOOTH",
"177 269 LINE SMOOTH",
"101 287 OFFCURVE",
"73 328 OFFCURVE",
"73 378 CURVE SMOOTH",
"73 445 OFFCURVE",
"139 496 OFFCURVE",
"229 496 CURVE SMOOTH",
"316 496 OFFCURVE",
"371 459 OFFCURVE",
"387 377 CURVE",
"401 385 LINE",
"383 472 OFFCURVE",
"324 510 OFFCURVE",
"229 510 CURVE SMOOTH",
"130 510 OFFCURVE",
"57 451 OFFCURVE",
"57 374 CURVE SMOOTH",
"57 317 OFFCURVE",
"91 273 OFFCURVE",
"176 253 CURVE SMOOTH",
"282 228 LINE SMOOTH",
"360 210 OFFCURVE",
"388 177 OFFCURVE",
"388 124 CURVE SMOOTH",
"388 51 OFFCURVE",
"326 4 OFFCURVE",
"229 4 CURVE SMOOTH",
"135 4 OFFCURVE",
"68 43 OFFCURVE",
"52 118 CURVE",
"37 111 LINE",
"55 31 OFFCURVE",
"130 -10 OFFCURVE",
"226 -10 CURVE SMOOTH"
);
}
);
width = 451;
},
{
anchors = (
{
name = bottom;
position = "{257, 0}";
},
{
name = ogonek;
position = "{373, 18}";
},
{
name = top;
position = "{252, 500}";
}
);
background = {
anchors = (
{
name = bottom;
position = "{266, 0}";
},
{
name = ogonek;
position = "{388, 18}";
},
{
name = top;
position = "{261, 500}";
}
);
paths = (
{
closed = 1;
nodes = (
"387 -10 OFFCURVE",
"467 50 OFFCURVE",
"467 143 CURVE SMOOTH",
"467 204 OFFCURVE",
"434 247 OFFCURVE",
"341 267 CURVE SMOOTH",
"217 293 LINE SMOOTH",
"158 305 OFFCURVE",
"141 333 OFFCURVE",
"141 365 CURVE SMOOTH",
"141 412 OFFCURVE",
"186 447 OFFCURVE",
"262 447 CURVE SMOOTH",
"321 447 OFFCURVE",
"378 420 OFFCURVE",
"400 358 CURVE",
"461 397 LINE",
"429 469 OFFCURVE",
"360 510 OFFCURVE",
"262 510 CURVE SMOOTH",
"145 510 OFFCURVE",
"70 442 OFFCURVE",
"70 362 CURVE SMOOTH",
"70 294 OFFCURVE",
"108 247 OFFCURVE",
"205 227 CURVE SMOOTH",
"324 202 LINE SMOOTH",
"379 190 OFFCURVE",
"395 164 OFFCURVE",
"395 133 CURVE SMOOTH",
"395 85 OFFCURVE",
"349 53 OFFCURVE",
"275 53 CURVE SMOOTH",
"192 53 OFFCURVE",
"132 89 OFFCURVE",
"105 153 CURVE",
"43 109 LINE",
"84 33 OFFCURVE",
"171 -10 OFFCURVE",
"269 -10 CURVE SMOOTH"
);
}
);
};
layerId = "F67B2D2A-9F5D-44A5-A579-665B9797A041";
paths = (
{
closed = 1;
nodes = (
"372 -10 OFFCURVE",
"449 50 OFFCURVE",
"449 143 CURVE SMOOTH",
"449 205 OFFCURVE",
"417 247 OFFCURVE",
"328 267 CURVE SMOOTH",
"211 293 LINE SMOOTH",
"156 305 OFFCURVE",
"139 334 OFFCURVE",
"139 365 CURVE SMOOTH",
"139 412 OFFCURVE",
"182 447 OFFCURVE",
"253 447 CURVE SMOOTH",
"308 447 OFFCURVE",
"363 420 OFFCURVE",
"384 358 CURVE",
"443 397 LINE",
"412 469 OFFCURVE",
"346 510 OFFCURVE",
"253 510 CURVE SMOOTH",
"140 510 OFFCURVE",
"68 442 OFFCURVE",
"68 362 CURVE SMOOTH",
"68 294 OFFCURVE",
"105 248 OFFCURVE",
"198 227 CURVE SMOOTH",
"310 202 LINE SMOOTH",
"362 190 OFFCURVE",
"377 164 OFFCURVE",
"377 133 CURVE SMOOTH",
"377 85 OFFCURVE",
"333 53 OFFCURVE",
"264 53 CURVE SMOOTH",
"186 53 OFFCURVE",
"129 89 OFFCURVE",
"103 153 CURVE",
"43 109 LINE",
"83 33 OFFCURVE",
"166 -10 OFFCURVE",
"259 -10 CURVE SMOOTH"
);
}
);
width = 503;
},
{
anchors = (
{
name = bottom;
position = "{277, 0}";
},
{
name = ogonek;
position = "{395, 14}";
},
{
name = top;
position = "{271, 500}";
}
);
associatedMasterId = "F67B2D2A-9F5D-44A5-A579-665B9797A041";
layerId = "7A5DE7F6-4D37-482E-B2C9-7DAF0435345E";
name = "{137}";
paths = (
{
closed = 1;
nodes = (
"415 -10 OFFCURVE",
"494 60 OFFCURVE",
"494 156 CURVE SMOOTH",
"494 223 OFFCURVE",
"455 272 OFFCURVE",
"356 292 CURVE SMOOTH",
"254 313 LINE SMOOTH",
"205 323 OFFCURVE",
"189 339 OFFCURVE",
"189 360 CURVE SMOOTH",
"189 391 OFFCURVE",
"220 409 OFFCURVE",
"277 409 CURVE SMOOTH",
"329 409 OFFCURVE",
"379 383 OFFCURVE",
"409 337 CURVE",
"491 417 LINE",
"448 478 OFFCURVE",
"373 510 OFFCURVE",
"273 510 CURVE SMOOTH",
"127 510 OFFCURVE",
"53 433 OFFCURVE",
"53 352 CURVE SMOOTH",
"53 275 OFFCURVE",
"97 227 OFFCURVE",
"213 203 CURVE SMOOTH",
"301 185 LINE SMOOTH",
"345 176 OFFCURVE",
"356 160 OFFCURVE",
"356 139 CURVE SMOOTH",
"356 106 OFFCURVE",
"322 91 OFFCURVE",
"270 91 CURVE SMOOTH",
"197 91 OFFCURVE",
"143 125 OFFCURVE",
"111 173 CURVE",
"32 93 LINE",
"84 27 OFFCURVE",
"171 -10 OFFCURVE",
"272 -10 CURVE SMOOTH"
);
}
);
width = 531;
},
{
anchors = (
{
name = bottom;
position = "{272, 0}";
},
{
name = ogonek;
position = "{393, 13}";
},
{
name = top;
position = "{271, 500}";
}
);
background = {
anchors = (
{
name = bottom;
position = "{275, 0}";
},
{
name = ogonek;
position = "{397, 13}";
},
{
name = top;
position = "{274, 500}";
}
);
paths = (
{
closed = 1;
nodes = (
"428 -10 OFFCURVE",
"506 65 OFFCURVE",
"506 162 CURVE SMOOTH",
"506 232 OFFCURVE",
"464 283 OFFCURVE",
"361 302 CURVE SMOOTH",
"270 320 LINE SMOOTH",
"225 329 OFFCURVE",
"211 341 OFFCURVE",
"211 359 CURVE SMOOTH",
"211 382 OFFCURVE",
"235 396 OFFCURVE",
"284 396 CURVE SMOOTH",
"334 396 OFFCURVE",
"390 372 OFFCURVE",
"422 332 CURVE",
"503 424 LINE",
"457 479 OFFCURVE",
"379 510 OFFCURVE",
"277 510 CURVE SMOOTH",
"116 510 OFFCURVE",
"42 428 OFFCURVE",
"42 347 CURVE SMOOTH",
"42 266 OFFCURVE",
"89 218 OFFCURVE",
"215 192 CURVE SMOOTH",
"285 178 LINE SMOOTH",
"325 170 OFFCURVE",
"335 159 OFFCURVE",
"335 141 CURVE SMOOTH",
"335 116 OFFCURVE",
"305 104 OFFCURVE",
"264 104 CURVE SMOOTH",
"196 104 OFFCURVE",
"138 136 OFFCURVE",
"105 179 CURVE",
"25 85 LINE",
"82 23 OFFCURVE",
"171 -10 OFFCURVE",
"271 -10 CURVE SMOOTH"
);
}
);
};
layerId = "8348C28B-C402-4653-9E73-107F95648308";
paths = (
{
closed = 1;
nodes = (
"424 -10 OFFCURVE",
"501 65 OFFCURVE",
"501 162 CURVE SMOOTH",
"501 231 OFFCURVE",
"459 282 OFFCURVE",
"358 302 CURVE SMOOTH",
"268 320 LINE SMOOTH",
"227 328 OFFCURVE",
"211 340 OFFCURVE",
"211 359 CURVE SMOOTH",
"211 382 OFFCURVE",
"234 396 OFFCURVE",
"282 396 CURVE SMOOTH",
"331 396 OFFCURVE",
"386 372 OFFCURVE",
"418 332 CURVE",
"498 424 LINE",
"452 479 OFFCURVE",
"375 510 OFFCURVE",
"274 510 CURVE SMOOTH",
"115 510 OFFCURVE",
"42 428 OFFCURVE",
"42 347 CURVE SMOOTH",
"42 266 OFFCURVE",
"88 218 OFFCURVE",
"213 192 CURVE SMOOTH",
"281 178 LINE SMOOTH",
"320 170 OFFCURVE",
"330 159 OFFCURVE",
"330 141 CURVE SMOOTH",
"330 116 OFFCURVE",
"300 104 OFFCURVE",
"261 104 CURVE SMOOTH",
"195 104 OFFCURVE",
"137 136 OFFCURVE",
"104 179 CURVE",
"25 85 LINE",
"82 23 OFFCURVE",
"168 -10 OFFCURVE",
"268 -10 CURVE SMOOTH"
);
}
);
width = 528;
},
{
anchors = (
{
name = bottom;
position = "{277, 0}";
},
{
name = ogonek;
position = "{395, 14}";
},
{
name = top;
position = "{271, 500}";
}
);
associatedMasterId = "8348C28B-C402-4653-9E73-107F95648308";
layerId = "2D909176-75F8-4BBD-A38B-2AE769EAEBC3";
name = "{137}";
paths = (
{
closed = 1;
nodes = (
"415 -10 OFFCURVE",
"494 60 OFFCURVE",
"494 156 CURVE SMOOTH",
"494 223 OFFCURVE",
"455 272 OFFCURVE",
"356 292 CURVE SMOOTH",
"254 313 LINE SMOOTH",
"205 323 OFFCURVE",
"189 339 OFFCURVE",
"189 360 CURVE SMOOTH",
"189 391 OFFCURVE",
"220 409 OFFCURVE",
"277 409 CURVE SMOOTH",
"329 409 OFFCURVE",
"379 383 OFFCURVE",
"409 337 CURVE",
"491 417 LINE",
"448 478 OFFCURVE",
"373 510 OFFCURVE",
"273 510 CURVE SMOOTH",
"127 510 OFFCURVE",
"53 433 OFFCURVE",
"53 352 CURVE SMOOTH",
"53 275 OFFCURVE",
"97 227 OFFCURVE",
"213 203 CURVE SMOOTH",
"301 185 LINE SMOOTH",
"345 176 OFFCURVE",
"356 160 OFFCURVE",
"356 139 CURVE SMOOTH",
"356 106 OFFCURVE",
"322 91 OFFCURVE",
"270 91 CURVE SMOOTH",
"197 91 OFFCURVE",
"143 125 OFFCURVE",
"111 173 CURVE",
"32 93 LINE",
"84 27 OFFCURVE",
"171 -10 OFFCURVE",
"272 -10 CURVE SMOOTH"
);
}
);
width = 531;
}
);
leftKerningGroup = s;
rightKerningGroup = s;
unicode = 0073;
},
{
color = 8;
glyphname = germandbls;
lastChange = "2022-01-03 13:48:04 +0000";
layers = (
{
anchors = (
{
name = bottom;
position = "{296, 0}";
},
{
name = ogonek;
position = "{428, 21}";
},
{
name = top;
position = "{296, 730}";
}
);
hints = (
{
horizontal = 1;
origin = "{0, 37}";
target = "{0, 30}";
type = Stem;
},
{
horizontal = 1;
origin = "{0, 6}";
target = "{0, 15}";
type = Stem;
}
);
layerId = "C00489B0-D6FE-4186-8C18-D0EE90D80B61";
paths = (
{
closed = 1;
nodes = (
"326 379 LINE",
"409 382 OFFCURVE",
"477 453 OFFCURVE",
"477 561 CURVE SMOOTH",
"477 671 OFFCURVE",
"407 735 OFFCURVE",
"293 735 CURVE SMOOTH",
"157 735 OFFCURVE",
"85 660 OFFCURVE",
"85 516 CURVE SMOOTH",
"85 0 LINE",
"100 0 LINE",
"100 505 LINE SMOOTH",
"100 647 OFFCURVE",
"167 721 OFFCURVE",
"293 721 CURVE SMOOTH",
"397 721 OFFCURVE",
"461 662 OFFCURVE",
"461 563 CURVE SMOOTH",
"461 449 OFFCURVE",
"390 384 OFFCURVE",
"292 384 CURVE SMOOTH",
"248 384 LINE",
"248 370 LINE",
"292 370 LINE SMOOTH",
"408 370 OFFCURVE",
"490 313 OFFCURVE",
"490 185 CURVE SMOOTH",
"490 76 OFFCURVE",
"430 3 OFFCURVE",
"330 3 CURVE SMOOTH",
"284 3 OFFCURVE",
"250 15 OFFCURVE",
"219 40 CURVE",
"209 28 LINE",
"237 4 OFFCURVE",
"276 -10 OFFCURVE",
"330 -10 CURVE SMOOTH",
"439 -10 OFFCURVE",
"506 68 OFFCURVE",
"506 185 CURVE SMOOTH",
"506 302 OFFCURVE",
"440 371 OFFCURVE",
"326 378 CURVE"
);
}
);
width = 555;
},
{
anchors = (
{
name = bottom;
position = "{314, 0}";
},
{
name = ogonek;
position = "{436, 18}";
},
{
name = top;
position = "{314, 730}";
}
);
hints = (
{
horizontal = 1;
origin = "{0, 37}";
target = "{0, 30}";
type = Stem;
},
{
horizontal = 1;
origin = "{0, 6}";
target = "{0, 15}";
type = Stem;
}
);
layerId = "F67B2D2A-9F5D-44A5-A579-665B9797A041";
paths = (
{
closed = 1;
nodes = (
"366 388 LINE",
"462 394 OFFCURVE",
"510 480 OFFCURVE",
"510 562 CURVE SMOOTH",
"510 652 OFFCURVE",
"445 735 OFFCURVE",
"315 735 CURVE SMOOTH",
"149 735 OFFCURVE",
"92 637 OFFCURVE",
"92 499 CURVE SMOOTH",
"92 0 LINE",
"164 0 LINE",
"164 477 LINE SMOOTH",
"164 590 OFFCURVE",
"193 668 OFFCURVE",
"309 668 CURVE SMOOTH",
"383 668 OFFCURVE",
"437 630 OFFCURVE",
"437 548 CURVE SMOOTH",
"437 473 OFFCURVE",
"389 416 OFFCURVE",
"308 416 CURVE SMOOTH",
"262 416 LINE",
"261 352 LINE",
"315 352 LINE SMOOTH",
"413 352 OFFCURVE",
"466 301 OFFCURVE",
"466 203 CURVE SMOOTH",
"466 117 OFFCURVE",
"420 56 OFFCURVE",
"346 56 CURVE SMOOTH",
"297 56 OFFCURVE",
"271 68 OFFCURVE",
"247 85 CURVE",
"227 24 LINE",
"246 8 OFFCURVE",
"290 -10 OFFCURVE",
"349 -10 CURVE SMOOTH",
"475 -10 OFFCURVE",
"535 87 OFFCURVE",
"535 202 CURVE SMOOTH",
"535 293 OFFCURVE",
"487 385 OFFCURVE",
"366 386 CURVE"
);
}
);
width = 591;
},
{
anchors = (
{
name = bottom;
position = "{337, 0}";
},
{
name = ogonek;
position = "{504, 13}";
},
{
name = top;
position = "{337, 712}";
}
);
hints = (
{
horizontal = 1;
origin = "{0, 37}";
target = "{0, 30}";
type = Stem;
},
{
horizontal = 1;
origin = "{0, 6}";
target = "{0, 15}";
type = Stem;
}
);
layerId = "8348C28B-C402-4653-9E73-107F95648308";
paths = (
{
closed = 1;
nodes = (
"437 364 LINE",
"539 367 OFFCURVE",
"596 446 OFFCURVE",
"596 529 CURVE SMOOTH",
"596 636 OFFCURVE",
"509 717 OFFCURVE",
"345 717 CURVE SMOOTH",
"138 717 OFFCURVE",
"61 620 OFFCURVE",
"61 461 CURVE SMOOTH",
"61 0 LINE",
"231 0 LINE",
"231 448 LINE SMOOTH",
"231 549 OFFCURVE",
"259 594 OFFCURVE",
"339 594 CURVE SMOOTH",
"394 594 OFFCURVE",
"431 566 OFFCURVE",
"431 510 CURVE SMOOTH",
"431 457 OFFCURVE",
"401 418 OFFCURVE",
"341 418 CURVE SMOOTH",
"311 418 LINE",
"294 299 LINE",
"349 299 LINE SMOOTH",
"416 299 OFFCURVE",
"453 267 OFFCURVE",
"453 207 CURVE SMOOTH",
"453 150 OFFCURVE",
"420 112 OFFCURVE",
"370 112 CURVE SMOOTH",
"335 112 OFFCURVE",
"315 122 OFFCURVE",
"297 134 CURVE",
"269 22 LINE",
"296 4 OFFCURVE",
"342 -10 OFFCURVE",
"403 -10 CURVE SMOOTH",
"549 -10 OFFCURVE",
"613 82 OFFCURVE",
"613 187 CURVE SMOOTH",
"613 286 OFFCURVE",
"549 362 OFFCURVE",
"437 362 CURVE"
);
}
);
width = 646;
}
);
leftKerningGroup = h;
unicode = 00DF;
},
{
color = 8;
glyphname = t;
lastChange = "2022-01-17 02:44:33 +0000";
layers = (
{
anchors = (
{
name = bottom;
position = "{201, 0}";
},
{
name = center;
position = "{151, 250}";
},
{
name = ogonek;
position = "{276, 9}";
},
{
name = top;
position = "{110, 602}";
},
{
name = topright;
position = "{226, 767}";
}
);
layerId = "C00489B0-D6FE-4186-8C18-D0EE90D80B61";
paths = (
{
closed = 1;
nodes = (
"102 630 LINE",
"102 126 LINE SMOOTH",
"102 37 OFFCURVE",
"138 -10 OFFCURVE",
"211 -10 CURVE SMOOTH",
"248 -10 OFFCURVE",
"281 7 OFFCURVE",
"299 28 CURVE",
"291 41 LINE",
"270 15 OFFCURVE",
"243 4 OFFCURVE",
"211 4 CURVE SMOOTH",
"147 4 OFFCURVE",
"118 46 OFFCURVE",
"118 126 CURVE SMOOTH",
"118 635 LINE"
);
},
{
closed = 1;
nodes = (
"11 500 LINE",
"11 486 LINE",
"293 486 LINE",
"293 500 LINE"
);
}
);
width = 301;
},
{
anchors = (
{
name = bottom;
position = "{240, 0}";
},
{
name = center;
position = "{196, 250}";
},
{
name = ogonek;
position = "{347, 16}";
},
{
name = top;
position = "{159, 635}";
},
{
name = topright;
position = "{275, 767}";
}
);
layerId = "F67B2D2A-9F5D-44A5-A579-665B9797A041";
paths = (
{
closed = 1;
nodes = (
"123 621 LINE",
"123 124 LINE SMOOTH",
"123 28 OFFCURVE",
"183 -10 OFFCURVE",
"258 -10 CURVE SMOOTH",
"307 -10 OFFCURVE",
"345 6 OFFCURVE",
"375 34 CURVE",
"351 94 LINE",
"329 71 OFFCURVE",
"305 57 OFFCURVE",
"268 57 CURVE SMOOTH",
"224 57 OFFCURVE",
"195 84 OFFCURVE",
"195 137 CURVE SMOOTH",
"195 641 LINE"
);
},
{
closed = 1;
nodes = (
"29 500 LINE",
"29 438 LINE",
"367 438 LINE",
"367 500 LINE"
);
}
);
width = 390;
},
{
anchors = (
{
name = bottom;
position = "{251, 0}";
},
{
name = center;
position = "{217, 250}";
},
{
name = ogonek;
position = "{390, 13}";
},
{
name = top;
position = "{183, 652}";
},
{
name = topright;
position = "{335, 767}";
}
);
layerId = "8348C28B-C402-4653-9E73-107F95648308";
paths = (
{
closed = 1;
nodes = (
"99 612 LINE",
"99 150 LINE SMOOTH",
"99 34 OFFCURVE",
"170 -10 OFFCURVE",
"283 -10 CURVE SMOOTH",
"335 -10 OFFCURVE",
"389 5 OFFCURVE",
"422 28 CURVE",
"404 133 LINE",
"385 119 OFFCURVE",
"363 111 OFFCURVE",
"333 111 CURVE SMOOTH",
"292 111 OFFCURVE",
"268 130 OFFCURVE",
"268 178 CURVE SMOOTH",
"268 659 LINE"
);
},
{
closed = 1;
nodes = (
"14 500 LINE",
"14 379 LINE",
"414 379 LINE",
"414 500 LINE"
);
}
);
width = 432;
}
);
leftKerningGroup = t;
rightKerningGroup = t;
unicode = 0074;
},
{
color = 8;
glyphname = u;
lastChange = "2022-01-17 02:44:33 +0000";
layers = (
{
anchors = (
{
name = bottom;
position = "{266, 0}";
},
{
name = ogonek;
position = "{451, 0}";
},
{
name = top;
position = "{266, 480}";
},
{
name = topright;
position = "{492, 506}";
}
);
layerId = "C00489B0-D6FE-4186-8C18-D0EE90D80B61";
paths = (
{
closed = 1;
nodes = (
"343 -10 OFFCURVE",
"415 55 OFFCURVE",
"435 133 CURVE",
"435 0 LINE",
"451 0 LINE",
"451 500 LINE",
"435 500 LINE",
"435 196 LINE SMOOTH",
"435 122 OFFCURVE",
"377 4 OFFCURVE",
"245 4 CURVE SMOOTH",
"150 4 OFFCURVE",
"95 64 OFFCURVE",
"95 169 CURVE SMOOTH",
"95 500 LINE",
"79 500 LINE",
"79 167 LINE SMOOTH",
"79 54 OFFCURVE",
"139 -10 OFFCURVE",
"242 -10 CURVE SMOOTH"
);
}
);
width = 536;
},
{
anchors = (
{
name = bottom;
position = "{293, 0}";
},
{
name = ogonek;
position = "{499, 0}";
},
{
name = top;
position = "{293, 489}";
},
{
name = topright;
position = "{515, 501}";
}
);
layerId = "F67B2D2A-9F5D-44A5-A579-665B9797A041";
paths = (
{
closed = 1;
nodes = (
"341 -10 OFFCURVE",
"400 20 OFFCURVE",
"432 83 CURVE",
"436 0 LINE",
"499 0 LINE",
"499 500 LINE",
"427 500 LINE",
"427 224 LINE SMOOTH",
"427 112 OFFCURVE",
"358 53 OFFCURVE",
"280 53 CURVE SMOOTH",
"194 53 OFFCURVE",
"158 98 OFFCURVE",
"158 190 CURVE SMOOTH",
"158 500 LINE",
"86 500 LINE",
"86 171 LINE SMOOTH",
"86 43 OFFCURVE",
"168 -10 OFFCURVE",
"262 -10 CURVE SMOOTH"
);
}
);
width = 591;
},
{
anchors = (
{
name = bottom;
position = "{302, 0}";
},
{
name = ogonek;
position = "{553, 0}";
},
{
name = top;
position = "{302, 496}";
},
{
name = topright;
position = "{563, 500}";
}
);
layerId = "8348C28B-C402-4653-9E73-107F95648308";
paths = (
{
closed = 1;
nodes = (
"307 -10 OFFCURVE",
"365 24 OFFCURVE",
"396 94 CURVE",
"401 0 LINE",
"553 0 LINE",
"553 500 LINE",
"383 500 LINE",
"383 232 LINE SMOOTH",
"383 154 OFFCURVE",
"345 120 OFFCURVE",
"299 120 CURVE SMOOTH",
"248 120 OFFCURVE",
"228 149 OFFCURVE",
"228 206 CURVE SMOOTH",
"228 500 LINE",
"58 500 LINE",
"58 166 LINE SMOOTH",
"58 40 OFFCURVE",
"127 -10 OFFCURVE",
"228 -10 CURVE SMOOTH"
);
}
);
width = 614;
}
);
leftKerningGroup = u;
leftMetricsKey = "=|n";
rightKerningGroup = u;
rightMetricsKey = "=|n";
unicode = 0075;
},
{
color = 3;
glyphname = v;
lastChange = "2022-01-17 02:43:02 +0000";
layers = (
{
anchors = (
{
name = bottom;
position = "{227, 0}";
},
{
name = ogonek;
position = "{235, 0}";
},
{
name = top;
position = "{227, 500}";
}
);
background = {
anchors = (
{
name = bottom;
position = "{241, 0}";
},
{
name = ogonek;
position = "{249, 0}";
},
{
name = top;
position = "{241, 500}";
}
);
paths = (
{
closed = 1;
nodes = (
"241 20 LINE",
"40 500 LINE",
"22 500 LINE",
"232 0 LINE",
"249 0 LINE",
"459 500 LINE",
"441 500 LINE"
);
}
);
};
hints = (
{
horizontal = 1;
origin = "{0, 3}";
target = up;
type = BottomGhost;
},
{
horizontal = 1;
origin = "{0, 2}";
target = down;
type = TopGhost;
}
);
layerId = "C00489B0-D6FE-4186-8C18-D0EE90D80B61";
paths = (
{
closed = 1;
nodes = (
"227 20 LINE",
"40 500 LINE",
"22 500 LINE",
"218 0 LINE",
"235 0 LINE",
"431 500 LINE",
"413 500 LINE"
);
}
);
width = 453;
},
{
anchors = (
{
name = bottom;
position = "{249, 0}";
},
{
name = ogonek;
position = "{285, 0}";
},
{
name = top;
position = "{249, 500}";
}
);
background = {
anchors = (
{
name = bottom;
position = "{258, 0}";
},
{
name = ogonek;
position = "{294, 0}";
},
{
name = top;
position = "{258, 500}";
}
);
paths = (
{
closed = 1;
nodes = (
"259 73 LINE",
"95 500 LINE",
"13 500 LINE",
"222 0 LINE",
"294 0 LINE",
"502 500 LINE",
"426 500 LINE"
);
}
);
};
hints = (
{
horizontal = 1;
origin = "{0, 3}";
target = up;
type = BottomGhost;
},
{
horizontal = 1;
origin = "{0, 2}";
target = down;
type = TopGhost;
}
);
layerId = "F67B2D2A-9F5D-44A5-A579-665B9797A041";
paths = (
{
closed = 1;
nodes = (
"250 73 LINE",
"95 500 LINE",
"13 500 LINE",
"212 0 LINE",
"285 0 LINE",
"484 500 LINE",
"408 500 LINE"
);
}
);
width = 497;
},
{
anchors = (
{
name = bottom;
position = "{277, 0}";
},
{
name = ogonek;
position = "{380, 0}";
},
{
name = top;
position = "{277, 500}";
}
);
background = {
anchors = (
{
name = bottom;
position = "{280, 0}";
},
{
name = ogonek;
position = "{382, 0}";
},
{
name = top;
position = "{280, 500}";
}
);
paths = (
{
closed = 1;
nodes = (
"281 119 LINE",
"178 500 LINE",
"-1 500 LINE",
"179 0 LINE",
"382 0 LINE",
"562 500 LINE",
"386 500 LINE"
);
}
);
};
hints = (
{
horizontal = 1;
origin = "{0, 3}";
target = up;
type = BottomGhost;
},
{
horizontal = 1;
origin = "{0, 2}";
target = down;
type = TopGhost;
}
);
layerId = "8348C28B-C402-4653-9E73-107F95648308";
paths = (
{
closed = 1;
nodes = (
"278 119 LINE",
"178 500 LINE",
"-1 500 LINE",
"176 0 LINE",
"380 0 LINE",
"557 500 LINE",
"381 500 LINE"
);
}
);
width = 556;
}
);
rightKerningGroup = v;
unicode = 0076;
},
